<svg width="231" height="128" viewBox="0 0 231 128" fill="none" xmlns="http://www.w3.org/2000/svg">
<path d="M42.4087 14.4237H42.4585C46.6251 14.4582 51.5953 14.5044 55.9621 14.7804C56.424 14.8096 56.8566 14.8338 57.265 14.8566C60.4893 15.0371 62.2035 15.1331 64.848 16.9219C66.9259 18.3276 68.4379 19.9732 68.4379 22.4999C68.4379 31.3761 68.4379 40.2522 68.438 49.1283C68.438 64.2178 68.438 79.3072 68.438 94.3967L68.4379 105.5C68.4379 108.027 66.926 109.672 64.848 111.078C62.2035 112.867 60.4893 112.963 57.265 113.143C56.8566 113.166 56.424 113.19 55.9621 113.22C51.5954 113.496 46.6251 113.542 42.4586 113.576H42.4086C38.2421 113.542 33.2663 113.496 28.8995 113.22C28.4377 113.191 28.005 113.166 27.5966 113.144C24.3723 112.963 22.6581 112.867 20.0137 111.078C17.9357 109.673 16.4237 108.027 16.4237 105.5V22.4998C16.4237 19.9731 17.9357 18.3275 20.0137 16.9218C22.6581 15.1329 24.3723 15.037 27.5966 14.8565C28.005 14.8336 28.4377 14.8094 28.8995 14.7802C33.2663 14.5042 38.2422 14.4582 42.4087 14.4237Z" stroke="#231F20" stroke-width="0.847466"/>
<rect x="21.3305" y="26.3261" width="42.2013" height="70.6215" rx="0.847466" stroke="#231F20" stroke-width="0.847466"/>
<path d="M48.9959 105.161L42.4395 105.161H42.4234L35.867 105.161C35.4915 105.161 35.268 105.245 35.2753 105.436C35.2845 105.675 35.9277 106.208 36.8648 106.291C37.6145 106.357 39.4201 106.344 42.4234 106.344H42.4395C45.4428 106.344 47.2484 106.357 47.9981 106.291C48.9352 106.208 49.5784 105.675 49.5876 105.436C49.5949 105.245 49.3714 105.161 48.9959 105.161Z" fill="#231F20" stroke="#231F20" stroke-width="0.847466"/>
<path d="M141.528 61.25C141.528 61.3804 141.363 61.4627 141.033 61.6274L136.051 64.117C135.858 64.2138 135.761 64.2622 135.689 64.2474C135.628 64.2349 135.576 64.1965 135.547 64.1423C135.511 64.0782 135.529 63.9715 135.565 63.7581C135.681 63.0625 135.754 62.6231 135.797 62.25H85.0276C84.4753 62.25 84.0276 61.8023 84.0276 61.25C84.0276 60.6977 84.4753 60.25 85.0276 60.25H135.797C135.754 59.8769 135.681 59.4375 135.565 58.7419C135.529 58.5285 135.511 58.4218 135.547 58.3577C135.576 58.3035 135.628 58.2651 135.689 58.2526C135.761 58.2378 135.858 58.2862 136.051 58.383L141.033 60.8726C141.363 61.0373 141.528 61.1196 141.528 61.25Z" fill="#009DB9"/>
<path d="M84.0276 66.75C84.0276 66.6196 84.1924 66.5373 84.5219 66.3726L89.504 63.883C89.6977 63.7862 89.7945 63.7378 89.8662 63.7526C89.9267 63.7651 89.9787 63.8035 90.0085 63.8577C90.0437 63.9218 90.0259 64.0285 89.9903 64.2419C89.8743 64.9375 89.801 65.3769 89.7581 65.75L140.528 65.75C141.08 65.75 141.528 66.1977 141.528 66.75C141.528 67.3023 141.08 67.75 140.528 67.75L89.7581 67.75C89.801 68.1231 89.8743 68.5625 89.9903 69.2581C90.0259 69.4715 90.0437 69.5782 90.0085 69.6423C89.9787 69.6965 89.9267 69.7349 89.8661 69.7474C89.7945 69.7622 89.6977 69.7138 89.504 69.617L84.5219 67.1274C84.1924 66.9627 84.0276 66.8804 84.0276 66.75Z" fill="#009DB9"/>
<rect x="157.058" y="4.36442" width="57.5778" height="119.271" rx="9.62059" stroke="#231F20" stroke-width="0.728832"/>
<rect x="159.672" y="6.58561" width="52.3498" height="114.829" rx="7.65274" stroke="#231F20" stroke-width="0.728832"/>
<rect x="177.783" y="8.32047" width="16.128" height="4.25503" rx="2.12752" stroke="#231F20" stroke-width="0.728832"/>
</svg>
