<svg width="17" height="20" viewBox="0 0 17 20" fill="none" xmlns="http://www.w3.org/2000/svg">
<g clip-path="url(#clip0_7427_198466)">
<path d="M10.9869 15.9889C12.1582 15.9889 13.2852 15.8011 14.3405 15.4475C12.3792 14.0386 11.0974 11.7403 11.0974 9.13808C11.0974 5.61322 13.4455 2.64084 16.6609 1.69609C14.5173 0.651893 11.9758 0.0496826 9.24656 0.0496826C6.06424 0.0496826 3.13607 0.872887 0.793525 2.2541C0.495182 3.232 0.334961 4.27068 0.334961 5.3425C0.346011 11.221 5.10844 15.9889 10.9869 15.9889Z" fill="#231F20"/>
<path d="M0.11377 15.4806V15.1326C0.11377 14.6022 0.202167 14.0939 0.362388 13.6243C0.539184 13.9447 0.743604 14.2596 0.964598 14.558C2.32371 16.3867 4.48394 17.7734 7.053 18.3867L7.26847 18.4364C7.39001 18.464 7.50603 18.4861 7.62758 18.5082C8.40659 18.6574 9.21874 18.7348 10.053 18.7348C10.5944 18.7348 11.1303 18.7016 11.6497 18.6353C12.8707 18.4861 14.0254 18.1657 15.0696 17.7071C15.1027 17.6961 15.1414 17.6795 15.1745 17.6685C14.7215 18.4254 13.9922 19 13.1138 19.2541C11.5558 19.7016 9.832 19.9613 7.99775 19.9944C6.77675 19.9723 5.84305 19.9171 4.74913 19.7127C4.67731 19.6961 4.60548 19.685 4.52813 19.6685C4.08615 19.5801 3.61101 19.464 3.08062 19.3093C3.06957 19.3038 2.90382 19.2596 2.89278 19.2541C2.57233 19.1547 2.26294 19.011 1.98117 18.8397C0.865151 18.1491 0.11377 16.9005 0.11377 15.4806Z" fill="#231F20"/>
</g>
<defs>
<clipPath id="clip0_7427_198466">
<rect width="16.6298" height="20" fill="white" transform="translate(0.0751953)"/>
</clipPath>
</defs>
</svg>
