<svg width="24" height="24" viewBox="0 0 24 24" fill="none" xmlns="http://www.w3.org/2000/svg">
<path d="M3.49999 22C2.99999 22 2.49999 21.9 1.99999 21.6C0.599987 20.8 0.0999871 18.9 0.899987 17.5L9.39999 3.30002C9.69999 2.90002 9.99999 2.50002 10.4 2.30002C11.1 1.90002 11.9 1.80002 12.7 2.00002C13.5 2.20002 14.1 2.70002 14.6 3.40002L23 17.5C23.3 18 23.4 18.5 23.4 19C23.4 19.8 23.1 20.6 22.5 21.1C22 21.7 21.3 22 20.5 22H3.49999ZM11.1 4.40002L2.69999 18.5C2.39999 19 2.59999 19.6 3.09999 19.9C3.19999 20 3.39999 20 3.49999 20H20.4C20.7 20 20.9 19.9 21.1 19.7C21.3 19.5 21.4 19.3 21.4 19C21.4 18.8 21.4 18.7 21.3 18.5L12.9 4.40002C12.6 3.90002 12 3.80002 11.5 4.00002C11.3 4.10002 11.2 4.20002 11.1 4.40002ZM12 18C11.4 18 11 17.6 11 17C11 16.4 11.4 16 12 16C12.6 16 13 16.4 13 17C13 17.6 12.6 18 12 18ZM12 14C11.4 14 11 13.6 11 13V9.00002C11 8.40002 11.4 8.00002 12 8.00002C12.6 8.00002 13 8.40002 13 9.00002V13C13 13.6 12.6 14 12 14Z" fill="#231F20"/>
</svg>
