<svg width="24" height="24" viewBox="0 0 24 24" fill="none" xmlns="http://www.w3.org/2000/svg">
<path d="M6.34315 17.6569C5.91888 17.2326 5.91888 16.6669 6.34315 16.2426L14.5456 8.0402L7.05025 8.0402C6.48457 8.0402 6.0603 7.61594 6.0603 7.05025C6.0603 6.48457 6.48457 6.0603 7.05025 6.0603L16.9497 6.0603C17.0912 6.0603 17.2326 6.0603 17.3033 6.13101C17.4447 6.13101 17.5861 6.27243 17.6569 6.34314C17.7276 6.41386 17.869 6.55528 17.869 6.6967C17.9397 6.76741 17.9397 6.90883 17.9397 7.05025L17.9397 16.9497C17.9397 17.5154 17.5154 17.9397 16.9497 17.9397C16.3841 17.9397 15.9598 17.5154 15.9598 16.9497L15.9598 9.45441L7.75736 17.6569C7.3331 18.0811 6.76741 18.0811 6.34315 17.6569Z" fill="#231F20"/>
</svg>
