<svg width="54" height="10" viewBox="0 0 54 10" fill="none" xmlns="http://www.w3.org/2000/svg">
<g id="Frame 482557">
<path id="Vector" d="M2.20306 9.15544C2.20306 9.34563 2.0446 9.49985 1.84919 9.49985H0.618431C0.423025 9.49985 0.264648 9.34563 0.264648 9.15544V5.3443C0.264648 5.15411 0.423025 4.99989 0.618431 4.99989H1.84919C2.0446 4.99989 2.20306 4.84574 2.20306 4.65555V2.64433C2.20306 2.45415 2.36143 2.3 2.55684 2.3H4.14138V4.65555C4.14138 4.84574 4.29976 4.99989 4.49517 4.99989H5.72593C5.92134 4.99989 6.07979 4.84574 6.07979 4.65555V2.64433C6.07979 2.45415 5.92134 2.3 5.72593 2.3H4.14138V0.844365C4.14138 0.654177 4.29976 0.5 4.49517 0.5H7.66434C7.85975 0.5 8.01812 0.654177 8.01812 0.844365V9.15544C8.01812 9.34563 7.85975 9.49985 7.66434 9.49985H6.43358C6.23817 9.49985 6.07979 9.34563 6.07979 9.15544V7.14422C6.07979 6.95403 5.92134 6.79989 5.72593 6.79989H2.55684C2.36143 6.79989 2.20306 6.95403 2.20306 7.14422V9.15544Z" fill="#231F20"/>
<path id="Vector_2" d="M17.2056 4.65572C17.2056 4.84591 17.0472 5.00006 16.8518 5.00006H15.2673V4.4445C15.2673 4.25432 15.1088 4.10009 14.9134 4.10009H9.80601C9.6106 4.10009 9.45215 3.94595 9.45215 3.75576V2.6445C9.45215 2.45432 9.6106 2.30017 9.80601 2.30017H16.8518C17.0472 2.30017 17.2056 2.45432 17.2056 2.6445V4.65572ZM17.2056 9.15561C17.2056 9.3458 17.0472 9.50002 16.8518 9.50002H9.80601C9.6106 9.50002 9.45215 9.3458 9.45215 9.15561V7.14439C9.45215 6.9542 9.6106 6.80006 9.80601 6.80006H11.3906V7.35568C11.3906 7.54587 11.5489 7.70002 11.7443 7.70002H16.8518C17.0472 7.70002 17.2056 7.85424 17.2056 8.04443V9.15561ZM15.2673 6.45572C15.2673 6.64591 15.1088 6.80006 14.9134 6.80006H11.3906V5.34447C11.3906 5.15428 11.5489 5.00006 11.7443 5.00006H15.2673V6.45572Z" fill="#231F20"/>
<path id="Vector_3" d="M26.3936 9.15544C26.3936 9.34563 26.2352 9.49985 26.0397 9.49985H22.8707C22.6752 9.49985 22.5169 9.34563 22.5169 9.15544V7.69985H20.9323C20.7369 7.69985 20.5785 7.5457 20.5785 7.35551V4.44433C20.5785 4.25415 20.4201 4.09992 20.2247 4.09992H18.9939C18.7985 4.09992 18.6401 3.94578 18.6401 3.75559V2.64433C18.6401 2.45415 18.7985 2.3 18.9939 2.3H20.2247C20.4201 2.3 20.5785 2.14578 20.5785 1.95559V0.844365C20.5785 0.654177 20.7369 0.5 20.9323 0.5H22.163C22.3584 0.5 22.5169 0.654177 22.5169 0.844365V1.95559C22.5169 2.14578 22.6752 2.3 22.8707 2.3H26.0397C26.2352 2.3 26.3936 2.45415 26.3936 2.64433V3.75559C26.3936 3.94578 26.2352 4.09992 26.0397 4.09992H22.8707C22.6752 4.09992 22.5169 4.25415 22.5169 4.44433V7.69985H26.0397C26.2352 7.69985 26.3936 7.85407 26.3936 8.04426V9.15544Z" fill="#231F20"/>
<path id="Vector_4" d="M35.4927 9.15561C35.4927 9.3458 35.3344 9.50002 35.1389 9.50002H30.0314C29.836 9.50002 29.6777 9.3458 29.6777 9.15561V7.70002H28.093C27.8976 7.70002 27.7393 7.54587 27.7393 7.35568V4.4445C27.7393 4.25432 27.8976 4.10009 28.093 4.10009H29.6777V4.65572C29.6777 4.84591 29.836 5.00006 30.0314 5.00006H33.2005C33.3959 5.00006 33.5544 4.84591 33.5544 4.65572V4.10009H35.1389C35.3344 4.10009 35.4927 4.25432 35.4927 4.4445V6.45572C35.4927 6.64591 35.3344 6.80006 35.1389 6.80006H30.0314C29.836 6.80006 29.6777 6.9542 29.6777 7.14439V7.70002H35.1389C35.3344 7.70002 35.4927 7.85424 35.4927 8.04443V9.15561ZM33.5544 4.10009H29.6777V2.6445C29.6777 2.45432 29.836 2.30017 30.0314 2.30017H33.2005C33.3959 2.30017 33.5544 2.45432 33.5544 2.6445V4.10009Z" fill="#231F20"/>
<path id="Vector_5" d="M38.7768 7.70002H37.1922C36.9968 7.70002 36.8384 7.54587 36.8384 7.35568V4.4445C36.8384 4.25432 36.9968 4.10009 37.1922 4.10009H38.7768V7.70002ZM42.6535 4.10009H38.7768V2.6445C38.7768 2.45432 38.9352 2.30017 39.1306 2.30017H42.2997C42.4951 2.30017 42.6535 2.45432 42.6535 2.6445V4.10009ZM44.5919 5.55569C44.5919 5.74587 44.4335 5.90009 44.2381 5.90009H43.0074C42.812 5.90009 42.6535 5.74587 42.6535 5.55569V4.10009H44.2381C44.4335 4.10009 44.5919 4.25432 44.5919 4.4445V5.55569ZM44.5919 9.15561C44.5919 9.3458 44.4335 9.50002 44.2381 9.50002H39.1306C38.9352 9.50002 38.7768 9.3458 38.7768 9.15561V7.70002H44.2381C44.4335 7.70002 44.5919 7.85424 44.5919 8.04443V9.15561Z" fill="#231F20"/>
<path id="Vector_6" d="M51.797 4.10009H47.9203V2.6445C47.9203 2.45432 48.0787 2.30017 48.2741 2.30017H51.4432C51.6386 2.30017 51.797 2.45432 51.797 2.6445V4.10009ZM47.9203 7.70002H46.3357C46.1403 7.70002 45.9819 7.54587 45.9819 7.35568V4.4445C45.9819 4.25432 46.1403 4.10009 46.3357 4.10009H47.9203V7.70002ZM53.7354 7.35568C53.7354 7.54587 53.577 7.70002 53.3816 7.70002H51.797V4.10009H53.3816C53.577 4.10009 53.7354 4.25432 53.7354 4.4445V7.35568ZM51.797 9.15561C51.797 9.3458 51.6386 9.50002 51.4432 9.50002H48.2741C48.0787 9.50002 47.9203 9.3458 47.9203 9.15561V7.70002H51.797V9.15561Z" fill="#231F20"/>
</g>
</svg>
