<svg width="19" height="20" viewBox="0 0 19 20" fill="none" xmlns="http://www.w3.org/2000/svg">
<g id=".Logo/Bisq">
<path id="Combined-Shape" d="M16.9546 4.72439C17.6328 6.19898 17.7768 6.50352 18.2968 8.00306C18.5954 8.94515 17.9973 10.3405 15.5317 9.15441C13.7757 8.31738 12.5052 7.72434 13.5516 6.32899C14.0615 5.65192 14.6388 5.02134 15.2758 4.44566C15.9537 3.85363 16.3735 3.4805 16.9546 4.72439ZM16.37 14.1694C17.6614 12.8994 19.4556 14.3202 18.2023 16.0249C15.6771 19.4769 11.2688 20.8535 7.31867 19.4665C3.36857 18.0794 0.70438 14.2868 0.705163 9.94833C0.695208 7.34911 1.55738 5.18019 3.20475 3.22649C4.79046 1.45212 7.15112 0.0303599 9.47936 0C12.7522 0 14.2144 2.86291 13.0617 4.45939C11.7737 6.23452 10.276 6.09018 9.16223 5.32891C9.16223 5.32891 7.62985 4.24201 7.17741 3.87941C6.48056 3.3364 5.71437 3.3364 5.43614 4.20592C4.94903 5.76367 4.70547 6.74233 4.32237 8.30008C4.14415 9.08383 4.05082 9.88589 4.04414 10.6913C4.05214 12.1739 4.70517 13.5729 5.82008 14.4959C6.58992 15.219 7.41681 15.8734 8.29202 16.4523C8.99669 16.9331 9.81749 17.1969 10.6599 17.2136H10.7293C11.5717 17.1969 12.3925 16.9331 13.0972 16.4523C14.2353 15.7673 15.3287 15.0046 16.37 14.1694ZM7.16272 12.3741C6.69827 12.204 5.64687 11.2864 5.95575 10.6059C6.07976 10.2317 6.97709 10.1302 7.25516 10.1302C8.89576 10.0963 8.95739 13.0208 7.16272 12.3741ZM10.0482 15.49C9.83862 15.3021 9.45431 14.9264 9.10477 14.6131C9.00797 14.508 8.98935 14.3616 9.05725 14.2397C9.12515 14.1178 9.26683 14.0432 9.41867 14.0495C10.0352 14.0181 10.6533 14.0181 11.2698 14.0495C11.4129 14.06 11.5367 14.1428 11.5887 14.2627C11.6407 14.3827 11.6118 14.5187 11.5142 14.6131C11.1655 14.9264 10.7812 15.3021 10.6064 15.49C10.5306 15.5528 10.4305 15.5866 10.3273 15.5843C10.2241 15.5866 10.124 15.5528 10.0482 15.49ZM13.728 12.3741C11.9333 13.0208 11.9949 10.0963 13.6355 10.1302C13.9136 10.1302 14.7801 10.2317 14.9349 10.6059C15.2438 11.2864 14.1924 12.204 13.728 12.3741Z" fill="#231F20"/>
</g>
</svg>
