<svg width="28" height="24" viewBox="0 0 28 24" fill="none" xmlns="http://www.w3.org/2000/svg">
<rect width="12" height="12" rx="6" fill="#525152"/>
<path d="M5.324 4.456H3.532V3.4H8.412V4.456H6.62V9H5.324V4.456Z" fill="white"/>
<path d="M23 9C23 7.93914 22.5786 6.92172 21.8284 6.17157C21.0783 5.42143 20.0609 5 19 5L19 3C19 2.73479 18.8946 2.48043 18.7071 2.29289C18.5196 2.10536 18.2652 2 18 2C17.7348 2 17.4804 2.10536 17.2929 2.29289C17.1054 2.48043 17 2.73478 17 3L17 5L15 5L15 3C15 2.73478 14.8946 2.48043 14.7071 2.29289C14.5196 2.10536 14.2652 2 14 2C13.7348 2 13.4804 2.10536 13.2929 2.29289C13.1054 2.48043 13 2.73478 13 3L13 5L10 5C9.73478 5 9.48043 5.10536 9.29289 5.29289C9.10536 5.48043 9 5.73478 9 6C9 6.26522 9.10536 6.51957 9.29289 6.70711C9.48043 6.89464 9.73478 7 10 7L11 7L11 17L10 17C9.73478 17 9.48043 17.1054 9.29289 17.2929C9.10535 17.4804 9 17.7348 9 18C9 18.2652 9.10535 18.5196 9.29289 18.7071C9.48043 18.8946 9.73478 19 10 19L13 19L13 21C13 21.2652 13.1054 21.5196 13.2929 21.7071C13.4804 21.8946 13.7348 22 14 22C14.2652 22 14.5196 21.8946 14.7071 21.7071C14.8946 21.5196 15 21.2652 15 21L15 19L17 19L17 21C17 21.2652 17.1054 21.5196 17.2929 21.7071C17.4804 21.8946 17.7348 22 18 22C18.2652 22 18.5196 21.8946 18.7071 21.7071C18.8946 21.5196 19 21.2652 19 21L19 19C19.8103 18.9948 20.5999 18.7436 21.2643 18.2797C21.9287 17.8159 22.4365 17.1611 22.7205 16.4022C23.0046 15.6433 23.0514 14.8161 22.8549 14.03C22.6584 13.2438 22.2277 12.536 21.62 12C22.0503 11.627 22.396 11.1664 22.634 10.6491C22.872 10.1317 22.9968 9.56947 23 9ZM19 17L13 17L13 13L19 13C19.5304 13 20.0391 13.2107 20.4142 13.5858C20.7893 13.9609 21 14.4696 21 15C21 15.5304 20.7893 16.0391 20.4142 16.4142C20.0391 16.7893 19.5304 17 19 17ZM19 11L13 11L13 7L19 7C19.5304 7 20.0391 7.21072 20.4142 7.58579C20.7893 7.96086 21 8.46957 21 9C21 9.53044 20.7893 10.0391 20.4142 10.4142C20.0391 10.7893 19.5304 11 19 11Z" fill="#231F20"/>
</svg>
