<svg width="18" height="18" viewBox="0 0 18 18" fill="none" xmlns="http://www.w3.org/2000/svg">
<path fill-rule="evenodd" clip-rule="evenodd" d="M8.81191 9.00023L12.5859 6.237C12.8367 6.05327 12.972 5.75242 12.9422 5.44433C12.9123 5.13642 12.7219 4.86634 12.4403 4.73366L5.765 1.58507C5.32348 1.3769 4.79543 1.56389 4.5856 2.00303C4.52299 2.13423 4.49591 2.27308 4.5005 2.40887V10.4062C4.50041 10.4133 4.50041 10.4203 4.5005 10.4274V15.5931C4.51067 15.2741 4.69585 14.9717 5.00616 14.8251L6.27079 14.2287V10.8608L8.81069 9.00109L8.81191 9.00023ZM8.81069 9.00109L6.27083 10.8605L6.27079 3.77156L10.3444 5.69286L7.31887 7.908L8.81069 9.00109Z" fill="#868385"/>
<path d="M8.81064 9.00112L7.31928 10.0931L10.3443 12.3079L5.00611 14.8251C4.56422 15.034 4.37606 15.5586 4.58571 15.9973C4.73744 16.3145 5.05492 16.5 5.38607 16.5C5.51321 16.5 5.64271 16.4725 5.76493 16.4151L12.4403 13.2669C12.7219 13.1338 12.9122 12.8641 12.9421 12.5564C12.972 12.2481 12.8366 11.9473 12.5858 11.7634L8.81184 9.00024L8.81064 9.00112Z" fill="#525152"/>
<path d="M6.27051 7.14008V10.8605L8.81037 9.0011L6.27051 7.14008Z" fill="#231F20"/>
</svg>
