<svg width="24" height="24" viewBox="0 0 24 24" fill="none" xmlns="http://www.w3.org/2000/svg">
<path d="M20 23H4C2.3 23 1 21.7 1 20V16C1 14.3 2.3 13 4 13H20C21.7 13 23 14.3 23 16V20C23 21.7 21.7 23 20 23ZM4 15C3.4 15 3 15.4 3 16V20C3 20.6 3.4 21 4 21H20C20.6 21 21 20.6 21 20V16C21 15.4 20.6 15 20 15H4ZM6 19C5.4 19 5 18.6 5 18C5 17.4 5.4 17 6 17C6.6 17 7 17.4 7 18C7 18.6 6.6 19 6 19ZM20 11H4C2.3 11 1 9.7 1 8V4C1 2.3 2.3 1 4 1H20C21.7 1 23 2.3 23 4V8C23 9.7 21.7 11 20 11ZM4 3C3.4 3 3 3.4 3 4V8C3 8.6 3.4 9 4 9H20C20.6 9 21 8.6 21 8V4C21 3.4 20.6 3 20 3H4ZM6 7C5.5 7 5 6.6 5 6C5 5.4 5.4 5 6 5C6.6 5 7 5.4 7 6C7 6.6 6.6 7 6 7Z" fill="#231F20"/>
</svg>
