<svg width="18" height="18" viewBox="0 0 18 18" fill="none" xmlns="http://www.w3.org/2000/svg">
<g clip-path="url(#clip0_21642_22909)">
<path d="M5.31652 17.25C4.1773 17.25 3.03808 16.7964 2.12671 15.9648C0.303957 14.2259 0.303957 11.3531 2.05076 9.53866L4.3292 7.27062C4.4811 7.19502 4.63299 7.04381 4.78489 6.89261C5.77221 6.1366 6.98738 5.83419 8.1266 6.061C9.34177 6.2122 10.405 6.89261 11.0886 7.79983C11.3164 8.10223 11.2405 8.63144 10.9367 8.85825C10.6329 9.08505 10.1012 9.00945 9.8734 8.70705C9.41771 8.02663 8.65823 7.64863 7.89875 7.49742C7.06333 7.34622 6.30385 7.57302 5.62032 8.10223C5.46842 8.17784 5.39247 8.25344 5.31652 8.40464L3.03808 10.6727C1.89886 11.8823 1.89886 13.7723 3.11403 14.9064C4.3292 16.0404 6.15195 16.0404 7.36712 14.9064L8.65823 13.6211C8.96203 13.3187 9.41771 13.3187 9.72151 13.6211C10.0253 13.9235 10.0253 14.3771 9.72151 14.6796L8.43039 15.9648C7.59496 16.872 6.45574 17.25 5.31652 17.25ZM10.5569 12.0335C9.18987 12.0335 7.82281 11.4287 6.91143 10.2191C6.68359 9.91667 6.75953 9.38746 7.06333 9.16065C7.36712 8.93385 7.89875 9.00945 8.1266 9.31186C9.11392 10.6727 11.0126 10.8995 12.3797 9.91667C12.5316 9.84107 12.6075 9.76546 12.6835 9.61426L14.9619 7.34622C16.1011 6.1366 16.1011 4.24656 14.886 3.11254C13.6708 1.97852 11.848 1.97852 10.6329 3.11254L9.34177 4.39777C9.03797 4.70017 8.58229 4.70017 8.27849 4.39777C7.9747 4.09536 7.9747 3.64175 8.27849 3.33935L9.56961 2.05412C11.3164 0.315292 14.1265 0.315292 15.8733 2.05412C17.696 3.79296 17.696 6.66581 15.9492 8.48024L13.6708 10.7483C13.5189 10.8995 13.367 11.0507 13.1392 11.2019C12.4556 11.7311 11.5443 12.0335 10.5569 12.0335Z" fill="#C2C1C1"/>
</g>
<defs>
<clipPath id="clip0_21642_22909">
<rect width="18" height="18" fill="white"/>
</clipPath>
</defs>
</svg>
