<svg width="18" height="18" viewBox="0 0 18 18" fill="none" xmlns="http://www.w3.org/2000/svg">
<path d="M6.75 15.75C6.525 15.75 6.375 15.675 6.225 15.525L2.475 11.775C2.4 11.7 2.325 11.625 2.325 11.55C2.25 11.475 2.25 11.325 2.25 11.25C2.25 11.175 2.25 11.025 2.325 10.95C2.325 10.875 2.4 10.8 2.475 10.725L6.225 6.975C6.525 6.675 6.975 6.675 7.275 6.975C7.575 7.275 7.575 7.725 7.275 8.025L4.8 10.5H12C13.275 10.5 14.25 9.525 14.25 8.25V3C14.25 2.55 14.55 2.25 15 2.25C15.45 2.25 15.75 2.55 15.75 3V8.25C15.75 10.35 14.1 12 12 12H4.8L7.275 14.475C7.575 14.775 7.575 15.225 7.275 15.525C7.125 15.675 6.975 15.75 6.75 15.75Z" fill="#231F20"/>
</svg>
