<svg width="16" height="16" viewBox="0 0 16 16" fill="none" xmlns="http://www.w3.org/2000/svg">
<g id="Check Circle" clip-path="url(#clip0_7465_22415)">
<path id="Vector" d="M7.99996 15.3333C3.93329 15.3333 0.666626 12.0666 0.666626 7.99996C0.666626 3.93329 3.93329 0.666626 7.99996 0.666626C9.06663 0.666626 10.0666 0.866626 11 1.33329C11.3333 1.46663 11.4666 1.86663 11.3333 2.19996C11.2 2.53329 10.8 2.66663 10.4666 2.53329C9.66663 2.19996 8.86663 1.99996 7.99996 1.99996C4.66663 1.99996 1.99996 4.66663 1.99996 7.99996C1.99996 11.3333 4.66663 14 7.99996 14C11.3333 14 14 11.3333 14 7.99996V7.39996C14 6.99996 14.2666 6.73329 14.6666 6.73329C15.0666 6.73329 15.3333 6.99996 15.3333 7.39996V7.99996C15.3333 12.0666 12.0666 15.3333 7.99996 15.3333ZM7.99996 9.99996C7.79996 9.99996 7.66663 9.93329 7.53329 9.79996L5.53329 7.79996C5.26663 7.53329 5.26663 7.13329 5.53329 6.86663C5.79996 6.59996 6.19996 6.59996 6.46663 6.86663L7.99996 8.39996L14.2 2.19996C14.4666 1.93329 14.8666 1.93329 15.1333 2.19996C15.4 2.46663 15.4 2.86663 15.1333 3.13329L8.46663 9.79996C8.33329 9.93329 8.19996 9.99996 7.99996 9.99996Z" fill="#BF755F"/>
</g>
<defs>
<clipPath id="clip0_7465_22415">
<rect width="16" height="16" fill="white"/>
</clipPath>
</defs>
</svg>
