<svg xmlns="http://www.w3.org/2000/svg" width="24" height="24" viewBox="0 0 24 24" fill="none">
    <path d="M6.34315 17.6568C5.91888 17.2326 5.91888 16.6669 6.34315 16.2426L10.5858 12L6.34315 7.75735C5.91888 7.33308 5.91888 6.7674 6.34315 6.34313C6.76741 5.91887 7.3331 5.91887 7.75736 6.34313L12 10.5858L16.2426 6.34313C16.6669 5.91887 17.2326 5.91887 17.6569 6.34313C18.0811 6.7674 18.0811 7.33308 17.6569 7.75735L13.4142 12L17.6569 16.2426C18.0811 16.6669 18.0811 17.2326 17.6569 17.6568C17.2326 18.0811 16.6669 18.0811 16.2426 17.6568L12 13.4142L7.75736 17.6568C7.3331 18.0811 6.76741 18.0811 6.34315 17.6568Z" fill="#231F20"/>
</svg>