<svg width="17" height="16" viewBox="0 0 17 16" fill="none" xmlns="http://www.w3.org/2000/svg">
<g id="Status">
<path id="Vector" d="M8.50008 15.3333C4.43341 15.3333 1.16675 12.0666 1.16675 7.99996C1.16675 3.93329 4.43341 0.666626 8.50008 0.666626C12.5667 0.666626 15.8334 3.93329 15.8334 7.99996C15.8334 12.0666 12.5667 15.3333 8.50008 15.3333ZM8.50008 1.99996C5.16675 1.99996 2.50008 4.66663 2.50008 7.99996C2.50008 11.3333 5.16675 14 8.50008 14C11.8334 14 14.5001 11.3333 14.5001 7.99996C14.5001 4.66663 11.8334 1.99996 8.50008 1.99996ZM10.5001 10.6666C10.3001 10.6666 10.1667 10.6 10.0334 10.4666L8.50008 8.93329L6.96675 10.4666C6.70008 10.7333 6.30008 10.7333 6.03341 10.4666C5.76675 10.2 5.76675 9.79996 6.03341 9.53329L7.56675 7.99996L6.03341 6.46663C5.76675 6.19996 5.76675 5.79996 6.03341 5.53329C6.30008 5.26663 6.70008 5.26663 6.96675 5.53329L8.50008 7.06663L10.0334 5.53329C10.3001 5.26663 10.7001 5.26663 10.9667 5.53329C11.2334 5.79996 11.2334 6.19996 10.9667 6.46663L9.43341 7.99996L10.9667 9.53329C11.2334 9.79996 11.2334 10.2 10.9667 10.4666C10.8334 10.6 10.7001 10.6666 10.5001 10.6666Z" fill="#009DB9"/>
</g>
</svg>
