<svg width="16" height="16" viewBox="0 0 16 16" fill="none" xmlns="http://www.w3.org/2000/svg">
<path fill-rule="evenodd" clip-rule="evenodd" d="M9.4919 3.36506C9.23038 2.57562 8.37546 2.22038 7.54829 2.10425C6.65722 1.97914 5.54962 2.08432 4.42364 2.4233C3.29766 2.76229 2.31609 3.28608 1.64219 3.88233C1.01473 4.43749 0.496788 5.20864 0.719672 6.01386L1.34887 8.32749L1.35096 8.33444C1.47112 8.73355 1.76225 9.02183 2.09083 9.21927C2.41966 9.41686 2.82285 9.54749 3.25287 9.62444C3.91151 9.7423 4.68914 9.74425 5.48668 9.62281C5.52488 10.1766 5.75118 10.7283 6.11354 11.2324C6.65777 11.9897 7.53178 12.6799 8.66861 13.2119C9.80801 13.745 10.9785 13.994 11.9639 13.9428C12.9184 13.8931 13.8501 13.5437 14.2474 12.7098L15.1624 10.9597C15.1744 10.9366 15.1847 10.9131 15.1931 10.8893C15.5448 10.0553 15.1936 9.12901 14.6133 8.37567C13.9993 7.57852 13.0289 6.82688 11.8578 6.27888C11.2666 6.00229 10.6711 5.79934 10.0986 5.67054L9.50348 3.40434L9.50424 3.40411L9.49865 3.38595L9.49308 3.36474L9.4919 3.36506ZM2.35931 4.69284C1.78896 5.19747 1.71458 5.56575 1.76523 5.734L1.83087 5.97655C2.03407 6.10039 2.31549 6.20012 2.68276 6.25819C3.41221 6.37352 4.37386 6.30063 5.38689 5.99564C6.39993 5.69066 7.24198 5.22054 7.78653 4.72166C8.22551 4.31948 8.42201 3.94975 8.44197 3.65531C8.35068 3.48944 8.06625 3.2698 7.39782 3.17596C6.69407 3.07715 5.7467 3.15518 4.73562 3.45958C3.72453 3.76397 2.89155 4.22193 2.35931 4.69284ZM8.7133 4.65611C8.57664 4.84807 8.41009 5.03102 8.22516 5.20044C7.59405 5.77863 6.65964 6.29059 5.57408 6.61741C4.48852 6.94423 3.42678 7.03322 2.58135 6.89955C2.39774 6.87052 2.21843 6.82972 2.04837 6.77609L2.38874 8.02724C2.4087 8.08823 2.47059 8.18489 2.64823 8.29164C2.83033 8.40106 3.09747 8.49722 3.4435 8.55914C4.03438 8.66488 4.78577 8.65835 5.5675 8.51149L5.56706 8.5097C5.70203 8.47629 5.83822 8.43901 5.97518 8.39777C7.00278 8.08841 7.90086 7.57421 8.49905 7.03119C8.79736 6.76039 9.01032 6.49222 9.13191 6.25011L8.7133 4.65611ZM6.61071 9.11685C6.62948 9.05906 6.63867 8.99766 6.63685 8.93501C7.22694 9.72706 8.19432 10.4863 9.37335 11.038C10.5241 11.5764 11.6925 11.8314 12.6596 11.7951C12.9822 11.783 13.2939 11.7374 13.5786 11.6532L13.2778 12.2287L13.2727 12.2395C13.1307 12.5431 12.7095 12.8203 11.9077 12.862C11.1323 12.9023 10.1385 12.7048 9.12727 12.2316C8.11351 11.7573 7.40318 11.1725 6.99234 10.6008C6.58497 10.034 6.49439 9.5195 6.61071 9.11685ZM13.7559 9.03608C14.249 9.67617 14.3192 10.17 14.1958 10.4687C13.9864 10.8483 13.4625 11.1152 12.6353 11.1463C11.7912 11.1779 10.7254 10.9537 9.64854 10.4498C8.57735 9.9486 7.73018 9.28095 7.21429 8.62133C7.88935 8.31057 8.48164 7.92397 8.93549 7.51197C9.22598 7.24827 9.46777 6.9669 9.63661 6.68003C10.1932 6.7845 10.7944 6.97617 11.3991 7.2591C12.4466 7.74922 13.2675 8.40193 13.7559 9.03608Z" fill="white"/>
</svg>
