<svg width="24" height="24" viewBox="0 0 24 24" fill="none" xmlns="http://www.w3.org/2000/svg">
<path fill-rule="evenodd" clip-rule="evenodd" d="M16.6038 8.63093C16.7206 8.39733 16.6748 8.1152 16.4902 7.93052C16.3055 7.74584 16.0233 7.70007 15.7897 7.81688L10.6556 10.3843C10.5382 10.443 10.443 10.5382 10.3843 10.6556L7.81688 15.7897C7.70007 16.0233 7.74584 16.3055 7.93052 16.4902C8.1152 16.6748 8.39733 16.7206 8.63093 16.6038L13.765 14.0363C13.8824 13.9776 13.9776 13.8824 14.0363 13.765L16.6038 8.63093ZM12.2427 13.3344C12.9129 13.3344 13.4562 12.7911 13.4562 12.1209C13.4562 11.4507 12.9129 10.9074 12.2427 10.9074C11.5725 10.9074 11.0292 11.4507 11.0292 12.1209C11.0292 12.7911 11.5725 13.3344 12.2427 13.3344Z" fill="black"/>
<path fill-rule="evenodd" clip-rule="evenodd" d="M3 12C3 7.02944 7.02944 3 12 3C16.9706 3 21 7.02944 21 12C21 16.9706 16.9706 21 12 21C7.02944 21 3 16.9706 3 12ZM12 4.82022C8.03472 4.82022 4.82022 8.03472 4.82022 12C4.82022 15.9653 8.03472 19.1798 12 19.1798C15.9653 19.1798 19.1798 15.9653 19.1798 12C19.1798 8.03472 15.9653 4.82022 12 4.82022Z" fill="black"/>
</svg>
