<svg width="24" height="24" viewBox="0 0 24 24" fill="none" xmlns="http://www.w3.org/2000/svg">
<g clip-path="url(#clip0_34_1431)">
<path d="M21 21H8C7.7 21 7.4 20.9 7.2 20.7L0.199998 12.7C-0.100002 12.3 -0.100002 11.8 0.199998 11.4L7.2 3.4C7.4 3.1 7.7 3 8 3H21C22.7 3 24 4.3 24 6V18C24 19.7 22.7 21 21 21ZM8.5 19H21C21.6 19 22 18.6 22 18V6C22 5.4 21.6 5 21 5H8.5L2.4 12L8.5 19ZM18 16C17.7 16 17.5 15.9 17.3 15.7L15 13.4L12.7 15.7C12.3 16.1 11.7 16.1 11.3 15.7C10.9 15.3 10.9 14.7 11.3 14.3L13.6 12L11.3 9.7C10.9 9.3 10.9 8.7 11.3 8.3C11.7 7.9 12.3 7.9 12.7 8.3L15 10.6L17.3 8.3C17.7 7.9 18.3 7.9 18.7 8.3C19.1 8.7 19.1 9.3 18.7 9.7L16.4 12L18.7 14.3C19.1 14.7 19.1 15.3 18.7 15.7C18.5 15.9 18.3 16 18 16Z" fill="#231F20"/>
</g>
<defs>
<clipPath id="clip0_34_1431">
<rect width="24" height="24" fill="white"/>
</clipPath>
</defs>
</svg>
