<svg width="24" height="24" viewBox="0 0 24 24" fill="none" xmlns="http://www.w3.org/2000/svg">
<path fill-rule="evenodd" clip-rule="evenodd" d="M16 5V4.5C16 3.11929 14.8807 2 13.5 2L7.50003 2C6.11932 2 5.00003 3.11929 5.00003 4.5L5.00003 16.5C5.00003 17.8807 6.11932 19 7.50003 19H8.00002L8.00002 19.5C8.00002 20.8807 9.1193 22 10.5 22H16.5C17.8807 22 19 20.8807 19 19.5V7.5C19 6.11929 17.8807 5 16.5 5L16 5ZM13.25 4L7.75 4C7.33579 4 7 4.33579 7 4.75V16.5C7 16.9142 7.33579 17.25 7.75 17.25L8.00002 17.25V7.5C8.00002 6.11929 9.1193 5 10.5 5L14 5V4.75C14 4.33579 13.6642 4 13.25 4ZM10.7 7H16.3C16.6866 7 17 7.32335 17 7.72222V19.2778C17 19.6767 16.6866 20 16.3 20H10.7C10.3134 20 10 19.6766 10 19.2778L10 7.72222C10 7.32335 10.3134 7 10.7 7Z" fill="#231F20"/>
</svg>
