<svg width="24" height="24" viewBox="0 0 24 24" fill="none" xmlns="http://www.w3.org/2000/svg">
<path fill-rule="evenodd" clip-rule="evenodd" d="M5.34 4.04847C5.34 2.94433 6.17687 2 7.2665 2L12.8791 2C13.9688 2 14.8056 2.94433 14.8056 4.04847L14.8056 4.79454L16.6693 4.79454C17.8018 4.79454 18.6733 5.77629 18.6733 6.92659L18.6733 19.868C18.6733 21.0183 17.8018 22 16.6693 22L10.6692 22C9.53675 22 8.66518 21.0183 8.66518 19.868L8.66518 19.4131L7.26649 19.4131C6.17686 19.4131 5.33999 18.4688 5.33999 17.3646L5.34 4.04847ZM8.66518 17.7373L8.66519 6.92659C8.66519 5.77629 9.53675 4.79454 10.6692 4.79454L13.1977 4.79454L13.1977 4.04847C13.1977 3.81547 13.0294 3.67583 12.8791 3.67583L7.2665 3.67583C7.11622 3.67583 6.94794 3.81547 6.94794 4.04847L6.94793 17.3646C6.94793 17.5976 7.11621 17.7373 7.26649 17.7373L8.66518 17.7373ZM10.6692 6.47036C10.4761 6.47036 10.2731 6.64742 10.2731 6.92659L10.2731 19.868C10.2731 20.1471 10.4761 20.3242 10.6692 20.3242L16.6693 20.3242C16.8624 20.3242 17.0654 20.1471 17.0654 19.868L17.0654 6.92659C17.0654 6.64743 16.8624 6.47037 16.6693 6.47037L10.6692 6.47036Z" fill="#231F20"/>
</svg>
