<svg width="24" height="24" viewBox="0 0 24 24" fill="none" xmlns="http://www.w3.org/2000/svg">
<g id="Download">
<path id="Vector" d="M19 22H5C3.3 22 2 20.7 2 19V15C2 14.4 2.4 14 3 14C3.6 14 4 14.4 4 15V19C4 19.6 4.4 20 5 20H19C19.6 20 20 19.6 20 19V15C20 14.4 20.4 14 21 14C21.6 14 22 14.4 22 15V19C22 20.7 20.7 22 19 22ZM12 16C11.9 16 11.7 16 11.6 15.9C11.5 15.9 11.4 15.8 11.3 15.7L6.3 10.7C5.9 10.3 5.9 9.7 6.3 9.3C6.7 8.9 7.3 8.9 7.7 9.3L11 12.6V3C11 2.4 11.4 2 12 2C12.6 2 13 2.4 13 3V12.6L16.3 9.3C16.7 8.9 17.3 8.9 17.7 9.3C18.1 9.7 18.1 10.3 17.7 10.7L12.7 15.7C12.6 15.8 12.5 15.9 12.4 15.9C12.3 16 12.1 16 12 16Z" fill="#868385"/>
</g>
</svg>
