<svg width="24" height="24" viewBox="0 0 24 24" fill="none" xmlns="http://www.w3.org/2000/svg">
<path fill-rule="evenodd" clip-rule="evenodd" d="M17.3882 4C16.6955 4 16.0312 4.27517 15.5414 4.76498L5.08186 15.2245C4.97462 15.3317 4.89855 15.4661 4.86176 15.6132L4.025 18.9603C3.95371 19.2454 4.03726 19.5471 4.2451 19.7549C4.45293 19.9627 4.75458 20.0463 5.03972 19.975L8.38677 19.1382C8.5339 19.1015 8.66827 19.0254 8.7755 18.9181L19.235 8.45862C19.4775 8.21609 19.6699 7.92817 19.8012 7.61129C19.9324 7.29442 20 6.95479 20 6.6118C20 6.26881 19.9324 5.92919 19.8012 5.61231C19.6699 5.29543 19.4775 5.00751 19.235 4.76498C18.9925 4.52245 18.7046 4.33007 18.3877 4.19881C18.0708 4.06756 17.7312 4 17.3882 4ZM16.7247 5.94834C16.9007 5.77238 17.1394 5.67352 17.3882 5.67352C17.5114 5.67352 17.6334 5.69779 17.7473 5.74495C17.8611 5.7921 17.9645 5.86121 18.0517 5.94834C18.1388 6.03547 18.2079 6.1389 18.2551 6.25274C18.3022 6.36657 18.3265 6.48858 18.3265 6.6118C18.3265 6.73502 18.3022 6.85703 18.2551 6.97086C18.2079 7.0847 18.1388 7.18813 18.0517 7.27526L7.75603 17.5709L5.9868 18.0132L6.42911 16.244L16.7247 5.94834Z" fill="#231F20"/>
<path d="M12.3676 18.3263C11.9055 18.3263 11.5309 18.7009 11.5309 19.163C11.5309 19.6252 11.9055 19.9998 12.3676 19.9998H19.8985C20.3606 19.9998 20.7352 19.6252 20.7352 19.163C20.7352 18.7009 20.3606 18.3263 19.8985 18.3263H12.3676Z" fill="#231F20"/>
</svg>
