<svg width="24" height="24" viewBox="0 0 24 24" fill="none" xmlns="http://www.w3.org/2000/svg">
<path d="M16.29 8.71019C16.383 8.80392 16.4936 8.87831 16.6154 8.92908C16.7373 8.97985 16.868 9.00599 17 9.00599C17.132 9.00599 17.2627 8.97985 17.3846 8.92908C17.5064 8.87831 17.617 8.80392 17.71 8.71019L21.71 4.71019C21.8983 4.52189 22.0041 4.26649 22.0041 4.00019C22.0041 3.73389 21.8983 3.47849 21.71 3.29019C21.5217 3.10189 21.2663 2.9961 21 2.9961C20.7337 2.9961 20.4783 3.10188 20.29 3.29019L17 6.59019L15.71 5.29019C15.6168 5.19695 15.5061 5.12299 15.3843 5.07253C15.2624 5.02207 15.1319 4.9961 15 4.9961C14.7337 4.9961 14.4783 5.10188 14.29 5.29019C14.1968 5.38343 14.1228 5.49412 14.0723 5.61594C14.0219 5.73776 13.9959 5.86833 13.9959 6.00019C13.9959 6.26649 14.1017 6.52188 14.29 6.71019L16.29 8.71019ZM21 8.00019C20.7348 8.00019 20.4804 8.10555 20.2929 8.29308C20.1054 8.48062 20 8.73497 20 9.00019L20 18.0002C20 18.2654 19.8946 18.5198 19.7071 18.7073C19.5196 18.8948 19.2652 19.0002 19 19.0002L5 19.0002C4.73478 19.0002 4.48043 18.8948 4.29289 18.7073C4.10536 18.5198 4 18.2654 4 18.0002L4 8.41019L9.88 14.3002C10.4412 14.8568 11.1995 15.1695 11.99 15.1702C12.8004 15.166 13.5764 14.8427 14.15 14.2702L15.87 12.5502C16.0583 12.3619 16.1641 12.1065 16.1641 11.8402C16.1641 11.5739 16.0583 11.3185 15.87 11.1302C15.6817 10.9419 15.4263 10.8361 15.16 10.8361C14.8937 10.8361 14.6383 10.9419 14.45 11.1302L12.7 12.8802C12.5131 13.0634 12.2618 13.166 12 13.166C11.7382 13.166 11.4869 13.0634 11.3 12.8802L5.41 7.00019L11 7.00019C11.2652 7.00019 11.5196 6.89483 11.7071 6.70729C11.8946 6.51976 12 6.2654 12 6.00019C12 5.73497 11.8946 5.48062 11.7071 5.29308C11.5196 5.10554 11.2652 5.00019 11 5.00019L5 5.00019C4.20435 5.00019 3.44129 5.31626 2.87868 5.87887C2.31607 6.44147 2 7.20454 2 8.00019L2 18.0002C2 18.7958 2.31607 19.5589 2.87868 20.1215C3.44129 20.6841 4.20435 21.0002 5 21.0002L19 21.0002C19.7956 21.0002 20.5587 20.6841 21.1213 20.1215C21.6839 19.5589 22 18.7958 22 18.0002L22 9.00019C22 8.73497 21.8946 8.48062 21.7071 8.29308C21.5196 8.10555 21.2652 8.00019 21 8.00019Z" fill="#009DB9"/>
</svg>
