<svg width="19" height="18" viewBox="0 0 19 18" fill="none" xmlns="http://www.w3.org/2000/svg">
<g id="ExternalLink">
<path id="Vector" fill-rule="evenodd" clip-rule="evenodd" d="M11.75 3C11.3358 3 11 2.66422 11 2.25C11 1.83579 11.3358 1.5 11.75 1.5L16.25 1.5C16.6642 1.5 17 1.83579 17 2.25L17 6.75C17 7.16422 16.6642 7.5 16.25 7.5C15.8358 7.5 15.5 7.16422 15.5 6.75L15.5 4.06066L8.53033 11.0303C8.23744 11.3232 7.76256 11.3232 7.46967 11.0303C7.17678 10.7374 7.17678 10.2626 7.46967 9.96967L14.4393 3L11.75 3ZM4.25 5.25C4.05109 5.25 3.86032 5.32902 3.71967 5.46967C3.57902 5.61032 3.5 5.80109 3.5 6L3.5 14.25C3.5 14.4489 3.57902 14.6397 3.71967 14.7803C3.86032 14.921 4.05109 15 4.25 15L12.5 15C12.6989 15 12.8897 14.921 13.0303 14.7803C13.171 14.6397 13.25 14.4489 13.25 14.25L13.25 9.75C13.25 9.33579 13.5858 9 14 9C14.4142 9 14.75 9.33579 14.75 9.75L14.75 14.25C14.75 14.8467 14.5129 15.419 14.091 15.841C13.669 16.2629 13.0967 16.5 12.5 16.5L4.25 16.5C3.65326 16.5 3.08096 16.2629 2.65901 15.841C2.23705 15.419 2 14.8467 2 14.25L2 6C2 5.40326 2.23705 4.83097 2.65901 4.40901C3.08097 3.98705 3.65326 3.75 4.25 3.75L8.75 3.75C9.16421 3.75 9.5 4.08579 9.5 4.5C9.5 4.91421 9.16421 5.25 8.75 5.25L4.25 5.25Z" fill="white"/>
</g>
</svg>
