<svg width="18" height="18" viewBox="0 0 18 18" fill="none" xmlns="http://www.w3.org/2000/svg">
<g clip-path="url(#clip0_18456_490764)">
<path d="M9 15.75C3.36326 15.75 0.206682 9.6 0.0563694 9.3C-0.0187872 9.075 -0.0187872 8.85 0.0563695 8.625C0.206683 8.4 3.36326 2.25 9 2.25C14.6367 2.25 17.7933 8.4 17.9436 8.7C18.0188 8.925 18.0188 9.15 17.9436 9.375C17.7933 9.6 14.6367 15.75 9 15.75ZM1.5595 9C2.23591 10.2 4.94155 14.25 9 14.25C13.0585 14.25 15.6889 10.2 16.4405 9C15.7641 7.8 13.0585 3.75 9 3.75C4.94155 3.75 2.31107 7.8 1.5595 9ZM9 12C7.34656 12 5.99374 10.65 5.99374 9C5.99374 7.35 7.34656 6 9 6C10.6534 6 12.0063 7.35 12.0063 9C12.0063 10.65 10.6534 12 9 12ZM9 7.5C8.17328 7.5 7.49687 8.175 7.49687 9C7.49687 9.825 8.17328 10.5 9 10.5C9.82673 10.5 10.5031 9.825 10.5031 9C10.5031 8.175 9.82673 7.5 9 7.5Z" fill="white"/>
</g>
<defs>
<clipPath id="clip0_18456_490764">
<rect width="18" height="18" fill="white"/>
</clipPath>
</defs>
</svg>
