<svg width="18" height="18" viewBox="0 0 18 18" fill="none" xmlns="http://www.w3.org/2000/svg">
<path fill-rule="evenodd" clip-rule="evenodd" d="M8.46873 3.49875C10.1426 1.83372 12.8564 1.83378 14.5303 3.49875C15.8185 4.7803 16.1131 6.67281 15.4183 8.23635L15.4191 8.23708C15.4323 8.2477 15.4465 8.25773 15.4596 8.26858C16.1183 8.81856 16.4999 9.67405 16.5 10.4206C16.5 10.6364 16.4014 10.8409 16.232 10.9758C15.3597 11.67 15.0022 12.0098 14.651 12.3506C14.28 12.7107 13.907 13.081 13.0289 13.809C11.2377 15.2937 9.69946 15.75 8.99963 15.75H3.64275C3.07456 15.75 2.52992 15.5248 2.1281 15.1252C1.72651 14.7256 1.50014 14.1836 1.5 13.6185V8.64434C1.50016 8.07926 1.72644 7.53653 2.1281 7.13692C2.52988 6.73756 3.07475 6.5129 3.64275 6.51286H5.49318C5.96724 6.04867 6.44897 5.60206 6.90548 5.24422C7.12103 5.07529 7.35183 4.91005 7.58807 4.76885C7.58435 4.7771 7.58068 4.78549 7.57702 4.79376C7.75687 4.3874 8.0034 4.00312 8.31704 3.6577L8.46873 3.49875ZM3.64275 7.93384C3.45349 7.93389 3.27151 8.00881 3.13762 8.14186C3.00391 8.27496 2.92866 8.45618 2.9285 8.64434V13.6185C2.92864 13.8067 3.00395 13.9879 3.13762 14.121C3.27152 14.2541 3.45345 14.329 3.64275 14.329H5.07125V7.93384H3.64275ZM7.22652 6.83661C6.99243 7.04629 6.74888 7.27622 6.50049 7.51927V14.3283H8.99963C9.25217 14.3283 10.4764 14.0739 12.1136 12.7169C12.9495 12.0239 13.2923 11.6836 13.6533 11.3332C13.9871 11.0093 14.331 10.6854 15.0251 10.121C14.95 9.85415 14.7843 9.56125 14.5406 9.35776C14.2525 9.11737 13.8435 8.98413 13.2483 9.28012C12.6182 9.59355 12.143 9.9863 11.8264 10.3012C11.6688 10.458 11.5523 10.594 11.4774 10.6872C11.4402 10.7335 11.4147 10.7671 11.3868 10.8073C10.5518 10.7996 9.85282 10.5116 9.32289 10.1847C9.07935 10.0421 8.84622 9.87427 8.62925 9.67931L8.46873 9.52696C7.71098 8.77285 7.29711 7.8065 7.22579 6.82049C7.22617 6.82585 7.22612 6.83125 7.22652 6.83661ZM13.52 4.5037C12.4041 3.39372 10.5956 3.39366 9.47973 4.5037L9.37811 4.60917C8.3651 5.72492 8.39911 7.44748 9.47973 8.52275L9.5865 8.62383C9.95251 8.95272 10.384 9.16941 10.8361 9.27646C10.8294 9.28307 10.8228 9.29042 10.8162 9.29696C10.8474 9.26591 10.8804 9.23466 10.9141 9.20248C11.1485 8.97846 11.4418 8.72883 11.7955 8.48686C12.0384 8.32074 12.3098 8.15749 12.6092 8.00855C12.8678 7.87996 13.1215 7.79374 13.3669 7.7434C13.3831 7.74007 13.3993 7.73617 13.4155 7.73315C13.5248 7.71279 13.6329 7.7006 13.7387 7.69433C13.8223 7.68934 13.905 7.68739 13.9861 7.69066C14.0231 7.69218 14.0601 7.69549 14.0966 7.69872C14.581 6.6494 14.389 5.36812 13.52 4.5037Z" fill="#231F20"/>
</svg>
