<svg width="18" height="18" viewBox="0 0 18 18" fill="none" xmlns="http://www.w3.org/2000/svg">
<path d="M13.5 17.25L4.5 17.25C3.225 17.25 2.25 16.275 2.25 15L2.25 3C2.25 1.725 3.225 0.75 4.5 0.75L9.75 0.750001C9.975 0.750001 10.125 0.825001 10.275 0.975001L15.525 6.225C15.675 6.375 15.75 6.525 15.75 6.75L15.75 15C15.75 16.275 14.775 17.25 13.5 17.25ZM4.5 2.25C4.05 2.25 3.75 2.55 3.75 3L3.75 15C3.75 15.45 4.05 15.75 4.5 15.75L13.5 15.75C13.95 15.75 14.25 15.45 14.25 15L14.25 7.5L9.75 7.5C9.3 7.5 9 7.2 9 6.75L9 2.25L4.5 2.25ZM10.5 6L13.2 6L10.5 3.3L10.5 6Z" fill="white"/>
</svg>
