<svg width="24" height="24" viewBox="0 0 24 24" fill="none" xmlns="http://www.w3.org/2000/svg">
<path d="M2 17C2 16.4 2.4 16 3 16L7 16L7 15C7 14.4 7.4 14 8 14C8.6 14 9 14.4 9 15L9 19C9 19.6 8.6 20 8 20C7.4 20 7 19.6 7 19L7 18L3 18C2.4 18 2 17.6 2 17ZM2 7C2 6.4 2.4 6 3 6L12 6C12.6 6 13 6.4 13 7C13 7.6 12.6 8 12 8L3 8C2.4 8 2 7.6 2 7ZM11 17C11 16.4 11.4 16 12 16L21 16C21.6 16 22 16.4 22 17C22 17.6 21.6 18 21 18L12 18C11.4 18 11 17.6 11 17ZM15 9L15 5C15 4.4 15.4 4 16 4C16.6 4 17 4.4 17 5L17 6L21 6C21.6 6 22 6.4 22 7C22 7.6 21.6 8 21 8L17 8L17 9C17 9.6 16.6 10 16 10C15.4 10 15 9.6 15 9Z" fill="#231F20"/>
</svg>
