<svg width="24" height="24" viewBox="0 0 24 24" fill="none" xmlns="http://www.w3.org/2000/svg">
<path d="M12 2C17.523 2 22 6.477 22 12C22 17.523 17.523 22 12 22C6.81402 22 2.55028 18.0527 2.04923 12.9986C1.99475 12.449 2.44771 12 3 12C3.55228 12 3.99344 12.45 4.06166 12.998C4.55293 16.9451 7.91997 20 12 20C16.418 20 20 16.418 20 12C20 7.582 16.418 4 12 4C9.25 4 6.824 5.387 5.385 7.5L7 7.5C7.55228 7.5 8 7.94772 8 8.5C8 9.05229 7.55228 9.5 7 9.5L2 9.5L2 4.5C2 3.94772 2.44771 3.5 3 3.5C3.55228 3.5 4 3.94772 4 4.5L4 6C5.824 3.57 8.729 2 12 2ZM12 7C12.5523 7 13 7.44772 13 8L13 11.585L15.5359 14.1209C15.9264 14.5114 15.9261 15.1449 15.5356 15.5354C15.145 15.926 14.5114 15.9262 14.1209 15.5355L11 12.413L11 8C11 7.44772 11.4477 7 12 7Z" fill="#231F20"/>
</svg>
