<svg width="22" height="20" viewBox="0 0 22 20" fill="none" xmlns="http://www.w3.org/2000/svg">
<path d="M8.74298 5H6.78121V8.61118H3.97827V9.44471H6.78121V11.1112H3.97827V11.9447H6.78121V15H8.74298V11.1112H13.2277V15H15.1894V11.9447H17.9924V11.1112H15.1894V9.44471H17.9924V8.61118H15.1894V5H13.2277V9.44471H8.74298V5Z" fill="#231F20"/>
<path fill-rule="evenodd" clip-rule="evenodd" d="M0.895264 10.0147C0.895264 15.5076 5.40526 20 10.9853 20C16.5653 20 21.0753 15.4794 21.0753 9.98529C21.0753 4.49235 16.5659 0 10.9853 0C5.40526 0 0.895264 4.52059 0.895264 10.0147ZM2.63056 9.98529C2.63056 5.43588 6.35997 1.71647 10.9853 1.71647C15.5823 1.71647 19.3406 5.43647 19.3406 9.98529C19.3406 14.5353 15.6111 18.2547 10.9853 18.2547C6.38821 18.2547 2.62997 14.5347 2.62997 9.98529H2.63056Z" fill="#231F20"/>
</svg>
