<svg width="24" height="24" viewBox="0 0 24 24" fill="none" xmlns="http://www.w3.org/2000/svg">
<path fill-rule="evenodd" clip-rule="evenodd" d="M22.5217 9.51684C22.5217 8.79268 22.1044 8.13509 21.4539 7.83405L14.4094 4.46264C12.4137 3.50538 10.0977 3.51285 8.10814 4.48298L2.0345 7.44456C0.649896 8.11971 0.656683 10.1186 2.04585 10.7841L3.019 11.2502V15.1021C3.019 16.7507 4.18223 18.0549 5.65545 18.8943C7.15724 19.7499 9.17044 20.25 11.3444 20.25C13.5183 20.25 15.5315 19.7499 17.0333 18.8943C18.5065 18.0549 19.6697 16.7507 19.6697 15.1021V11.2292L20.6039 10.789C20.6347 10.7745 20.6648 10.7593 20.6943 10.7435V15.4361C20.3769 15.6959 20.1743 16.0912 20.1743 16.5341V18.1279C20.1743 18.9103 20.8069 19.5446 21.5872 19.5446C22.3674 19.5446 23 18.9103 23 18.1279V16.5341C23 16.1109 22.815 15.7311 22.5217 15.4715V9.51684ZM8.90105 6.14998C10.3932 5.42239 12.1302 5.41678 13.627 6.13473L19.788 9.09741L13.5695 12.0631C12.0972 12.7485 10.4003 12.7394 8.93476 12.0373L2.82741 9.11156L8.90105 6.14998ZM14.364 13.7297L17.8423 12.0904V15.1021C17.8423 15.7857 17.3464 16.5928 16.1371 17.2818C14.9564 17.9545 13.2638 18.3997 11.3444 18.3997C9.42495 18.3997 7.73232 17.9545 6.55161 17.2818C5.34234 16.5928 4.84641 15.7857 4.84641 15.1021V12.1257L8.1532 13.7098C10.1176 14.6509 12.3937 14.6582 14.364 13.7297Z" fill="#231F20"/>
</svg>
