<svg width="24" height="24" viewBox="0 0 24 24" fill="none" xmlns="http://www.w3.org/2000/svg">
<path d="M21 19H8C7.4 19 7 18.6 7 18C7 17.4 7.4 17 8 17H21C21.6 17 22 17.4 22 18C22 18.6 21.6 19 21 19ZM3 19C2.4 19 2 18.6 2 18C2 17.4 2.4 17 3 17C3.6 17 4 17.4 4 18C4 18.6 3.6 19 3 19ZM21 13H8C7.4 13 7 12.6 7 12C7 11.4 7.4 11 8 11H21C21.6 11 22 11.4 22 12C22 12.6 21.6 13 21 13ZM3 13C2.4 13 2 12.6 2 12C2 11.4 2.4 11 3 11C3.6 11 4 11.4 4 12C4 12.6 3.6 13 3 13ZM21 7H8C7.4 7 7 6.6 7 6C7 5.4 7.4 5 8 5H21C21.6 5 22 5.4 22 6C22 6.6 21.6 7 21 7ZM3 7C2.5 7 2 6.6 2 6C2 5.4 2.4 5 3 5C3.6 5 4 5.4 4 6C4 6.6 3.6 7 3 7Z" fill="#231F20"/>
</svg>
