<svg width="49" height="48" viewBox="0 0 49 48" fill="none" xmlns="http://www.w3.org/2000/svg">
<g id="Location">
<g id="Union">
<path fill-rule="evenodd" clip-rule="evenodd" d="M16.5 20C16.5 15.5817 20.0817 12 24.5 12C28.9183 12 32.5 15.5817 32.5 20C32.5 24.4183 28.9183 28 24.5 28C20.0817 28 16.5 24.4183 16.5 20ZM24.5 16C22.2909 16 20.5 17.7909 20.5 20C20.5 22.2091 22.2909 24 24.5 24C26.7091 24 28.5 22.2091 28.5 20C28.5 17.7909 26.7091 16 24.5 16Z" fill="#525152"/>
<path fill-rule="evenodd" clip-rule="evenodd" d="M23.3895 47.6634L23.3838 47.6596L23.3705 47.6506L23.3246 47.6196C23.2857 47.5932 23.2302 47.5552 23.1591 47.506C23.0171 47.4076 22.8129 47.2643 22.5556 47.0784C22.0411 46.7068 21.3127 46.1644 20.4416 45.4708C18.7027 44.0861 16.3788 42.0857 14.0481 39.6255C9.46853 34.7915 4.5 27.8039 4.5 20C4.5 14.6957 6.60714 9.60859 10.3579 5.85786C14.1086 2.10714 19.1957 0 24.5 0C29.8043 0 34.8914 2.10714 38.6421 5.85786C42.3929 9.60859 44.5 14.6957 44.5 20C44.5 27.8039 39.5315 34.7915 34.9519 39.6255C32.6212 42.0857 30.2973 44.0861 28.5584 45.4708C27.6873 46.1644 26.9589 46.7068 26.4444 47.0784C26.1871 47.2643 25.9829 47.4076 25.8409 47.506C25.7698 47.5552 25.7143 47.5932 25.6754 47.6196L25.6295 47.6506L25.6162 47.6596L25.612 47.6624C25.612 47.6624 25.6119 47.6624 25.609 47.6582L25.6094 47.6641C24.9376 48.112 24.0613 48.1112 23.3895 47.6634ZM24.5 4C20.2565 4 16.1869 5.68571 13.1863 8.68629C10.1857 11.6869 8.5 15.7565 8.5 20C8.5 26.1961 12.5315 32.2085 16.9519 36.8745C19.1212 39.1643 21.2973 41.0389 22.9334 42.3417C23.5422 42.8265 24.074 43.2304 24.5 43.5452C24.926 43.2304 25.4578 42.8265 26.0666 42.3417C27.7027 41.0389 29.8788 39.1643 32.0481 36.8745C36.4685 32.2085 40.5 26.1961 40.5 20C40.5 15.7565 38.8143 11.6869 35.8137 8.68629C32.8131 5.68571 28.7435 4 24.5 4Z" fill="#525152"/>
</g>
</g>
</svg>
