<svg width="49" height="48" viewBox="0 0 49 48" fill="none" xmlns="http://www.w3.org/2000/svg">
<path fill-rule="evenodd" clip-rule="evenodd" d="M25.609 47.6582C25.6119 47.6624 25.612 47.6624 25.612 47.6624L25.6162 47.6596L25.6295 47.6506L25.6754 47.6196C25.7143 47.5932 25.7698 47.5552 25.8409 47.506C25.9829 47.4076 26.1871 47.2643 26.4444 47.0784C26.9589 46.7068 27.6873 46.1644 28.5584 45.4708C30.2973 44.0861 32.6212 42.0857 34.9519 39.6255C39.5315 34.7915 44.5 27.8039 44.5 20C44.5 14.6957 42.3929 9.60859 38.6421 5.85786C34.8914 2.10714 29.8043 0 24.5 0C19.1957 0 14.1086 2.10714 10.3579 5.85786C6.60714 9.60859 4.5 14.6957 4.5 20C4.5 27.8039 9.46853 34.7915 14.0481 39.6255C16.3788 42.0857 18.7027 44.0861 20.4416 45.4708C21.3127 46.1644 22.0411 46.7068 22.5556 47.0784C22.8129 47.2643 23.0171 47.4076 23.1591 47.506C23.2302 47.5552 23.2857 47.5932 23.3246 47.6196L23.3705 47.6506L23.3838 47.6596L23.3895 47.6634C24.0613 48.1112 24.9376 48.112 25.6094 47.6641L25.609 47.6582ZM24.5 28C28.9183 28 32.5 24.4183 32.5 20C32.5 15.5817 28.9183 12 24.5 12C20.0817 12 16.5 15.5817 16.5 20C16.5 24.4183 20.0817 28 24.5 28Z" fill="#231F20"/>
</svg>
