<svg width="24" height="24" viewBox="0 0 24 24" fill="none" xmlns="http://www.w3.org/2000/svg">
<path d="M12 12.9995C11.6956 12.9959 11.3973 13.0858 11.1454 13.2568C11.0624 13.3132 10.9858 13.3776 10.9164 13.4486C10.7753 13.5933 10.6642 13.7658 10.5912 13.9564C10.4823 14.2408 10.4631 14.5516 10.5361 14.8472C10.6093 15.1428 10.7711 15.4089 11 15.6096L11 16.9997C11 17.265 11.1053 17.5194 11.2929 17.7069C11.4804 17.8944 11.7348 17.9997 12 17.9997C12.2652 17.9997 12.5196 17.8944 12.7071 17.7069C12.8946 17.5193 13 17.265 13 16.9997L13 15.6097C13.2289 15.4089 13.3908 15.1428 13.4639 14.8472C13.5369 14.5516 13.5177 14.2407 13.4088 13.9564C13.2999 13.672 13.1064 13.4279 12.8546 13.2568C12.6027 13.0858 12.3045 12.9959 12 12.9995Z" fill="black"/>
<path fill-rule="evenodd" clip-rule="evenodd" d="M12 2C11.3454 2 10.6939 2.12867 10.0834 2.38198C9.17078 2.76066 8.39081 3.40144 7.84198 4.22326C7.29321 5.04508 7.00018 6.01095 7 6.99917L7 8.99927C6.20435 8.99927 5.44128 9.31545 4.87866 9.87798C4.31604 10.4406 4 11.2037 4 11.9994L4 18.9998C4 19.7955 4.31604 20.5586 4.87866 21.1213C5.44128 21.6839 6.20435 22 7 22L17 22C17.7957 22 18.5587 21.6839 19.1213 21.1213C19.6839 20.5586 20 19.7955 20 18.9998L20 11.9995C20 11.2038 19.6839 10.4407 19.1213 9.87804C18.5587 9.3154 17.7956 8.99931 17 8.99931L15 8.99931L9 8.99927L9 6.99917C8.99854 6.40538 9.17334 5.82442 9.50226 5.33001C9.83118 4.8356 10.2994 4.44996 10.8477 4.2218C11.2146 4.0692 11.6064 3.99168 12 3.99168C12.3936 3.99168 12.7854 4.06916 13.1523 4.22182C13.7006 4.44992 14.1688 4.8356 14.4977 5.33002C14.8267 5.82445 15.0015 6.40536 15 6.99921L15 8.99931L17 8.99931L17 6.99921C16.9998 6.011 16.7068 5.04502 16.158 4.22323C15.6092 3.40145 14.8292 2.7607 13.9165 2.38192C13.3061 2.12857 12.6546 2 12 2ZM6.29291 19.707C6.48041 19.8945 6.7348 19.9999 7 19.9999L17 19.9999C17.2652 19.9999 17.5196 19.8945 17.7071 19.707C17.8946 19.5194 18 19.2651 18 18.9998L18 11.9995C18 11.7342 17.8946 11.4799 17.7071 11.2923C17.5196 11.1048 17.2652 10.9994 17 10.9994L7 10.9994C6.7348 10.9994 6.48041 11.1047 6.29291 11.2924C6.10535 11.4799 6 11.7343 6 11.9994L6 18.9998C6 19.2651 6.10535 19.5195 6.29291 19.707Z" fill="black"/>
<path fill-rule="evenodd" clip-rule="evenodd" d="M12 12.9995C11.6956 12.9959 11.3973 13.0858 11.1454 13.2568C11.0624 13.3132 10.9858 13.3776 10.9164 13.4486C10.7753 13.5933 10.6642 13.7658 10.5912 13.9564C10.4823 14.2408 10.4631 14.5516 10.5361 14.8472C10.6093 15.1428 10.7711 15.4089 11 15.6096L11 16.9997C11 17.265 11.1053 17.5194 11.2929 17.7069C11.4804 17.8944 11.7348 17.9997 12 17.9997C12.2652 17.9997 12.5196 17.8944 12.7071 17.7069C12.8946 17.5193 13 17.265 13 16.9997L13 15.6097C13.2289 15.4089 13.3908 15.1428 13.4639 14.8472C13.5369 14.5516 13.5177 14.2407 13.4088 13.9564C13.2999 13.672 13.1064 13.4279 12.8546 13.2568C12.6027 13.0858 12.3045 12.9959 12 12.9995Z" fill="black"/>
</svg>
