<svg width="24" height="24" viewBox="0 0 24 24" fill="none" xmlns="http://www.w3.org/2000/svg">
<path d="M20 21H4C2.3 21 1 19.7 1 18V12C1 11.8 1 11.7 1.1 11.5L4.5 4.6C5.1 3.6 6.1 3 7.2 3H16.7C17.8 3 18.9 3.6 19.4 4.7L22.8 11.6C23 11.7 23 11.8 23 12V18C23 19.7 21.7 21 20 21ZM3 13V18C3 18.6 3.4 19 4 19H20C20.6 19 21 18.6 21 18V13H3ZM3.6 11H20.4L17.7 5.6C17.5 5.2 17.1 5 16.8 5H7.2C6.9 5 6.5 5.2 6.3 5.6L3.6 11ZM10 17C9.4 17 9 16.6 9 16C9 15.4 9.4 15 10 15C10.6 15 11 15.4 11 16C11 16.6 10.6 17 10 17ZM6 17C5.4 17 5 16.6 5 16C5 15.4 5.4 15 6 15C6.6 15 7 15.4 7 16C7 16.6 6.6 17 6 17Z" fill="#231F20"/>
</svg>
