<svg width="24" height="24" viewBox="0 0 24 24" fill="none" xmlns="http://www.w3.org/2000/svg">
<path fill-rule="evenodd" clip-rule="evenodd" d="M20.1 12.0018H17.4V3.9034C17.4006 3.74484 17.3593 3.58893 17.2803 3.45146C17.2013 3.31399 17.0873 3.19983 16.95 3.12055C16.8132 3.04158 16.658 3 16.5 3H3.90001C3.74202 3 3.58682 3.04158 3.45001 3.12055C3.31266 3.19983 3.19871 3.31399 3.11969 3.45146C3.04066 3.58893 2.99938 3.74484 3.00001 3.9034V18.3005C3.00001 19.0165 3.28447 19.7031 3.79082 20.2093C4.29717 20.7156 4.98392 21 5.70001 21H18.3C19.0161 21 19.7028 20.7156 20.2092 20.2093C20.7155 19.7031 21 19.0165 21 18.3005V12.9016C21 12.663 20.9052 12.4341 20.7364 12.2653C20.5676 12.0966 20.3387 12.0018 20.1 12.0018ZM5.06361 18.9368C5.23239 19.1056 5.46131 19.2004 5.70001 19.2004H15.762C15.6572 18.9118 15.6024 18.6075 15.6 18.3005V4.80316H4.8L4.80001 18.3005C4.80001 18.5392 4.89483 18.7681 5.06361 18.9368ZM18.9364 18.9368C19.1052 18.7681 19.2 18.5392 19.2 18.3005V13.8014H17.4V18.3005C17.4 18.5392 17.4948 18.7681 17.6636 18.9368C17.8324 19.1056 18.0613 19.2004 18.3 19.2004C18.5387 19.2004 18.7676 19.1056 18.9364 18.9368Z" fill="#231F20"/>
<path fill-rule="evenodd" clip-rule="evenodd" d="M7.50001 14.7013H11.1C11.3387 14.7013 11.5676 14.7961 11.7364 14.9648C11.9052 15.1336 12 15.3624 12 15.6011C12 15.8397 11.9052 16.0686 11.7364 16.2373C11.5676 16.4061 11.3387 16.5009 11.1 16.5009H7.50001C7.26131 16.5009 7.03239 16.4061 6.86361 16.2373C6.69483 16.0686 6.60001 15.8397 6.60001 15.6011C6.60001 15.3624 6.69483 15.1336 6.86361 14.9648C7.03239 14.7961 7.26131 14.7013 7.50001 14.7013ZM12.9 9.30233H7.50001C7.26131 9.30233 7.03239 9.20752 6.86361 9.03877C6.69483 8.87002 6.60001 8.64115 6.60001 8.4025C6.60001 8.16386 6.69483 7.93498 6.86361 7.76623C7.03239 7.59748 7.26131 7.50268 7.50001 7.50268H12.9C13.1387 7.50268 13.3676 7.59748 13.5364 7.76623C13.7052 7.93498 13.8 8.16386 13.8 8.4025C13.8 8.64115 13.7052 8.87002 13.5364 9.03877C13.3676 9.20752 13.1387 9.30233 12.9 9.30233ZM7.50001 11.102H12.9C13.1387 11.102 13.3676 11.1968 13.5364 11.3655C13.7052 11.5343 13.8 11.7631 13.8 12.0018C13.8 12.2404 13.7052 12.4693 13.5364 12.6381C13.3676 12.8068 13.1387 12.9016 12.9 12.9016H7.50001C7.26131 12.9016 7.03239 12.8068 6.86361 12.6381C6.69483 12.4693 6.60001 12.2404 6.60001 12.0018C6.60001 11.7631 6.69483 11.5343 6.86361 11.3655C7.03239 11.1968 7.26131 11.102 7.50001 11.102Z" fill="#231F20"/>
</svg>
