<svg width="19" height="18" viewBox="0 0 19 18" fill="none" xmlns="http://www.w3.org/2000/svg">
<g id="Shield">
<path id="Vector" d="M9.75 17.2425C9.6 17.2425 9.525 17.2425 9.45 17.1675C9.15 17.0175 3 13.8675 3 8.9925V3.7425C3 3.4425 3.225 3.1425 3.45 3.0675L9.45 0.817496C9.6 0.742496 9.825 0.742496 9.975 0.817496L15.975 3.0675C16.275 3.1425 16.5 3.4425 16.5 3.7425V8.9925C16.5 13.8675 10.35 17.0175 10.05 17.1675C9.975 17.2425 9.9 17.2425 9.75 17.2425ZM4.5 4.2675V8.9925C4.5 12.3675 8.55 14.9175 9.75 15.6675C10.95 14.9925 15 12.4425 15 8.9925V4.2675L9.75 2.3175L4.5 4.2675Z" fill="#868385"/>
<path id="P" d="M7.25 12.4735C6.97386 12.4735 6.75 12.2497 6.75 11.9735V5C6.75 4.72386 6.97386 4.5 7.25 4.5H10.0305C10.7368 4.5 11.3405 4.61391 11.8417 4.84172C12.3505 5.06954 12.7416 5.39607 13.0149 5.82133C13.2883 6.24659 13.425 6.75158 13.425 7.33631C13.425 7.92103 13.2883 8.42602 13.0149 8.85128C12.7416 9.27654 12.3505 9.60307 11.8417 9.83089C11.3405 10.0587 10.7368 10.1726 10.0305 10.1726H8.03245C7.85813 10.1726 7.76858 9.9639 7.8887 9.83757C8.01213 9.70775 8.2308 9.79512 8.2308 9.97425V11.9735C8.2308 12.2497 8.00694 12.4735 7.7308 12.4735H7.25ZM8.2308 9.12105C8.2308 9.30455 8.00546 9.39248 7.88118 9.25748C7.76233 9.12839 7.8539 8.91962 8.02937 8.91962H9.9622C10.6153 8.91962 11.1051 8.78294 11.4316 8.50956C11.7657 8.22858 11.9328 7.8375 11.9328 7.33631C11.9328 6.82752 11.7657 6.43643 11.4316 6.16305C11.1051 5.88968 10.6153 5.75299 9.9622 5.75299H8.02788C7.85187 5.75299 7.75933 5.54423 7.87752 5.4138C8.00218 5.27625 8.2308 5.36444 8.2308 5.55007V9.12105Z" fill="#868385"/>
</g>
</svg>
