<svg width="16" height="20" viewBox="0 0 16 20" fill="none" xmlns="http://www.w3.org/2000/svg">
<g id=".Logo/Peach">
<path id="Vector" d="M5.67982 0.0107299C6.52724 -0.0806313 7.27968 0.418693 7.51457 1.23165C7.55591 1.37498 7.57678 1.52844 7.58148 1.67817C7.59165 1.9985 7.58512 2.31937 7.58512 2.64001C7.58512 2.6695 7.56009 2.69289 7.53065 2.69396C7.29736 2.70257 7.06938 2.69244 6.84634 2.61852C6.14746 2.38734 5.68331 1.74423 5.67595 0.991701C5.67276 0.686452 5.67519 0.380975 5.67542 0.0758028M9.73851 1.43929C9.73836 1.43929 9.73828 1.43944 9.73828 1.43959C9.81316 2.10594 9.33923 2.6743 8.69967 2.69343C8.33794 2.70425 8.0058 2.39359 8.15799 2.06403C8.23044 1.90714 8.34189 1.76823 8.49726 1.64898C8.67221 1.51465 8.87166 1.44378 9.09091 1.4402C9.30546 1.43662 9.52032 1.43929 9.73851 1.43929Z" fill="#231F20"/>
<path id="Vector_2" fill-rule="evenodd" clip-rule="evenodd" d="M15.1048 8.40842C15.1048 12.1974 11.7942 15.7895 7.71028 15.7895C6.22899 15.7895 4.84952 15.3169 3.69278 14.5338V18.3041C3.69278 19.2407 2.93678 20 2.00423 20C1.07168 20 0.31575 19.2407 0.31575 18.3041V8.53803H0.316963C0.316116 8.49481 0.315686 8.45158 0.315674 8.40834C0.315674 5.13016 2.79392 2.92019 6.10692 3.17843C7.17421 3.26125 8.24627 3.26125 9.31356 3.17843C12.6266 2.92019 15.1048 5.13024 15.1048 8.40842ZM3.69278 9.02593V8.99667C3.70045 7.16053 5.16155 5.95462 7.06458 6.24082C7.45404 6.29934 7.84999 6.29934 8.23945 6.24082C10.1476 5.95386 11.6113 7.16693 11.6113 9.01137C11.6113 11.0409 9.83871 12.965 7.65202 12.965C5.47063 12.965 3.70128 11.0502 3.69278 9.02593Z" fill="#231F20"/>
</g>
</svg>
