<svg width="24" height="24" viewBox="0 0 24 24" fill="none" xmlns="http://www.w3.org/2000/svg">
<path d="M15.619 10.119L12.561 13.177C12.3779 13.1283 12.1895 13.1025 12 13.1C11.4165 13.1 10.8569 13.3318 10.4444 13.7444C10.0318 14.1569 9.80001 14.7165 9.80001 15.3C9.80246 15.4895 9.82832 15.6779 9.87701 15.861L9.01901 16.719C8.91591 16.8213 8.83407 16.9429 8.77823 17.077C8.72238 17.211 8.69363 17.3548 8.69363 17.5C8.69363 17.6452 8.72238 17.789 8.77823 17.923C8.83407 18.0571 8.91591 18.1787 9.01901 18.281C9.12127 18.3841 9.24293 18.4659 9.37697 18.5218C9.51102 18.5776 9.65479 18.6064 9.80001 18.6064C9.94522 18.6064 10.089 18.5776 10.223 18.5218C10.3571 18.4659 10.4787 18.3841 10.581 18.281L11.439 17.423C11.6221 17.4717 11.8105 17.4975 12 17.5C12.5835 17.5 13.1431 17.2682 13.5556 16.8556C13.9682 16.4431 14.2 15.8835 14.2 15.3C14.1975 15.1105 14.1717 14.9221 14.123 14.739L17.181 11.681C17.3881 11.4739 17.5045 11.1929 17.5045 10.9C17.5045 10.6071 17.3881 10.3261 17.181 10.119C16.9739 9.91187 16.6929 9.79551 16.4 9.79551C16.1071 9.79551 15.8261 9.91187 15.619 10.119ZM12 3.20001C10.5555 3.20001 9.12507 3.48454 7.79049 4.03734C6.45592 4.59014 5.24329 5.40039 4.22185 6.42183C2.15896 8.48473 1.00003 11.2826 1.00003 14.2C0.994617 16.3786 1.64213 18.5089 2.85903 20.316C3.0224 20.5581 3.27527 20.7255 3.56202 20.7812C3.84876 20.8369 4.14588 20.7764 4.38802 20.613C4.63017 20.4496 4.79749 20.1967 4.85319 19.91C4.90889 19.6233 4.8484 19.3261 4.68502 19.084C3.79899 17.7591 3.28943 16.2184 3.21076 14.6265C3.13208 13.0346 3.48723 11.4512 4.2383 10.0453C4.98936 8.63952 6.10814 7.46408 7.47516 6.64453C8.84219 5.82499 10.4061 5.3921 12 5.3921C13.5939 5.3921 15.1578 5.82499 16.5248 6.64453C17.8919 7.46408 19.0106 8.63952 19.7617 10.0453C20.5128 11.4512 20.8679 13.0346 20.7892 14.6265C20.7106 16.2184 20.201 17.7591 19.315 19.084C19.2339 19.2038 19.1773 19.3385 19.1483 19.4802C19.1194 19.622 19.1187 19.7681 19.1463 19.9101C19.1738 20.0521 19.2292 20.1873 19.3091 20.3079C19.389 20.4286 19.4919 20.5322 19.612 20.613C19.7941 20.7354 20.0086 20.8005 20.228 20.8C20.4082 20.8003 20.5856 20.7563 20.7448 20.6719C20.904 20.5875 21.0401 20.4653 21.141 20.316C22.3579 18.5089 23.0054 16.3786 23 14.2C23 11.2826 21.841 8.48473 19.7782 6.42183C17.7153 4.35894 14.9174 3.20001 12 3.20001Z" fill="#231F20"/>
</svg>
