<svg width="24" height="24" viewBox="0 0 24 24" fill="none" xmlns="http://www.w3.org/2000/svg">
<g id="Devices">
<g id="Vector">
<path fill-rule="evenodd" clip-rule="evenodd" d="M9.38416 0.31543H14.6157C15.1017 0.31542 15.5075 0.315412 15.8391 0.342501C16.1849 0.370758 16.5099 0.431872 16.8172 0.588459C17.2885 0.828622 17.6718 1.21184 17.9119 1.68318C18.0685 1.9905 18.1296 2.31543 18.1579 2.66128C18.185 2.99284 18.185 3.39866 18.1849 3.88468V20.1162C18.185 20.6022 18.185 21.008 18.1579 21.3396C18.1296 21.6854 18.0685 22.0104 17.9119 22.3177C17.6718 22.789 17.2885 23.1722 16.8172 23.4124C16.5099 23.569 16.1849 23.6301 15.8391 23.6584C15.5076 23.6854 15.1018 23.6854 14.6158 23.6854H9.3841C8.89812 23.6854 8.49233 23.6854 8.16079 23.6584C7.81494 23.6301 7.49002 23.569 7.1827 23.4124C6.71135 23.1722 6.32813 22.789 6.08797 22.3177C5.93138 22.0104 5.87027 21.6854 5.84201 21.3396C5.81492 21.008 5.81493 20.6022 5.81494 20.1162V3.88465C5.81493 3.39864 5.81492 2.99283 5.84201 2.66128C5.87027 2.31543 5.93138 1.9905 6.08797 1.68318C6.32813 1.21184 6.71135 0.828622 7.1827 0.588459C7.49002 0.431872 7.81494 0.370758 8.16079 0.342501C8.49234 0.315412 8.89815 0.31542 9.38416 0.31543ZM8.27235 1.70795C8.01122 1.72929 7.88666 1.76736 7.80466 1.80914C7.5911 1.91795 7.41747 2.09159 7.30865 2.30515C7.26687 2.38715 7.2288 2.51171 7.20746 2.77284C7.18547 3.04196 7.18494 3.39148 7.18494 3.91243V20.0884C7.18494 20.6094 7.18547 20.9589 7.20746 21.228C7.2288 21.4892 7.26687 21.6137 7.30865 21.6957C7.41747 21.9093 7.5911 22.0829 7.80466 22.1917C7.88666 22.2335 8.01122 22.2716 8.27235 22.2929C8.54148 22.3149 8.89099 22.3154 9.41194 22.3154H14.5879C15.1089 22.3154 15.4584 22.3149 15.7275 22.2929C15.9887 22.2716 16.1132 22.2335 16.1952 22.1917C16.4088 22.0829 16.5824 21.9093 16.6912 21.6957C16.733 21.6137 16.7711 21.4892 16.7924 21.228C16.8144 20.9589 16.8149 20.6094 16.8149 20.0884V3.91243C16.8149 3.39148 16.8144 3.04196 16.7924 2.77284C16.7711 2.51171 16.733 2.38715 16.6912 2.30515C16.5824 2.09159 16.4088 1.91795 16.1952 1.80914C16.1132 1.76736 15.9887 1.72929 15.7275 1.70795C15.4584 1.68596 15.1089 1.68543 14.5879 1.68543H9.41194C8.89099 1.68543 8.54148 1.68596 8.27235 1.70795Z" fill="white"/>
<path fill-rule="evenodd" clip-rule="evenodd" d="M9.50001 21.4004C9.50001 21.174 9.68357 20.9904 9.91001 20.9904H14.09C14.3164 20.9904 14.5 21.174 14.5 21.4004C14.5 21.6269 14.3164 21.8104 14.09 21.8104H9.91001C9.68357 21.8104 9.50001 21.6269 9.50001 21.4004Z" fill="white"/>
</g>
</g>
</svg>
