<svg width="32" height="32" viewBox="0 0 32 32" fill="none" xmlns="http://www.w3.org/2000/svg">
<g id="Plus">
<path id="Vector" d="M16.0002 26.6666C15.2002 26.6666 14.6668 26.1333 14.6668 25.3333V17.3333H6.66683C5.86683 17.3333 5.3335 16.7999 5.3335 15.9999C5.3335 15.1999 5.86683 14.6666 6.66683 14.6666H14.6668V6.66659C14.6668 5.86659 15.2002 5.33325 16.0002 5.33325C16.8002 5.33325 17.3335 5.86659 17.3335 6.66659V14.6666H25.3335C26.1335 14.6666 26.6668 15.1999 26.6668 15.9999C26.6668 16.7999 26.1335 17.3333 25.3335 17.3333H17.3335V25.3333C17.3335 26.1333 16.8002 26.6666 16.0002 26.6666Z" fill="#231F20"/>
</g>
</svg>
