<svg width="96" height="96" viewBox="0 0 96 96" fill="none" xmlns="http://www.w3.org/2000/svg">
<path fill-rule="evenodd" clip-rule="evenodd" d="M48.0697 0.520187C51.5091 0.548875 55.8096 0.587516 59.6334 0.831388C59.9661 0.852604 60.3017 0.869617 60.641 0.886817C63.3741 1.02538 66.346 1.17604 69.946 3.6337C72.2522 5.20812 75.4795 8.1191 75.4795 13.1399V82.8601C75.4795 87.8809 72.2522 90.7919 69.946 92.3663C66.346 94.824 63.3741 94.9746 60.641 95.1132C60.3017 95.1304 59.9661 95.1474 59.6334 95.1686C55.8096 95.4125 51.5091 95.4511 48.0697 95.4798L48.024 95.4802L47.934 95.48C44.4949 95.4513 40.1895 95.4126 36.3655 95.1687C36.0329 95.1475 35.6973 95.1305 35.358 95.1133C32.6249 94.9747 29.653 94.8241 26.053 92.3664C23.7468 90.792 20.5195 87.881 20.5195 82.8602V13.1398C20.5195 8.11897 23.7467 5.20799 26.053 3.63357C29.653 1.17591 32.6249 1.02525 35.358 0.886687C35.6973 0.869487 36.0329 0.852474 36.3655 0.831258C40.1895 0.587379 44.4949 0.548873 47.934 0.520187L47.9797 0.519806L48.0697 0.520187ZM48.024 6C51.4906 6.02891 55.6381 6.06771 59.2847 6.30028C59.6668 6.32465 60.0261 6.34482 60.3668 6.36394C63.0524 6.51469 64.5717 6.59998 66.8563 8.15961C68.6201 9.36376 69.9995 10.8393 69.9995 13.1399V82.8601C69.9995 85.1607 68.6201 86.6362 66.8563 87.8404C64.5717 89.4 63.0524 89.4853 60.3668 89.6361C60.0262 89.6552 59.6668 89.6753 59.2847 89.6997C55.6381 89.9323 51.4906 89.9711 48.024 90H47.9797C44.513 89.9711 40.3609 89.9324 36.7143 89.6998C36.3322 89.6755 35.9728 89.6553 35.6322 89.6362C32.9466 89.4854 31.4273 89.4001 29.1427 87.8405C27.3789 86.6364 25.9995 85.1608 25.9995 82.8602V13.1398C25.9995 10.8392 27.3789 9.36363 29.1427 8.15948C31.4273 6.59985 32.9466 6.51456 35.6322 6.36381C35.9729 6.34469 36.3322 6.32452 36.7143 6.30015C40.3609 6.06758 44.513 6.02891 47.9797 6H48.024Z" fill="black"/>
<path d="M57.1726 81.2787H38.8266C38.3019 81.2787 37.9896 81.4553 37.9999 81.8545C38.0127 82.3536 38.9114 83.4668 40.221 83.6396C41.2686 83.7778 43.8142 83.7502 48.0109 83.7502C52.2076 83.7502 54.7307 83.7778 55.7783 83.6396C57.0878 83.4668 57.9865 82.3536 57.9994 81.8545C58.0097 81.4553 57.6973 81.2787 57.1726 81.2787Z" fill="black"/>
</svg>
