<svg width="96" height="96" viewBox="0 0 96 96" fill="none" xmlns="http://www.w3.org/2000/svg">
<g clip-path="url(#clip0_22145_159436)">
<path fill-rule="evenodd" clip-rule="evenodd" d="M48.0701 0.519913C51.5095 0.548601 55.81 0.587242 59.6338 0.831114C59.9665 0.85233 60.3021 0.869343 60.6413 0.886542C63.3745 1.0251 66.3464 1.17577 69.9464 3.63343C72.2526 5.20785 75.4798 8.11883 75.4798 13.1396V82.8598C75.4798 87.8806 72.2526 90.7916 69.9464 92.366C66.3464 94.8237 63.3745 94.9743 60.6413 95.1129C60.3021 95.1301 59.9665 95.1471 59.6338 95.1683C55.81 95.4122 51.5095 95.4508 48.0701 95.4795L48.0244 95.4799L47.9343 95.4797C44.4953 95.451 40.1898 95.4123 36.3659 95.1685C36.0333 95.1472 35.6977 95.1302 35.3584 95.113C32.6252 94.9745 29.6534 94.8238 26.0534 92.3662C23.7471 90.7917 20.5199 87.8807 20.5199 82.8599V13.1395C20.5199 8.1187 23.7471 5.20772 26.0534 3.63329C29.6534 1.17564 32.6252 1.02497 35.3584 0.886412C35.6977 0.869213 36.0333 0.8522 36.3659 0.830984C40.1898 0.587105 44.4953 0.548598 47.9343 0.519913L47.98 0.519531L48.0701 0.519913ZM48.0244 5.99972C51.491 6.02864 55.6385 6.06744 59.285 6.3C59.6671 6.32437 60.0265 6.34454 60.3671 6.36367C63.0527 6.51442 64.572 6.5997 66.8566 8.15933C68.6205 9.36349 69.9998 10.839 69.9998 13.1396V82.8598C69.9998 85.1604 68.6205 86.636 66.8566 87.8401C64.5721 89.3997 63.0527 89.485 60.3672 89.6358C60.0265 89.6549 59.6671 89.6751 59.285 89.6994C55.6385 89.932 51.491 89.9708 48.0244 89.9997H47.98C44.5134 89.9708 40.3613 89.9321 36.7147 89.6996C36.3326 89.6752 35.9732 89.655 35.6326 89.6359C32.947 89.4852 31.4277 89.3999 29.1431 87.8402C27.3792 86.6361 25.9999 85.1605 25.9999 82.8599V13.1395C25.9999 10.8389 27.3792 9.36336 29.1431 8.15921C31.4277 6.59957 32.947 6.51429 35.6326 6.36354C35.9732 6.34441 36.3326 6.32424 36.7147 6.29987C40.3613 6.06731 44.5134 6.02864 47.98 5.99972H48.0244Z" fill="url(#paint0_linear_22145_159436)"/>
<path d="M57.173 81.2783H38.827C38.3023 81.2783 37.99 81.4549 38.0002 81.8541C38.0131 82.3532 38.9118 83.4664 40.2213 83.6392C41.269 83.7773 43.8146 83.7498 48.0113 83.7498C52.208 83.7498 54.731 83.7773 55.7787 83.6392C57.0882 83.4664 57.9869 82.3532 57.9998 81.8541C58.01 81.4549 57.6977 81.2783 57.173 81.2783Z" fill="url(#paint1_linear_22145_159436)"/>
</g>
<defs>
<linearGradient id="paint0_linear_22145_159436" x1="47.9999" y1="128.715" x2="47.9999" y2="9.9863" gradientUnits="userSpaceOnUse">
<stop stop-color="#231F20"/>
<stop offset="1" stop-color="#747374"/>
</linearGradient>
<linearGradient id="paint1_linear_22145_159436" x1="48" y1="84.6178" x2="48" y2="81.5249" gradientUnits="userSpaceOnUse">
<stop stop-color="#231F20"/>
<stop offset="1" stop-color="#747374"/>
</linearGradient>
<clipPath id="clip0_22145_159436">
<rect width="96" height="96" fill="white"/>
</clipPath>
</defs>
</svg>
