<svg width="48" height="48" viewBox="0 0 48 48" fill="none" xmlns="http://www.w3.org/2000/svg">
<path fill-rule="evenodd" clip-rule="evenodd" d="M24.0349 0.260201C25.7546 0.274544 27.9048 0.293865 29.8167 0.415801C29.9831 0.426409 30.1508 0.434916 30.3205 0.443515C31.6871 0.512797 33.173 0.588127 34.973 1.81696C36.1261 2.60417 37.7397 4.05966 37.7397 6.57007V41.4301C37.7397 43.9406 36.1261 45.396 34.973 46.1833C33.173 47.4121 31.6871 47.4874 30.3205 47.5567C30.1508 47.5653 29.9831 47.5738 29.8167 47.5844C27.9048 47.7063 25.7546 47.7257 24.0349 47.74L24.012 47.7402L23.967 47.7401C22.2474 47.7258 20.0947 47.7064 18.1828 47.5845C18.0164 47.5739 17.8487 47.5654 17.679 47.5568C16.3124 47.4875 14.8265 47.4121 13.0265 46.1833C11.8734 45.3961 10.2598 43.9406 10.2598 41.4302V6.57C10.2598 4.05959 11.8734 2.6041 13.0265 1.81689C14.8265 0.588063 16.3124 0.512732 17.679 0.44345C17.8486 0.43485 18.0164 0.426344 18.1828 0.415736C20.0947 0.293797 22.2474 0.274543 23.967 0.260201L23.9898 0.26001L24.0349 0.260201ZM24.012 3.00011C25.7453 3.01456 27.819 3.03396 29.6423 3.15025C29.8334 3.16243 30.0131 3.17252 30.1834 3.18208C31.5262 3.25745 32.2858 3.30009 33.4281 4.07991C34.3101 4.68199 34.9997 5.41976 34.9997 6.57007V41.4301C34.9997 42.5804 34.3101 43.3182 33.4281 43.9203C32.2858 44.7001 31.5262 44.7428 30.1834 44.8181C30.0131 44.8277 29.8334 44.8378 29.6423 44.85C27.819 44.9662 25.7453 44.9856 24.012 45.0001H23.9898C22.2565 44.9856 20.1804 44.9663 18.3572 44.85C18.1661 44.8378 17.9864 44.8278 17.8161 44.8182C16.4733 44.7428 15.7137 44.7002 14.5714 43.9204C13.6894 43.3183 12.9998 42.5805 12.9998 41.4302V6.57C12.9998 5.4197 13.6894 4.68192 14.5714 4.07985C15.7137 3.30003 16.4733 3.25739 17.8161 3.18201C17.9864 3.17245 18.1661 3.16236 18.3572 3.15018C20.1804 3.0339 22.2565 3.01456 23.9898 3.00011H24.012Z" fill="#009DB9"/>
<path d="M28.5865 40.6394H19.4135C19.1511 40.6394 18.995 40.7277 19.0001 40.9273C19.0065 41.1768 19.4559 41.7334 20.1107 41.8198C20.6345 41.8889 21.9073 41.8751 24.0056 41.8751C26.104 41.8751 27.3655 41.8889 27.8893 41.8198C28.5441 41.7334 28.9935 41.1768 28.9999 40.9273C29.005 40.7277 28.8489 40.6394 28.5865 40.6394Z" fill="black"/>
</svg>
