<svg width="24" height="24" viewBox="0 0 24 24" fill="none" xmlns="http://www.w3.org/2000/svg">
<g id="Devices">
<g id="Vector">
<path fill-rule="evenodd" clip-rule="evenodd" d="M11.8553 17.6381C11.9277 17.659 11.9721 17.6668 11.9982 17.6668H12.0016C12.0276 17.6668 12.072 17.659 12.1444 17.6381C12.9838 17.3955 14.6821 16.8994 15.0217 16.7664C15.4769 16.5882 15.4999 16.3539 15.4999 15.9216C15.4955 12.6769 15.4985 6.852 15.4996 4.9113L15.4999 4.28167C15.4999 4.01474 15.2906 3.66677 14.7804 3.66677H9.2194C8.70918 3.66677 8.49988 4.01474 8.49988 4.28167L8.50018 4.9113C8.50121 6.852 8.5043 12.6769 8.49988 15.9216C8.49988 16.3539 8.52288 16.5882 8.97801 16.7664C9.31767 16.8994 11.0159 17.3955 11.8553 17.6381ZM9.31996 4.48677H14.6798L14.6796 4.90942C14.6785 6.84807 14.6755 12.6758 14.6799 15.922C14.6799 15.9594 14.6797 15.9911 14.6791 16.0191C14.3059 16.1531 12.8488 16.5806 11.9999 16.8263C11.151 16.5806 9.69384 16.1531 9.32061 16.0191C9.32007 15.9912 9.31988 15.9595 9.31988 15.9221C9.3243 12.6759 9.32121 6.84812 9.32018 4.90944L9.31996 4.48677Z" fill="white"/>
<path fill-rule="evenodd" clip-rule="evenodd" d="M14.9084 0.207778C13.9524 0.14681 12.8773 0.13715 12.0174 0.129978L11.9949 0.129883L11.9835 0.129978C11.1237 0.13715 10.0474 0.146776 9.09138 0.207746C9.00822 0.21305 8.92433 0.217303 8.83951 0.221603C8.15622 0.256244 7.41325 0.293909 6.51325 0.908324C5.93669 1.30193 5.12988 2.02967 5.12988 3.28488V20.715C5.12988 21.9702 5.93669 22.6979 6.51325 23.0915C7.41325 23.706 8.15622 23.7436 8.83951 23.7783C8.92433 23.7826 9.00822 23.7868 9.09138 23.7921C10.0474 23.8531 11.1237 23.8628 11.9835 23.8699L12.006 23.87L12.0174 23.8699C12.8773 23.8627 13.9524 23.8531 14.9084 23.7921C14.9915 23.7868 15.0754 23.7825 15.1602 23.7782C15.8435 23.7436 16.5865 23.7059 17.4865 23.0915C18.0631 22.6979 18.8699 21.9702 18.8699 20.715V3.28491C18.8699 2.02971 18.0631 1.30196 17.4865 0.908356C16.5865 0.293942 15.8435 0.256276 15.1602 0.221636C15.0754 0.217336 14.9915 0.213082 14.9084 0.207778ZM14.8212 1.575C13.9095 1.51686 12.8727 1.50716 12.006 1.49993H11.9949C11.1283 1.50716 10.0902 1.51683 9.17858 1.57497C9.08307 1.58106 8.99323 1.5861 8.90808 1.59088C8.23669 1.62857 7.85683 1.64989 7.28568 2.0398C6.84472 2.34084 6.49988 2.70973 6.49988 3.28488V20.715C6.49988 21.2901 6.84472 21.659 7.28568 21.9601C7.85683 22.35 8.23666 22.3713 8.90805 22.409C8.9932 22.4138 9.08307 22.4188 9.17858 22.4249C10.0902 22.483 11.1283 22.4927 11.9949 22.4999H12.006C12.8727 22.4927 13.9095 22.483 14.8212 22.4249C14.9167 22.4188 15.0065 22.4137 15.0917 22.4089C15.7631 22.3713 16.1429 22.3499 16.7141 21.96C17.155 21.659 17.4999 21.2901 17.4999 20.715V3.28491C17.4999 2.70976 17.155 2.34087 16.7141 2.03983C16.1429 1.64993 15.7631 1.6286 15.0917 1.59092C15.0065 1.58614 14.9167 1.58109 14.8212 1.575Z" fill="white"/>
</g>
</g>
</svg>
