<svg width="24" height="24" viewBox="0 0 24 24" fill="none" xmlns="http://www.w3.org/2000/svg">
<path fill-rule="evenodd" clip-rule="evenodd" d="M6.71249 4.64549C6.89569 4.00428 7.3396 3.46941 7.93606 3.17118C8.60583 2.83629 9.39417 2.83629 10.0639 3.17118L10.5 3.38921C11.4443 3.86134 12.5557 3.86134 13.5 3.38921L13.9361 3.17118C14.6058 2.83629 15.3942 2.83629 16.0639 3.17118C16.6604 3.46941 17.1043 4.00428 17.2875 4.64548L19 10.6392L17 10.6392L16.082 6.04943C16.0285 5.78194 15.8971 5.53628 15.7042 5.34339C15.2837 4.92286 14.6412 4.8186 14.1093 5.08457L13.2287 5.52483C12.4552 5.91159 11.5448 5.91159 10.7713 5.52483L9.89073 5.08457C9.3588 4.8186 8.71635 4.92286 8.29581 5.34339C8.10293 5.53628 7.97145 5.78194 7.91796 6.04943L7 10.6392L5 10.6392L6.71249 4.64549ZM7 10.6392L2 10.6392C1.44772 10.6392 1 11.0869 1 11.6392C1 12.1915 1.44772 12.6392 2 12.6392H22C22.5523 12.6392 23 12.1915 23 11.6392C23 11.0869 22.5523 10.6392 22 10.6392L17 10.6392H7Z" fill="#231F20"/>
<path d="M20.0702 15.8286C17.9937 15.4336 15.917 15.3664 13.8801 15.7831C13.8199 15.7954 13.7699 15.8093 13.7287 15.8234C13.6398 15.8539 13.5661 15.9035 13.4019 16.0142C13.3488 16.05 13.2861 16.0923 13.2104 16.1423C13.1576 16.1772 13.0957 16.2175 13.0255 16.2592C13.329 16.5046 13.5321 16.8478 13.6202 17.2002C13.7827 17.8483 13.9704 18.4272 14.259 18.9015L14.2591 18.9016C14.8298 19.8398 15.6342 20.2154 16.7769 20.2154C17.7788 20.2154 18.3891 19.9832 18.7666 19.6852C19.1389 19.3914 19.3847 18.9547 19.5051 18.3426L20.0702 15.8286ZM20.0702 15.8286C20.0553 15.8466 20.0403 15.8651 20.0253 15.8842C19.761 16.2195 19.73 16.6238 19.7127 16.8503C19.711 16.8719 19.7095 16.8919 19.7079 16.9101L19.707 16.9205C19.6816 17.2095 19.6441 17.6357 19.5051 18.3425L20.0702 15.8286ZM11.8559 16.7733L11.813 16.5593L11.8559 16.7733ZM11.8559 16.7733L11.8389 16.7768C11.5248 16.8405 11.2932 17.0985 11.2151 17.4093L12.1443 16.7734C12.0489 16.7542 11.9512 16.7542 11.8559 16.7733ZM10.1199 15.7831L10.1201 15.7831C10.1803 15.7954 10.2303 15.8093 10.2715 15.8234C10.3603 15.8537 10.4339 15.9034 10.5982 16.0142C10.6513 16.0499 10.7138 16.0921 10.7893 16.1421C10.8422 16.1771 10.9043 16.2175 10.9748 16.2594C10.6713 16.505 10.4686 16.8483 10.3803 17.1996L10.3802 17.2001C10.2178 17.8481 10.03 18.4272 9.74141 18.9014L9.74138 18.9015C9.17064 19.8395 8.36609 20.2152 7.22351 20.2152C6.2214 20.2152 5.61103 19.9831 5.23349 19.6851C4.8612 19.3913 4.61541 18.9547 4.49501 18.3424L4.495 18.3423C4.35592 17.6354 4.31846 17.2091 4.29308 16.9201L4.29219 16.91C4.29059 16.8918 4.28906 16.8718 4.28741 16.8502C4.27012 16.6239 4.23923 16.2197 3.97511 15.8844C3.96003 15.8652 3.945 15.8466 3.93001 15.8286C6.00664 15.4333 8.08333 15.3663 10.1199 15.7831Z" stroke="#231F20" stroke-width="1.72135"/>
</svg>
