<svg width="24" height="24" viewBox="0 0 24 24" fill="none" xmlns="http://www.w3.org/2000/svg">
<path fill-rule="evenodd" clip-rule="evenodd" d="M22 10.6392L19 10.6392L17.2875 4.64548C17.2736 4.59698 17.2583 4.54908 17.2415 4.50185C17.0363 3.9247 16.6153 3.44685 16.0639 3.17118C15.3942 2.83629 14.6058 2.83629 13.9361 3.17118L13.5 3.38921C12.5557 3.86134 11.4443 3.86134 10.5 3.38921L10.0639 3.17118C9.39417 2.83629 8.60583 2.83629 7.93606 3.17118C7.38472 3.44685 6.96372 3.92471 6.75849 4.50185C6.7417 4.54909 6.72635 4.59698 6.71249 4.64549L5 10.6392L2 10.6392C1.44772 10.6392 1 11.0869 1 11.6392C1 12.1915 1.44772 12.6392 2 12.6392H22C22.5523 12.6392 23 12.1915 23 11.6392C23 11.0869 22.5523 10.6392 22 10.6392ZM15.7042 5.34339C15.8971 5.53628 16.0285 5.78194 16.082 6.04943L17 10.6392H7L7.91796 6.04943C7.97145 5.78194 8.10293 5.53628 8.29581 5.34339L8.30629 5.33303C8.72696 4.92116 9.36319 4.8208 9.89073 5.08457L10.7713 5.52483C11.5448 5.91159 12.4552 5.91159 13.2287 5.52483L14.1093 5.08457C14.6368 4.8208 15.273 4.92116 15.6937 5.33303L15.7042 5.34339Z" fill="#231F20"/>
<path fill-rule="evenodd" clip-rule="evenodd" d="M2.98999 15.277C2.98999 15.277 3.02329 15.1646 3.28793 15.085C3.3229 15.0745 3.36191 15.0645 3.40542 15.0555C3.67697 14.999 3.94904 14.9478 4.22153 14.902C6.2367 14.5636 8.27479 14.527 10.2924 14.9399C10.3852 14.9588 10.4709 14.982 10.5498 15.009C10.7072 15.0627 10.8546 15.1504 10.9992 15.2457C11.0446 15.2757 11.0898 15.3064 11.1348 15.337C11.2891 15.4421 11.4426 15.5465 11.604 15.6179L11.6262 15.6275C11.7452 15.6777 11.8686 15.7092 11.9999 15.7092C12.1314 15.7092 12.255 15.6776 12.3742 15.6273L12.3968 15.6176C12.5579 15.5462 12.7112 15.4419 12.8653 15.337C12.9104 15.3064 12.9556 15.2757 13.001 15.2457C13.1455 15.1504 13.2929 15.0629 13.4501 15.0091C13.5291 14.9821 13.6148 14.9589 13.7076 14.9399C15.7256 14.5271 17.7637 14.5638 19.7788 14.9021C20.0512 14.9479 20.3232 14.9991 20.5946 15.0555C20.6378 15.0645 20.6766 15.0744 20.7114 15.0848C20.9769 15.1646 21.0102 15.2771 21.0102 15.2771V16.1403C21.0102 16.1403 20.8931 16.1734 20.7012 16.417C20.6045 16.5398 20.5917 16.685 20.5646 16.9933C20.5379 17.2963 20.4974 17.7569 20.3496 18.5086C20.0515 20.0246 19.0394 21.076 16.7769 21.076C15.3926 21.076 14.279 20.5904 13.5238 19.349C13.1657 18.7606 12.9531 18.0788 12.7854 17.4095C12.7775 17.3779 12.768 17.3468 12.757 17.3164C12.6597 17.048 12.4438 16.8341 12.1616 16.7769L12.1443 16.7734C12.0965 16.7638 12.0482 16.759 11.9999 16.759C11.9517 16.759 11.9035 16.7638 11.8559 16.7734L11.8389 16.7768C11.5566 16.834 11.341 17.0482 11.2435 17.3165C11.2325 17.3468 11.223 17.3778 11.2151 17.4094C11.0473 18.0786 10.8346 18.7606 10.4767 19.3488C9.72142 20.5901 8.60765 21.0759 7.22351 21.0759C4.96075 21.0759 3.94864 20.0246 3.65051 18.5085C3.50259 17.7566 3.4621 17.2959 3.43547 16.9928C3.4084 16.6847 3.39564 16.5395 3.2989 16.4169C3.10729 16.1733 2.98999 16.1402 2.98999 16.1402V15.277ZM5.14708 16.8061C5.14071 16.7322 5.13143 16.6247 5.11579 16.5076C6.6652 16.3003 8.19338 16.3027 9.68757 16.576C9.62784 16.7123 9.58044 16.8512 9.5456 16.9899L9.54535 16.9909C9.3883 17.6176 9.22527 18.0939 9.0061 18.4541C8.61987 19.0889 8.12454 19.3545 7.22351 19.3545C6.35066 19.3545 5.94864 19.1531 5.7667 19.0095C5.59527 18.8742 5.43121 18.6427 5.33949 18.1762C5.20924 17.5141 5.1748 17.1221 5.15069 16.8475L5.14956 16.8347L5.14708 16.8061ZM14.4554 16.9923C14.4205 16.8526 14.373 16.7129 14.313 16.5759C15.8072 16.3028 17.3352 16.3005 18.8843 16.5077C18.8687 16.6248 18.8594 16.7322 18.853 16.8061L18.8494 16.8478C18.8253 17.1224 18.7908 17.5145 18.6606 18.1765C18.5689 18.6429 18.4049 18.8743 18.2334 19.0097C18.0515 19.1533 17.6495 19.3547 16.7769 19.3547C15.8757 19.3547 15.3805 19.089 14.9943 18.4541C14.7752 18.0941 14.6124 17.6185 14.4554 16.9923Z" fill="#231F20"/>
</svg>
