<svg width="18" height="18" viewBox="0 0 18 18" fill="none" xmlns="http://www.w3.org/2000/svg">
<path d="M14.25 16.5L12 16.5C11.55 16.5 11.25 16.2 11.25 15.75C11.25 15.3 11.55 15 12 15L14.25 15C14.7 15 15 14.7 15 14.25L15 12C15 11.55 15.3 11.25 15.75 11.25C16.2 11.25 16.5 11.55 16.5 12L16.5 14.25C16.5 15.525 15.525 16.5 14.25 16.5Z" fill="#009DB9"/>
<path d="M6 16.5L3.75 16.5C2.475 16.5 1.5 15.525 1.5 14.25L1.5 12C1.5 11.55 1.8 11.25 2.25 11.25C2.7 11.25 3 11.55 3 12L3 14.25C3 14.7 3.3 15 3.75 15L6 15C6.45 15 6.75 15.3 6.75 15.75C6.75 16.2 6.45 16.5 6 16.5Z" fill="#009DB9"/>
<path d="M2.25 6.75C1.8 6.75 1.5 6.45 1.5 6L1.5 3.75C1.5 2.475 2.475 1.5 3.75 1.5L6 1.5C6.45 1.5 6.75 1.8 6.75 2.25C6.75 2.7 6.45 3 6 3L3.75 3C3.3 3 3 3.3 3 3.75L3 6C3 6.45 2.7 6.75 2.25 6.75Z" fill="#009DB9"/>
<path d="M7.71429 4.5L5.14286 4.5C4.97236 4.5 4.80885 4.56773 4.68829 4.68829C4.56773 4.80885 4.5 4.97236 4.5 5.14286L4.5 7.71429C4.5 7.88478 4.56773 8.0483 4.68829 8.16885C4.80885 8.28941 4.97236 8.35714 5.14286 8.35714L7.71429 8.35714C7.88478 8.35714 8.0483 8.28941 8.16886 8.16886C8.28942 8.0483 8.35715 7.88478 8.35715 7.71429L8.35715 5.14286C8.35715 4.97236 8.28942 4.80885 8.16886 4.68829C8.0483 4.56773 7.88479 4.5 7.71429 4.5ZM7.07143 7.07143L5.78572 7.07143L5.78572 5.78571L7.07143 5.78572L7.07143 7.07143ZM7.71429 9.64286L5.14286 9.64286C4.97236 9.64286 4.80885 9.71059 4.68829 9.83115C4.56773 9.95171 4.5 10.1152 4.5 10.2857L4.5 12.8571C4.5 13.0276 4.56773 13.1912 4.68829 13.3117C4.80885 13.4323 4.97236 13.5 5.14286 13.5L7.71429 13.5C7.88478 13.5 8.0483 13.4323 8.16886 13.3117C8.28941 13.1912 8.35714 13.0276 8.35714 12.8571L8.35715 10.2857C8.35715 10.1152 8.28942 9.95171 8.16886 9.83115C8.0483 9.71059 7.88478 9.64286 7.71429 9.64286ZM7.07143 12.2143L5.78572 12.2143L5.78572 10.9286L7.07143 10.9286L7.07143 12.2143ZM10.2857 11.5714C10.4562 11.5714 10.6197 11.5037 10.7403 11.3831C10.8608 11.2626 10.9286 11.0991 10.9286 10.9286C11.0991 10.9286 11.2626 10.8608 11.3831 10.7403C11.5037 10.6197 11.5714 10.4562 11.5714 10.2857C11.5714 10.1152 11.5037 9.95171 11.3831 9.83115C11.2626 9.71059 11.0991 9.64286 10.9286 9.64286L10.2857 9.64286C10.1152 9.64286 9.95171 9.71059 9.83115 9.83115C9.71059 9.95171 9.64286 10.1152 9.64286 10.2857L9.64286 10.9286C9.64286 11.0991 9.71059 11.2626 9.83115 11.3831C9.95171 11.5037 10.1152 11.5714 10.2857 11.5714ZM12.8571 9.64286C12.6866 9.64286 12.5231 9.71059 12.4026 9.83115C12.282 9.95171 12.2143 10.1152 12.2143 10.2857L12.2143 12.2143C12.0438 12.2143 11.8803 12.282 11.7597 12.4026C11.6392 12.5231 11.5714 12.6866 11.5714 12.8571C11.5714 13.0276 11.6392 13.1912 11.7597 13.3117C11.8803 13.4323 12.0438 13.5 12.2143 13.5L12.8571 13.5C13.0276 13.5 13.1912 13.4323 13.3117 13.3117C13.4323 13.1912 13.5 13.0276 13.5 12.8571L13.5 10.2857C13.5 10.1152 13.4323 9.95171 13.3117 9.83115C13.1912 9.71059 13.0276 9.64286 12.8571 9.64286ZM10.2857 12.2143C10.1586 12.2143 10.0343 12.252 9.92856 12.3226C9.82285 12.3933 9.74045 12.4937 9.69179 12.6111C9.64314 12.7286 9.63041 12.8579 9.65521 12.9826C9.68002 13.1073 9.74124 13.2218 9.83115 13.3117C9.92105 13.4016 10.0356 13.4628 10.1603 13.4876C10.285 13.5125 10.4143 13.4997 10.5317 13.4511C10.6492 13.4024 10.7496 13.32 10.8202 13.2143C10.8909 13.1086 10.9286 12.9843 10.9286 12.8571C10.9286 12.6866 10.8608 12.5231 10.7403 12.4026C10.6197 12.282 10.4562 12.2143 10.2857 12.2143Z" fill="#009DB9"/>
<path d="M11.7085 7.44974C11.6171 7.41166 11.5342 7.35587 11.4645 7.28557L9.96447 5.78557C9.82324 5.64434 9.7439 5.4528 9.7439 5.25307C9.7439 5.15417 9.76338 5.05625 9.80122 4.96488C9.83907 4.87352 9.89454 4.7905 9.96447 4.72057C10.1057 4.57934 10.2972 4.5 10.497 4.5C10.5959 4.5 10.6938 4.51948 10.7852 4.55732C10.8765 4.59517 10.9595 4.65064 11.0295 4.72057L11.997 5.69557L14.4645 3.22057C14.6057 3.07934 14.7972 3 14.997 3C15.1967 3 15.3882 3.07934 15.5295 3.22057C15.6707 3.3618 15.75 3.55334 15.75 3.75307C15.75 3.9528 15.6707 4.14434 15.5295 4.28557L12.5295 7.28557C12.4597 7.35587 12.3768 7.41166 12.2854 7.44974C12.194 7.48781 12.096 7.50742 11.997 7.50742C11.898 7.50742 11.7999 7.48781 11.7085 7.44974Z" fill="#009DB9"/>
</svg>
