<svg width="48" height="48" viewBox="0 0 48 48" fill="none" xmlns="http://www.w3.org/2000/svg">
<path d="M38 44H32C30.8 44 30 43.2 30 42C30 40.8 30.8 40 32 40H38C39.2 40 40 39.2 40 38V32C40 30.8 40.8 30 42 30C43.2 30 44 30.8 44 32V38C44 41.4 41.4 44 38 44Z" fill="#009DB9"/>
<path d="M16 44H10C6.6 44 4 41.4 4 38V32C4 30.8 4.8 30 6 30C7.2 30 8 30.8 8 32V38C8 39.2 8.8 40 10 40H16C17.2 40 18 40.8 18 42C18 43.2 17.2 44 16 44Z" fill="#009DB9"/>
<path d="M6 18C4.8 18 4 17.2 4 16V10C4 6.6 6.6 4 10 4H16C17.2 4 18 4.8 18 6C18 7.2 17.2 8 16 8H10C8.8 8 8 8.8 8 10V16C8 17.2 7.2 18 6 18Z" fill="#009DB9"/>
<path d="M20.5714 12H13.7143C13.2596 12 12.8236 12.1806 12.5021 12.5021C12.1806 12.8236 12 13.2596 12 13.7143V20.5714C12 21.0261 12.1806 21.4621 12.5021 21.7836C12.8236 22.1051 13.2596 22.2857 13.7143 22.2857H20.5714C21.0261 22.2857 21.4621 22.1051 21.7836 21.7836C22.1051 21.4621 22.2857 21.0261 22.2857 20.5714V13.7143C22.2857 13.2596 22.1051 12.8236 21.7836 12.5021C21.4621 12.1806 21.0261 12 20.5714 12ZM18.8571 18.8571H15.4286V15.4286H18.8571V18.8571ZM20.5714 25.7143H13.7143C13.2596 25.7143 12.8236 25.8949 12.5021 26.2164C12.1806 26.5379 12 26.9739 12 27.4286V34.2857C12 34.7404 12.1806 35.1764 12.5021 35.4979C12.8236 35.8194 13.2596 36 13.7143 36H20.5714C21.0261 36 21.4621 35.8194 21.7836 35.4979C22.1051 35.1764 22.2857 34.7404 22.2857 34.2857V27.4286C22.2857 26.9739 22.1051 26.5379 21.7836 26.2164C21.4621 25.8949 21.0261 25.7143 20.5714 25.7143ZM18.8571 32.5714H15.4286V29.1429H18.8571V32.5714ZM27.4286 30.8571C27.8832 30.8571 28.3193 30.6765 28.6408 30.355C28.9622 30.0336 29.1429 29.5975 29.1429 29.1429C29.5975 29.1429 30.0336 28.9622 30.355 28.6408C30.6765 28.3193 30.8571 27.8832 30.8571 27.4286C30.8571 26.9739 30.6765 26.5379 30.355 26.2164C30.0336 25.8949 29.5975 25.7143 29.1429 25.7143H27.4286C26.9739 25.7143 26.5379 25.8949 26.2164 26.2164C25.8949 26.5379 25.7143 26.9739 25.7143 27.4286V29.1429C25.7143 29.5975 25.8949 30.0336 26.2164 30.355C26.5379 30.6765 26.9739 30.8571 27.4286 30.8571ZM34.2857 25.7143C33.8311 25.7143 33.395 25.8949 33.0735 26.2164C32.752 26.5379 32.5714 26.9739 32.5714 27.4286V32.5714C32.1168 32.5714 31.6807 32.752 31.3592 33.0735C31.0378 33.395 30.8571 33.8311 30.8571 34.2857C30.8571 34.7404 31.0378 35.1764 31.3592 35.4979C31.6807 35.8194 32.1168 36 32.5714 36H34.2857C34.7404 36 35.1764 35.8194 35.4979 35.4979C35.8194 35.1764 36 34.7404 36 34.2857V27.4286C36 26.9739 35.8194 26.5379 35.4979 26.2164C35.1764 25.8949 34.7404 25.7143 34.2857 25.7143ZM27.4286 32.5714C27.0895 32.5714 26.7581 32.672 26.4762 32.8603C26.1943 33.0487 25.9745 33.3164 25.8448 33.6297C25.715 33.9429 25.6811 34.2876 25.7472 34.6202C25.8134 34.9527 25.9766 35.2582 26.2164 35.4979C26.4561 35.7376 26.7616 35.9009 27.0941 35.9671C27.4267 36.0332 27.7714 35.9993 28.0846 35.8695C28.3978 35.7398 28.6656 35.52 28.8539 35.2381C29.0423 34.9562 29.1429 34.6248 29.1429 34.2857C29.1429 33.8311 28.9622 33.395 28.6408 33.0735C28.3193 32.752 27.8832 32.5714 27.4286 32.5714Z" fill="#009DB9"/>
<path d="M31.2227 19.866C30.979 19.7644 30.7578 19.6156 30.5718 19.4282L26.5718 15.4282C26.1952 15.0516 25.9836 14.5408 25.9836 14.0082C25.9836 13.7445 26.0356 13.4833 26.1365 13.2397C26.2374 12.996 26.3853 12.7747 26.5718 12.5882C26.9484 12.2116 27.4592 12 27.9918 12C28.2555 12 28.5167 12.0519 28.7603 12.1529C29.004 12.2538 29.2253 12.4017 29.4118 12.5882L31.9918 15.1882L38.5718 8.58818C38.9484 8.21158 39.4592 8 39.9918 8C40.5244 8 41.0352 8.21158 41.4118 8.58818C41.7884 8.96479 42 9.47558 42 10.0082C42 10.5408 41.7884 11.0516 41.4118 11.4282L33.4118 19.4282C33.2259 19.6156 33.0047 19.7644 32.761 19.866C32.5173 19.9675 32.2558 20.0198 31.9918 20.0198C31.7278 20.0198 31.4664 19.9675 31.2227 19.866Z" fill="#009DB9"/>
</svg>
