<svg width="19" height="18" viewBox="0 0 19 18" fill="none" xmlns="http://www.w3.org/2000/svg">
<g clip-path="url(#clip0_5254_284847)">
<path d="M7.77229 14.2746C8.05047 14.0903 8.05393 13.6894 7.7959 13.4778C7.30385 13.0742 6.81678 12.6338 6.3414 12.1584C4.36866 10.1857 3.00984 8.02497 2.38636 6.15454C1.74703 4.23654 1.94318 2.86246 2.6527 2.15294C3.14118 1.66447 3.93188 1.41637 5.03712 1.52506C5.46095 1.56674 5.9179 1.6604 6.39959 1.80572C6.55344 1.85213 6.72046 1.82683 6.85227 1.73491C7.15972 1.52052 7.4687 1.32201 7.77756 1.14047C7.95706 1.03498 7.9455 0.768263 7.75199 0.691427C6.86333 0.33856 5.9961 0.112128 5.18392 0.0322609C3.81177 -0.102672 2.50693 0.177393 1.59204 1.09228C0.264338 2.41998 0.267626 4.54175 0.963338 6.62888C1.67491 8.7636 3.17904 11.1174 5.28074 13.2191C5.75244 13.6908 6.23616 14.1317 6.72658 14.54C6.88326 14.6704 7.10463 14.6895 7.27965 14.5849C7.44344 14.4871 7.60777 14.3836 7.77229 14.2746Z" fill="white"/>
<path d="M4.22522 7.27253C4.40953 7.55071 4.81043 7.55418 5.02203 7.29615C5.42554 6.80409 5.86602 6.31702 6.34139 5.84164C8.31413 3.86891 10.4748 2.51008 12.3452 1.88661C14.2633 1.24727 15.6373 1.44342 16.3468 2.15294C16.8353 2.64142 17.0834 3.43212 16.9747 4.53736C16.9331 4.9612 16.8394 5.41814 16.6941 5.89983C16.6477 6.05368 16.673 6.2207 16.7649 6.35251C16.9793 6.65996 17.1778 6.96894 17.3593 7.27781C17.4648 7.4573 17.7315 7.44574 17.8084 7.25224C18.1612 6.36358 18.3877 5.49634 18.4675 4.68416C18.6025 3.31201 18.3224 2.00717 17.4075 1.09228C16.0798 -0.235419 13.958 -0.232131 11.8709 0.463581C9.73619 1.17515 7.38243 2.67929 5.28073 4.78098C4.80903 5.25269 4.36808 5.73641 3.9598 6.22682C3.82936 6.3835 3.81032 6.60487 3.91486 6.77989C4.0127 6.94368 4.11622 7.10802 4.22522 7.27253Z" fill="white"/>
<path d="M14.7743 10.7275C14.59 10.4493 14.1891 10.4459 13.9775 10.7039C13.574 11.1959 13.1335 11.683 12.6581 12.1584C10.6854 14.1311 8.52472 15.4899 6.6543 16.1134C4.73629 16.7528 3.36221 16.5566 2.6527 15.8471C2.16422 15.3586 1.91613 14.5679 2.02481 13.4627C2.06649 13.0388 2.16015 12.5819 2.30547 12.1002C2.35188 11.9463 2.32658 11.7793 2.23466 11.6475C2.02027 11.3401 1.82176 11.0311 1.64022 10.7222C1.53473 10.5427 1.26802 10.5543 1.19118 10.7478C0.838312 11.6365 0.61188 12.5037 0.532014 13.3159C0.39708 14.688 0.677146 15.9929 1.59204 16.9077C2.91974 18.2354 5.0415 18.2322 7.12864 17.5364C9.26336 16.8249 11.6171 15.3207 13.7188 13.219C14.1905 12.7473 14.6315 12.2636 15.0397 11.7732C15.1702 11.6165 15.1892 11.3952 15.0847 11.2201C14.9868 11.0563 14.8833 10.892 14.7743 10.7275Z" fill="white"/>
<path d="M12.6581 5.84163C12.1828 5.36625 11.6957 4.92578 11.2036 4.52227C10.9456 4.31067 10.9491 3.90977 11.2273 3.72546C11.3918 3.61646 11.5561 3.51294 11.7199 3.4151C11.8949 3.31056 12.1163 3.3296 12.273 3.46004C12.7634 3.86832 13.2471 4.30927 13.7188 4.78097C15.8205 6.88267 17.3246 9.23642 18.0362 11.3711C18.7319 13.4583 18.7352 15.58 17.4075 16.9077C16.4926 17.8226 15.1878 18.1027 13.8156 17.9678C13.0034 17.8879 12.1362 17.6615 11.2475 17.3086C11.054 17.2318 11.0425 16.9651 11.222 16.8596C11.5308 16.678 11.8398 16.4795 12.1473 16.2651C12.2791 16.1732 12.4461 16.1479 12.6 16.1943C13.0816 16.3396 13.5386 16.4333 13.9624 16.475C15.0677 16.5837 15.8584 16.3356 16.3468 15.8471C17.0564 15.1376 17.2525 13.7635 16.6132 11.8455C15.9897 9.97506 14.6309 7.81437 12.6581 5.84163Z" fill="white"/>
</g>
<defs>
<clipPath id="clip0_5254_284847">
<rect width="18" height="18" fill="white" transform="translate(0.5)"/>
</clipPath>
</defs>
</svg>
