<svg width="18" height="18" viewBox="0 0 18 18" fill="none" xmlns="http://www.w3.org/2000/svg">
    <path fill-rule="evenodd" clip-rule="evenodd"
        d="M6.74364 3.26217C6.38816 2.91261 5.81172 2.91261 5.45666 3.26217L0.266612 8.36702C-0.0888708 8.71658 -0.0888708 9.28342 0.266612 9.63298L5.45624 14.7378C5.81172 15.0874 6.38816 15.0874 6.74322 14.7378L9 12.5178L6.06716 9.63298C5.71168 9.28342 5.71168 8.71658 6.06716 8.36702L9 5.4822L6.74364 3.26217Z"
        fill="#231F20" />
    <path fill-rule="evenodd" clip-rule="evenodd"
        d="M12.5438 3.26218C12.1883 2.91261 11.6118 2.91261 11.2568 3.26218L9 5.48187L11.9328 8.36679C12.2883 8.71636 12.2883 9.28322 11.9328 9.63279L9 12.5177L11.2568 14.7378C11.6123 15.0874 12.1887 15.0874 12.5438 14.7378L17.7334 9.63279C18.0889 9.28322 18.0889 8.71636 17.7334 8.36679L12.5438 3.26218Z"
        fill="#231F20" />
</svg>
