<svg width="51" height="12" viewBox="0 0 51 12" fill="none" xmlns="http://www.w3.org/2000/svg">
<g id=".Logo/Ramp">
<path id="Path 1" d="M13.0406 7.06151L10.8348 9.3419C10.745 9.43494 10.6946 9.56079 10.6946 9.69197C10.6946 9.82315 10.745 9.949 10.8348 10.042L12.5204 11.7807C12.66 11.9211 12.8474 11.9998 13.0425 11.9998C13.2376 11.9998 13.425 11.9211 13.5646 11.7807L18.7311 6.52837C18.7994 6.45899 18.8536 6.37634 18.8906 6.28522C18.9275 6.1941 18.9466 6.09632 18.9466 5.99756C18.9466 5.8988 18.9275 5.80102 18.8906 5.7099C18.8536 5.61878 18.7994 5.53613 18.7311 5.46675L13.5651 0.21909C13.4255 0.078634 13.2381 0 13.043 0C12.8478 0 12.6604 0.078634 12.5208 0.21909L10.8352 1.95775C10.7455 2.05079 10.6951 2.17664 10.6951 2.30782C10.6951 2.439 10.7455 2.56485 10.8352 2.65788L13.0411 4.93828C13.1776 5.07705 13.2859 5.24236 13.3599 5.42462C13.4338 5.60688 13.4719 5.80246 13.4718 5.99999C13.4718 6.19753 13.4336 6.39309 13.3596 6.57531C13.2856 6.75754 13.1771 6.9228 13.0406 7.06151Z" fill="#231F20"/>
<path id="Path 2" d="M6.40718 7.06151L8.61301 9.3419C8.7028 9.43494 8.7532 9.56079 8.7532 9.69197C8.7532 9.82315 8.7028 9.949 8.61301 10.042L6.9274 11.7807C6.78781 11.9211 6.60041 11.9998 6.40527 11.9998C6.21013 11.9998 6.02273 11.9211 5.88314 11.7807L0.71544 6.52837C0.647197 6.45899 0.593011 6.37634 0.556028 6.28522C0.519044 6.1941 0.5 6.09632 0.5 5.99756C0.5 5.8988 0.519044 5.80102 0.556028 5.7099C0.593011 5.61878 0.647197 5.53613 0.71544 5.46675L5.8829 0.21909C6.02249 0.078634 6.20989 0 6.40503 0C6.60017 0 6.78757 0.078634 6.92717 0.21909L8.61277 1.95775C8.70256 2.05079 8.75296 2.17664 8.75296 2.30782C8.75296 2.439 8.70256 2.56485 8.61277 2.65788L6.40718 4.93852C6.2707 5.07726 6.16233 5.24253 6.08837 5.42475C6.0144 5.60697 5.97632 5.80251 5.97632 6.00001C5.97632 6.19752 6.0144 6.39306 6.08837 6.57528C6.16233 6.7575 6.2707 6.92277 6.40718 7.06151Z" fill="#231F20"/>
<path id="Path 3" d="M6.9858 6.43385C6.87413 6.31873 6.8114 6.16265 6.8114 5.99992C6.8114 5.83719 6.87413 5.68111 6.9858 5.56599L9.30274 3.17951C9.4145 3.06449 9.56603 2.99988 9.72402 2.99988C9.88201 2.99988 10.0335 3.06449 10.1453 3.17951L12.4622 5.56599C12.5739 5.68111 12.6366 5.83719 12.6366 5.99992C12.6366 6.16265 12.5739 6.31873 12.4622 6.43385L10.1451 8.82009C10.0333 8.93511 9.88177 8.99971 9.72378 8.99971C9.56579 8.99971 9.41426 8.93511 9.3025 8.82009L6.9858 6.43385Z" fill="#231F20"/>
<path id="Path 4" d="M28.8272 9.60002H27.181L26.2731 7.15337C26.2153 6.97875 26.0935 6.83431 25.9338 6.75087C25.7586 6.6689 25.5673 6.62998 25.3749 6.63717H24.3672V9.60002H22.8303V2.25H25.9934C26.8182 2.25 27.4435 2.43582 27.8693 2.80745C28.0863 3.00706 28.2565 3.25478 28.3671 3.53195C28.4777 3.80912 28.5258 4.10852 28.5078 4.40761C28.5192 4.85895 28.386 5.30161 28.1287 5.66716C27.8628 6.03237 27.4876 6.29724 27.061 6.42082C27.2764 6.47351 27.4742 6.58455 27.6338 6.74246C27.7935 6.90037 27.9093 7.09938 27.9692 7.31888L28.8272 9.60002ZM25.764 5.40881C26.1046 5.43548 26.4451 5.35635 26.7416 5.18166C26.8473 5.09478 26.9309 4.98256 26.9849 4.85479C27.0389 4.72702 27.0618 4.58758 27.0515 4.44862C27.0626 4.31107 27.04 4.17287 26.9859 4.04662C26.9317 3.92037 26.8477 3.81011 26.7416 3.7259C26.4476 3.54398 26.1059 3.46098 25.764 3.48843H24.3471V5.40857L25.764 5.40881Z" fill="#231F20"/>
<path id="Path 5" d="M34.8639 4.36628V9.60019H33.3771V8.8259C33.2235 9.09499 32.9985 9.3134 32.7286 9.45555C32.4356 9.61033 32.11 9.68835 31.7807 9.68271C31.3686 9.69062 30.9629 9.57594 30.6125 9.35241C30.2704 9.12057 29.9977 8.79524 29.825 8.41285C29.6317 7.96488 29.5363 7.47865 29.5455 6.98852C29.537 6.49505 29.6323 6.00552 29.825 5.55363C29.997 5.15902 30.2739 4.82257 30.6237 4.58313C30.9661 4.34815 31.3697 4.22578 31.7812 4.2322C32.1117 4.22662 32.438 4.30838 32.7291 4.46967C32.9982 4.61774 33.2225 4.83912 33.3776 5.10964V4.36628H34.8639ZM32.2199 8.4956C32.383 8.50513 32.5459 8.47446 32.6952 8.40612C32.8445 8.33778 32.9757 8.23376 33.0782 8.10269C33.2983 7.76923 33.4037 7.36949 33.3776 6.96715C33.4036 6.56488 33.2981 6.16522 33.0779 5.83187C32.9771 5.69834 32.8463 5.59197 32.6968 5.52188C32.5474 5.45178 32.3836 5.42004 32.2196 5.42937C32.0534 5.42109 31.8876 5.45429 31.7365 5.52617C31.5853 5.59804 31.4533 5.70645 31.3515 5.84218C31.1276 6.17809 31.0185 6.58123 31.0416 6.98803C31.0164 7.38705 31.1218 7.78325 31.3411 8.11325C31.4493 8.24207 31.5849 8.34354 31.7372 8.40984C31.8896 8.47613 32.0547 8.50548 32.2199 8.4956Z" fill="#231F20"/>
<path id="Path 6" d="M42.2666 4.23225C42.5078 4.21281 42.7501 4.25222 42.9738 4.34728C43.1975 4.44234 43.3963 4.59038 43.554 4.77939C43.8401 5.13727 43.9832 5.68784 43.9832 6.43111V9.60024H42.4766V6.48146C42.4984 6.20825 42.4392 5.93467 42.3069 5.69685C42.2412 5.61073 42.1557 5.54293 42.0581 5.49964C41.9604 5.45635 41.8538 5.43897 41.748 5.44906C41.6129 5.44168 41.478 5.46783 41.3547 5.5253C41.2314 5.58278 41.1232 5.66991 41.0394 5.77936C40.8581 6.05174 40.7703 6.37872 40.79 6.70837V9.59877H39.2832V6.47998C39.3042 6.20557 39.2414 5.93127 39.1037 5.69537C39.0398 5.61004 38.9561 5.54263 38.8603 5.49933C38.7645 5.45603 38.6596 5.43824 38.5554 5.44759C38.4189 5.44093 38.2827 5.46734 38.1579 5.52471C38.0331 5.58207 37.9231 5.66879 37.8368 5.77789C37.6556 6.05034 37.5678 6.37727 37.5874 6.70689V9.59729H36.0801V5.8631C36.0833 5.36256 36.0566 4.86228 36.0002 4.3651H37.4169L37.5068 5.14971C37.6507 4.86347 37.8726 4.62671 38.1453 4.46849C38.4397 4.30639 38.7695 4.22464 39.1032 4.23102C39.8551 4.23102 40.354 4.55444 40.6 5.20128C40.764 4.90768 41.0019 4.66512 41.2886 4.49919C41.5854 4.3215 41.9232 4.2293 42.2666 4.23225Z" fill="#231F20"/>
<path id="Path 7" d="M48.2644 4.23226C48.6759 4.22584 49.0796 4.34821 49.4222 4.58319C49.7703 4.82142 50.0441 5.15842 50.2104 5.55345C50.4094 6.00356 50.5081 6.49383 50.4993 6.98834C50.5087 7.47845 50.4134 7.9647 50.2201 8.41266C50.0515 8.79793 49.7776 9.12431 49.4319 9.35198C49.0814 9.57549 48.6758 9.69017 48.2637 9.68228C47.9345 9.68796 47.6089 9.60994 47.316 9.45512C47.0476 9.31463 46.8254 9.09557 46.6775 8.82547V12H45.1707V5.86312C45.1739 5.36258 45.1473 4.86231 45.0911 4.36512H46.508L46.6076 5.23224C46.7392 4.92406 46.9629 4.66723 47.2461 4.4992C47.5562 4.31786 47.9079 4.22566 48.2644 4.23226ZM47.8352 8.49567C47.9973 8.50554 48.1594 8.47613 48.3085 8.40982C48.4575 8.3435 48.5894 8.24212 48.6936 8.1138C48.9127 7.78377 49.018 7.38757 48.9928 6.98858C49.0159 6.58177 48.9069 6.1786 48.6828 5.84274C48.5853 5.70749 48.4569 5.59908 48.3091 5.52708C48.1612 5.45508 47.9984 5.42171 47.835 5.42993C47.6697 5.42136 47.5047 5.45338 47.3537 5.52336C47.2028 5.59334 47.0701 5.69927 46.9667 5.83242C46.7467 6.16592 46.6414 6.56565 46.6675 6.96795C46.6414 7.37026 46.7467 7.76999 46.9667 8.10349C47.0718 8.2341 47.2051 8.33759 47.3559 8.40569C47.5068 8.47378 47.671 8.5046 47.8355 8.49567H47.8352Z" fill="#231F20"/>
</g>
</svg>
