<svg width="18" height="18" viewBox="0 0 18 18" fill="none" xmlns="http://www.w3.org/2000/svg">
<g id="RAMP Icon">
<path id="Path 1" d="M12.237 9.89055L10.0845 12.1157C9.99693 12.2065 9.94775 12.3293 9.94775 12.4573C9.94775 12.5853 9.99693 12.7081 10.0845 12.7989L11.7293 14.4955C11.8656 14.6325 12.0484 14.7093 12.2388 14.7093C12.4293 14.7093 12.6121 14.6325 12.7483 14.4955L17.7898 9.37032C17.8563 9.30262 17.9092 9.22197 17.9453 9.13306C17.9814 9.04414 18 8.94873 18 8.85236C18 8.75599 17.9814 8.66058 17.9453 8.57166C17.9092 8.48275 17.8563 8.4021 17.7898 8.3344L12.7488 3.21379C12.6126 3.07673 12.4297 3 12.2393 3C12.0489 3 11.866 3.07673 11.7298 3.21379L10.085 4.91035C9.9974 5.00114 9.94822 5.12394 9.94822 5.25195C9.94822 5.37995 9.9974 5.50275 10.085 5.59354L12.2374 7.81872C12.3706 7.95413 12.4764 8.11545 12.5485 8.2933C12.6207 8.47114 12.6578 8.66198 12.6578 8.85474C12.6577 9.04749 12.6205 9.23831 12.5483 9.41613C12.476 9.59394 12.3702 9.7552 12.237 9.89055Z" fill="#22272F"/>
<path id="Path 2" d="M5.76417 9.89055L7.9166 12.1157C8.00421 12.2065 8.05339 12.3293 8.05339 12.4573C8.05339 12.5853 8.00421 12.7081 7.9166 12.7989L6.2718 14.4955C6.13559 14.6325 5.95272 14.7093 5.76231 14.7093C5.57189 14.7093 5.38902 14.6325 5.25281 14.4955L0.210224 9.37032C0.143633 9.30262 0.0907592 9.22197 0.0546713 9.13306C0.0185833 9.04414 0 8.94873 0 8.85236C0 8.75599 0.0185833 8.66058 0.0546713 8.57166C0.0907592 8.48275 0.143633 8.4021 0.210224 8.3344L5.25258 3.21379C5.38879 3.07673 5.57165 3 5.76207 3C5.95249 3 6.13535 3.07673 6.27157 3.21379L7.91637 4.91035C8.00398 5.00114 8.05316 5.12394 8.05316 5.25195C8.05316 5.37995 8.00398 5.50275 7.91637 5.59354L5.76417 7.81896C5.63099 7.95434 5.52525 8.11561 5.45308 8.29342C5.3809 8.47123 5.34374 8.66203 5.34374 8.85476C5.34374 9.04748 5.3809 9.23829 5.45308 9.41609C5.52525 9.5939 5.63099 9.75518 5.76417 9.89055Z" fill="#22272F"/>
<path id="Path 3" d="M6.32886 9.27808C6.2199 9.16575 6.15869 9.01345 6.15869 8.85466C6.15869 8.69586 6.2199 8.54357 6.32886 8.43123L8.58971 6.10253C8.69877 5.99029 8.84663 5.92725 9.00079 5.92725C9.15496 5.92725 9.30282 5.99029 9.41188 6.10253L11.6727 8.43123C11.7817 8.54357 11.8429 8.69586 11.8429 8.85466C11.8429 9.01345 11.7817 9.16575 11.6727 9.27808L9.41165 11.6065C9.30259 11.7188 9.15473 11.7818 9.00056 11.7818C8.8464 11.7818 8.69854 11.7188 8.58948 11.6065L6.32886 9.27808Z" fill="#22272F"/>
</g>
</svg>
