<?xml version="1.0" encoding="UTF-8"?>
<svg id="Layer_1" xmlns="http://www.w3.org/2000/svg" width="25cm" height="25cm"
    viewBox="0 0 708.66 708.66">
    <defs>
        <style>.cls-1{fill:#0a6e5c;}.cls-1,.cls-2{fill-rule:evenodd;}.cls-2{fill:#00a754;}</style>
    </defs>
    <path class="cls-2"
        d="M285.22,175.62c-10.89-10.89-28.53-10.89-39.42,0l-158.94,158.99c-10.89,10.89-10.89,28.54,0,39.43l158.94,158.99c10.89,10.89,28.53,10.89,39.42,0l69.11-69.14-89.83-89.85c-10.89-10.89-10.89-28.54,0-39.43l89.83-89.85-69.11-69.14Z" />
    <path class="cls-1"
        d="M462.87,175.62c-10.89-10.89-28.53-10.89-39.42,0l-69.11,69.14,89.83,89.85c10.89,10.89,10.89,28.54,0,39.43l-89.83,89.85,69.11,69.14c10.89,10.89,28.53,10.89,39.42,0l158.94-158.99c10.89-10.89,10.89-28.54,0-39.43l-158.94-158.99Z" />
</svg>