<svg width="66" height="16" viewBox="0 0 66 16" fill="none" xmlns="http://www.w3.org/2000/svg">
    <g id=".Brands/RampNetwork" clip-path="url(#clip0_12279_162217)">
        <path id="Vector" fill-rule="evenodd" clip-rule="evenodd"
            d="M9.69683 0.349433C9.22961 -0.11664 8.47199 -0.11664 8.00533 0.349433L1.18391 7.15578C0.716691 7.62186 0.716691 8.37762 1.18391 8.8437L8.00477 15.65C8.47199 16.1161 9.22961 16.1161 9.69627 15.65L12.6624 12.6901L8.80772 8.8437C8.3405 8.37762 8.3405 7.62186 8.80772 7.15578L12.6624 3.30942L9.69683 0.349433Z"
            fill="#231F20" />
        <path id="Vector_2" fill-rule="evenodd" clip-rule="evenodd"
            d="M17.3206 0.349433C16.8534 -0.11664 16.0958 -0.11664 15.6291 0.349433L12.663 3.30886L16.5177 7.15522C16.9849 7.6213 16.9849 8.37706 16.5177 8.84314L12.663 12.6895L15.6291 15.6495C16.0963 16.1156 16.854 16.1156 17.3206 15.6495L24.1415 8.84314C24.6087 8.37706 24.6087 7.6213 24.1415 7.15522L17.3206 0.349433Z"
            fill="#231F20" />
        <path id="Vector_3"
            d="M29.3363 0.736816H33.3432C35.0806 0.736816 36.3966 1.99828 36.3966 3.67503C36.3966 4.96162 35.5881 5.98866 34.3996 6.35426L36.6568 9.73622H34.544L32.6376 6.50999H31.1397V9.73622H29.3408V0.736816H29.3369H29.3363ZM31.1358 2.42584V4.94487H33.3024C34.0079 4.94487 34.5445 4.39842 34.5445 3.68341C34.5445 2.96839 34.0079 2.42194 33.3024 2.42194H31.1358V2.42584Z"
            fill="#231F20" />
        <path id="Vector_4"
            d="M37.1353 6.42454C37.1353 4.44805 38.5341 2.95605 40.3868 2.95605C41.2742 2.95605 42.0167 3.30547 42.5533 3.89323V3.11234H44.2493V9.74119H42.5533V8.96031C42.0167 9.5436 41.2742 9.89748 40.3868 9.89748C38.5341 9.89748 37.1353 8.40158 37.1353 6.42509V6.42454ZM42.5533 6.42454C42.5533 5.38466 41.7694 4.5915 40.713 4.5915C39.6566 4.5915 38.8849 5.38466 38.8849 6.42454C38.8849 7.46441 39.6689 8.25757 40.713 8.25757C41.7571 8.25757 42.5533 7.46441 42.5533 6.42454Z"
            fill="#231F20" />
        <path id="Vector_5"
            d="M46.0108 3.10795H47.7068V3.79841C48.202 3.23968 48.8706 2.95166 49.6792 2.95166C50.6321 2.95166 51.3875 3.37922 51.792 4.09424C52.3118 3.35466 53.0958 2.95166 54.0738 2.95166C55.5348 2.95166 56.5129 3.92567 56.5129 5.42157V9.7368H54.8169V5.92728C54.8169 5.12183 54.3094 4.58766 53.5132 4.58766C52.717 4.58766 52.1143 5.13411 52.1143 5.95183V9.73289H50.4183V5.92337C50.4183 5.11793 49.894 4.58376 49.1146 4.58376C48.2809 4.58376 47.7034 5.13021 47.7034 5.94793V9.72843H46.0074V3.10795H46.0114H46.0108Z"
            fill="#231F20" />
        <path id="Vector_6"
            d="M58.0685 3.10795H59.7645V3.88883C60.3011 3.30554 61.0436 2.95166 61.931 2.95166C63.7837 2.95166 65.1663 4.44756 65.1663 6.42014C65.1663 8.39272 63.7837 9.89253 61.931 9.89253C61.0436 9.89253 60.3011 9.54311 59.7645 8.95536V12.2062H58.0685V3.10795ZM63.4161 6.42461C63.4161 5.38473 62.6484 4.59157 61.5886 4.59157C60.5288 4.59157 59.7605 5.38473 59.7605 6.42461C59.7605 7.46448 60.5445 8.25764 61.5886 8.25764C62.6327 8.25764 63.4161 7.46448 63.4161 6.42461Z"
            fill="#231F20" />
        <path id="Vector_7"
            d="M53.2037 15.2113H53.8455L52.7812 13.4L53.8326 12.0498H53.1779L51.8949 13.7109V12.0498H51.3398V15.2113H51.8949V14.5387L52.4192 13.865L53.2037 15.2113Z"
            fill="#231F20" />
        <path id="Vector_8"
            d="M50.1615 13.5764C50.26 13.4263 50.3086 13.2465 50.3086 13.0361C50.3086 12.7246 50.2074 12.4824 50.0054 12.3094C49.8062 12.1363 49.527 12.0498 49.1688 12.0498H47.9591V15.2113H48.5142V14.0308H49.1951L49.7323 15.2113H50.3394L49.7368 13.9141C49.9248 13.8365 50.0664 13.7238 50.162 13.577L50.1615 13.5764ZM49.5801 13.4078C49.4816 13.4971 49.3445 13.5418 49.1683 13.5418H48.5136V12.5427H49.1683C49.3445 12.5427 49.4816 12.5856 49.5801 12.6722C49.6786 12.7559 49.7273 12.877 49.7273 13.0355C49.7273 13.1941 49.6786 13.318 49.5801 13.4073V13.4078Z"
            fill="#231F20" />
        <path id="Vector_9"
            d="M46.224 12.201C45.9957 12.0626 45.7299 11.9934 45.4266 11.9934C45.1233 11.9934 44.8559 12.0626 44.6248 12.201C44.3965 12.3395 44.2174 12.5326 44.0871 12.7804C43.9572 13.0255 43.8923 13.3096 43.8923 13.6322C43.8923 13.9548 43.9556 14.235 44.0826 14.4801C44.213 14.7251 44.3931 14.9166 44.6248 15.055C44.8559 15.1934 45.1222 15.2626 45.4221 15.2626C45.722 15.2626 45.9929 15.1934 46.224 15.055C46.4551 14.9166 46.6358 14.7251 46.7662 14.4801C46.896 14.2322 46.9609 13.9481 46.9609 13.6283C46.9609 13.3085 46.896 13.0216 46.7662 12.7765C46.6358 12.5315 46.4556 12.34 46.224 12.2016V12.201ZM46.2631 14.2121C46.1848 14.3762 46.0751 14.5046 45.9336 14.5973C45.792 14.6866 45.623 14.7312 45.426 14.7312C45.2291 14.7312 45.0629 14.6866 44.9185 14.5973C44.777 14.508 44.6673 14.3813 44.589 14.2166C44.5112 14.0492 44.472 13.8532 44.472 13.6283C44.472 13.4034 44.5112 13.2085 44.589 13.0444C44.6673 12.8803 44.777 12.7531 44.9185 12.6638C45.0629 12.5717 45.2319 12.5253 45.426 12.5253C45.6202 12.5253 45.792 12.5717 45.9336 12.6638C46.0751 12.7531 46.1848 12.8798 46.2631 13.0444C46.3409 13.2085 46.3801 13.4034 46.3801 13.6283C46.3801 13.8532 46.3409 14.0447 46.2631 14.2121Z"
            fill="#231F20" />
        <path id="Vector_10"
            d="M42.2232 13.7277C42.2003 13.8053 42.1757 13.8918 42.1494 13.9873C42.1264 14.0794 42.1007 14.1994 42.0716 14.3462C42.0453 14.2133 42.0195 14.0984 41.9932 14.0001C41.9703 13.9019 41.9457 13.8087 41.9194 13.7188L41.4298 12.0493H40.8182L40.3152 13.7188C40.2889 13.8081 40.2631 13.9002 40.2374 13.9957C40.2144 14.0878 40.1898 14.205 40.1635 14.3462C40.1406 14.2078 40.1171 14.0911 40.0941 13.9957C40.0712 13.8974 40.0466 13.8053 40.0203 13.7188L39.5173 12.0493H38.9409L39.886 15.2108H40.4276L41.1215 12.91L41.798 15.2108H42.3351L43.2981 12.0493H42.7341L42.2227 13.7272L42.2232 13.7277Z"
            fill="#231F20" />
        <path id="Vector_11"
            d="M35.874 12.5605H36.8018V15.2113H37.3568V12.5605H38.2845V12.0498H35.874V12.5605Z"
            fill="#231F20" />
        <path id="Vector_12"
            d="M33.1088 15.2113H35.0772V14.7011H33.6638V13.8622H34.9295V13.3732H33.6638V12.5605H35.0772V12.0498H33.1088V15.2113Z"
            fill="#231F20" />
        <path id="Vector_13"
            d="M31.3842 14.2942L29.8975 12.0498H29.3469V15.2113H29.893V12.9702L31.3842 15.2113H31.9303V12.0498H31.3842V14.2942Z"
            fill="#231F20" />
    </g>
    <defs>
        <clipPath id="clip0_12279_162217">
            <rect width="64.3478" height="16" fill="white" transform="translate(0.82605)" />
        </clipPath>
    </defs>
</svg>
