<svg width="22" height="16" viewBox="0 0 22 16" fill="none" xmlns="http://www.w3.org/2000/svg">
<path d="M11.9457 16C11.8462 16 11.6471 16 11.5475 15.9001C11.1493 15.7002 10.9502 15.4003 10.9502 15.0006V1.00845C10.9502 0.608674 11.1493 0.308843 11.5475 0.108956C11.8462 -0.0909317 12.3439 0.00901185 12.6425 0.208899L21.6018 7.20496C21.8009 7.40484 22 7.70467 22 8.00451C22 8.30434 21.9005 8.60417 21.6018 8.80406L12.6425 15.8001C12.3439 15.9001 12.1448 16 11.9457 16ZM12.9412 3.00732V13.0017L19.3122 8.00451L12.9412 3.00732ZM0.995475 16C0.895928 16 0.696833 16 0.597285 15.9001C0.199095 15.7002 0 15.4003 0 15.0006V1.00845C0 0.608674 0.199095 0.308843 0.597285 0.108956C0.895928 -0.0909317 1.29412 0.00901185 1.59276 0.208899L10.552 7.20496C10.7511 7.40484 10.9502 7.70467 10.9502 8.00451C10.9502 8.30434 10.8507 8.60417 10.552 8.80406L1.59276 15.8001C1.39367 15.9001 1.19457 16 0.995475 16ZM1.99095 3.00732V13.0017L8.36199 8.00451L1.99095 3.00732Z" fill="#231F20"/>
</svg>
