<svg xmlns="http://www.w3.org/2000/svg" width="24" height="24" fill="none"><g clip-path="url(#a)"><path fill="#231F20" d="M12.71 18c-.075 0-.225 0-.3-.075-.298-.15-.447-.375-.447-.675V6.756c0-.3.149-.524.448-.674.224-.15.597-.075.82.075l6.72 5.247c.15.15.299.374.299.6 0 .224-.075.45-.299.599l-6.72 5.247c-.223.075-.372.15-.522.15Zm.746-9.745v7.496l4.778-3.748-4.778-3.748ZM4.496 18c-.074 0-.223 0-.298-.075-.299-.15-.448-.375-.448-.675V6.756c0-.3.15-.524.448-.674.224-.15.523-.075.747.075l6.719 5.247c.15.15.299.374.299.6 0 .224-.075.45-.299.599l-6.72 5.247c-.149.075-.298.15-.447.15Zm.747-9.745v7.496l4.778-3.748-4.778-3.748Z"/></g><defs><clipPath id="a"><path fill="#fff" d="M3 3h18v18H3z"/></clipPath></defs></svg>