<svg xmlns="http://www.w3.org/2000/svg" width="24" height="24" viewBox="0 0 24 24" fill="none">
    <path d="M12.9457 20C12.8462 20 12.6471 20 12.5475 19.9001C12.1493 19.7002 11.9502 19.4003 11.9502 19.0006V5.00845C11.9502 4.60867 12.1493 4.30884 12.5475 4.10896C12.8462 3.90907 13.3439 4.00901 13.6425 4.2089L22.6018 11.205C22.8009 11.4048 23 11.7047 23 12.0045C23 12.3043 22.9005 12.6042 22.6018 12.8041L13.6425 19.8001C13.3439 19.9001 13.1448 20 12.9457 20ZM13.9412 7.00732V17.0017L20.3122 12.0045L13.9412 7.00732ZM1.99548 20C1.89593 20 1.69683 20 1.59729 19.9001C1.1991 19.7002 1 19.4003 1 19.0006V5.00845C1 4.60867 1.1991 4.30884 1.59729 4.10896C1.89593 3.90907 2.29412 4.00901 2.59276 4.2089L11.552 11.205C11.7511 11.4048 11.9502 11.7047 11.9502 12.0045C11.9502 12.3043 11.8507 12.6042 11.552 12.8041L2.59276 19.8001C2.39367 19.9001 2.19457 20 1.99548 20ZM2.99095 7.00732V17.0017L9.36199 12.0045L2.99095 7.00732Z" fill="#231F20"/>
</svg>