<svg width="18" height="18" viewBox="0 0 18 18" fill="none" xmlns="http://www.w3.org/2000/svg">
<path fill-rule="evenodd" clip-rule="evenodd" d="M7.50001 5.28735C7.78996 5.28735 8.02515 5.52255 8.02515 5.8125V6.22485H8.20313C9.37718 6.22485 10.3689 7.11251 10.3689 8.15625C10.3689 8.55921 10.2511 8.98212 9.97486 9.33398C10.1162 9.42365 10.2438 9.52992 10.3535 9.65332C10.6837 10.0249 10.8377 10.5054 10.8377 10.9688C10.8377 11.4911 10.5817 11.9695 10.2444 12.3069C9.90704 12.6442 9.42856 12.9001 8.90626 12.9001C8.73831 12.9001 8.41825 12.9001 8.02515 12.9001V13.3125C8.02515 13.6024 7.78996 13.8376 7.50001 13.8376C7.21006 13.8376 6.97486 13.6024 6.97486 13.3125V12.9001H6.15015V13.3125C6.15015 13.6024 5.91496 13.8376 5.62501 13.8376C5.33506 13.8376 5.09986 13.6024 5.09986 13.3125V12.9001H4.68751C4.39756 12.9001 4.16236 12.6649 4.16236 12.375C4.16236 12.0851 4.39756 11.8499 4.68751 11.8499H5.09986V7.27515H4.68751C4.39756 7.27514 4.16236 7.03995 4.16236 6.75C4.16236 6.46005 4.39756 6.22486 4.68751 6.22485H5.09986V5.8125C5.09986 5.52255 5.33506 5.28736 5.62501 5.28735C5.91496 5.28735 6.15015 5.52255 6.15015 5.8125V6.22485H6.97486V5.8125C6.97486 5.52255 7.21006 5.28736 7.50001 5.28735ZM6.15015 11.8499H8.90626C9.08707 11.8499 9.31173 11.7542 9.50171 11.5642C9.6917 11.3742 9.78736 11.1496 9.78736 10.9688C9.78736 10.729 9.70683 10.5064 9.56837 10.3506C9.43848 10.2046 9.23241 10.0876 8.90626 10.0876H6.15015V11.8499ZM6.15015 9.03735H8.20313C8.68135 9.03735 8.94659 8.89667 9.09156 8.75171C9.24054 8.60272 9.31861 8.39334 9.31861 8.15625L9.31421 8.08667C9.26615 7.73096 8.86033 7.27515 8.20313 7.27515H6.15015V9.03735Z" fill="#231F20"/>
<path fill-rule="evenodd" clip-rule="evenodd" d="M12.75 1.49707C12.8816 1.49707 13.011 1.5316 13.125 1.59741C13.2395 1.66349 13.3345 1.75895 13.4004 1.87354C13.4662 1.98806 13.5005 2.11793 13.5 2.25V9H15.75C15.9489 9 16.1396 9.07908 16.2803 9.21973C16.4209 9.36038 16.5 9.55109 16.5 9.75V14.25C16.5 14.8467 16.2628 15.4189 15.8408 15.8408C15.4189 16.2628 14.8467 16.5 14.25 16.5H3.75001C3.15327 16.5 2.58114 16.2628 2.15919 15.8408C1.73723 15.4189 1.50001 14.8467 1.50001 14.25V2.25C1.49948 2.11793 1.53385 1.98806 1.59962 1.87354C1.66547 1.75895 1.76055 1.66349 1.87501 1.59741C1.98901 1.5316 2.11837 1.49707 2.25001 1.49707C2.38164 1.49707 2.511 1.5316 2.62501 1.59741L4.87501 2.88721L7.12501 1.59741C7.23901 1.5316 7.36837 1.49707 7.50001 1.49707C7.63164 1.49707 7.761 1.5316 7.87501 1.59741L10.125 2.88721L12.375 1.59741C12.489 1.5316 12.6184 1.49707 12.75 1.49707ZM5.25001 4.40259C5.13426 4.46303 5.00558 4.49487 4.87501 4.49487C4.74443 4.49487 4.61575 4.46304 4.50001 4.40259L3.00001 3.54785V14.25C3.00001 14.4489 3.07909 14.6396 3.21973 14.7803C3.36038 14.9209 3.5511 15 3.75001 15H12.1348C12.0475 14.7595 12.002 14.5058 12 14.25V3.54785L10.5 4.40259C10.3843 4.46303 10.2556 4.49487 10.125 4.49487C9.99443 4.49487 9.86575 4.46304 9.75001 4.40259L7.50001 3.11279L5.25001 4.40259ZM13.5 10.5V14.25C13.5 14.4489 13.5791 14.6396 13.7197 14.7803C13.8604 14.9209 14.0511 15 14.25 15C14.4489 15 14.6396 14.9209 14.7803 14.7803C14.9209 14.6396 15 14.4489 15 14.25V10.5H13.5Z" fill="#231F20"/>
</svg>
