<svg xmlns="http://www.w3.org/2000/svg" width="24" height="24" viewBox="0 0 24 24" fill="none">
    <path d="M17.6569 6.34316C18.0811 6.76743 18.0811 7.33311 17.6569 7.75738L9.45442 15.9598H16.9497C17.5154 15.9598 17.9397 16.3841 17.9397 16.9498C17.9397 17.5154 17.5154 17.9397 16.9497 17.9397L7.05025 17.9397C6.90883 17.9397 6.76741 17.9397 6.6967 17.869C6.55528 17.869 6.41386 17.7276 6.34315 17.6569C6.27244 17.5862 6.13102 17.4447 6.13101 17.3033C6.0603 17.2326 6.0603 17.0912 6.0603 16.9498L6.0603 7.05027C6.0603 6.48458 6.48457 6.06032 7.05025 6.06032C7.61594 6.06032 8.0402 6.48458 8.0402 7.05027L8.0402 14.5456L16.2426 6.34316C16.6669 5.9189 17.2326 5.9189 17.6569 6.34316Z" fill="#231F20"/>
</svg>