<svg width="24" height="24" viewBox="0 0 24 24" fill="none" xmlns="http://www.w3.org/2000/svg">
<path d="M12 22C9.3 22 6.8 21 4.9 19.1L2 16.3V20C2 20.6 1.6 21 1 21C0.4 21 0 20.6 0 20V14C0 13.7687 0.0906416 13.4758 0.25 13.3164C0.443332 13.1231 0.720811 13 1 13H7C7.6 13 8 13.4 8 14C8 14.6 7.6 15 7 15H3.5L6.3 17.6C7.9 19.2 9.9 20 12 20C14.1 20 16.1 19.2 17.7 17.7C18.5 16.9 19.2 15.8 19.6 14.7C19.8 14.2 20.4 13.9 20.9 14.1C21.4 14.3 21.7 14.9 21.5 15.4C21 16.8 20.2 18.1 19.1 19.1C17.2 21 14.7 22 12 22ZM23 11H17C16.4 11 16 10.6 16 10C16 9.40002 16.4 9.00002 17 9.00002H20.5L17.7 6.40002C16.8 5.50002 15.8 4.90002 14.7 4.50002C12.7 3.80002 10.5 3.90003 8.6 4.80002C6.6 5.70003 5.2 7.30002 4.5 9.30002C4.3 9.80002 3.7 10.1 3.2 9.90002C2.7 9.80002 2.4 9.20002 2.6 8.70002C3.5 6.10002 5.3 4.10002 7.7 3.00002C10.1 1.80002 12.8 1.70002 15.3 2.60002C16.7 3.10002 18 3.90002 19 5.00002L22 7.70002V4.00002C22 3.40002 22.4 3.00002 23 3.00002C23.6 3.00002 24 3.40002 24 4.00002V10C24 10.2313 23.9547 10.5603 23.7953 10.7197C23.6124 10.9026 23.2657 11 23 11Z" fill="black"/>
</svg>
