<svg width="24" height="24" viewBox="0 0 24 24" fill="none" xmlns="http://www.w3.org/2000/svg">
<path d="M0 12C0 5.37258 5.37258 0 12 0V0C18.6274 0 24 5.37258 24 12V12C24 18.6274 18.6274 24 12 24V24C5.37258 24 0 18.6274 0 12V12Z" fill="#F8F8F8"/>
<path d="M7.75736 16.2426C7.43916 15.9244 7.43916 15.5002 7.75736 15.182L10.9393 12L7.75736 8.81801C7.43916 8.49981 7.43916 8.07555 7.75736 7.75735C8.07556 7.43915 8.49982 7.43915 8.81802 7.75735L12 10.9393L15.182 7.75735C15.5002 7.43915 15.9244 7.43915 16.2426 7.75735C16.5608 8.07555 16.5608 8.49981 16.2426 8.81801L13.0607 12L16.2426 15.182C16.5608 15.5002 16.5608 15.9244 16.2426 16.2426C15.9244 16.5608 15.5002 16.5608 15.182 16.2426L12 13.0607L8.81802 16.2426C8.49982 16.5608 8.07556 16.5608 7.75736 16.2426Z" fill="#868385"/>
</svg>
