<svg width="20" height="20" viewBox="0 0 20 20" fill="none" xmlns="http://www.w3.org/2000/svg">
<g id=".Logo/Robosats">
<g id="Vector">
<path d="M12.5997 19.9994C13.0689 19.5303 13.4192 19.0157 13.6505 18.4294C14.177 17.0949 14.1259 15.7989 13.3574 14.5579C13.0701 14.094 12.6574 13.7468 12.2517 13.3921C10.354 11.7325 8.45757 10.0714 6.56088 8.41057C6.55056 8.40154 6.54283 8.38966 6.52358 8.36684C7.04275 8.02134 7.55982 7.67725 8.08908 7.3251C7.81982 7.13683 7.55904 6.95446 7.28638 6.7638C7.61598 6.36275 7.93848 5.97029 8.25972 5.57937C8.63275 5.77545 8.95416 5.73231 9.15845 5.46495C9.33763 5.23049 9.32079 4.89479 9.11888 4.6752C8.92244 4.46162 8.57267 4.41781 8.32473 4.57573C8.03686 4.75913 7.97025 5.06454 8.14047 5.45216C7.50496 5.9077 6.86738 6.36472 6.20934 6.83641C6.47077 7.02432 6.72059 7.2039 6.98299 7.39256C6.72431 7.62995 6.47612 7.85769 6.22467 8.08846C4.3096 6.76159 2.44499 7.03183 0.627197 8.386C0.627197 5.60133 0.627197 2.81178 0.627197 0.00846712C0.67794 0.00619645 0.727003 0.00209815 0.776065 0.00209815C3.52172 0.00179354 6.2674 -0.00382776 9.01303 0.00470111C10.0683 0.00799635 11.1243 0.0572589 12.1538 0.309581C13.6335 0.672224 14.8364 1.44226 15.6669 2.7315C16.0536 3.33187 16.2453 3.99876 16.3151 4.69865C16.4158 5.70761 16.3519 6.70673 16.0669 7.68578C15.7323 8.83538 15.0277 9.73523 14.1156 10.4925C13.6636 10.8677 13.1685 11.1795 12.6423 11.4435C12.6059 11.4617 12.5714 11.4835 12.5261 11.5092C14.7883 14.3379 17.0444 17.1592 19.3157 19.9993C17.069 19.9994 14.8496 19.9994 12.5997 19.9994Z" fill="#231F20"/>
<path d="M3.64859 10.52C4.36886 10.517 4.94925 11.0843 4.9529 11.7949C4.95657 12.5147 4.38119 13.0923 3.65733 13.0952C2.94037 13.0982 2.34244 12.509 2.3472 11.8041C2.35199 11.095 2.93169 10.523 3.64859 10.52Z" fill="#231F20"/>
<path d="M8.21725 16.5719C8.237 15.8511 8.82008 15.2876 9.53178 15.3014C10.2685 15.3158 10.8391 15.9039 10.8184 16.6275C10.7982 17.3323 10.2058 17.8921 9.49647 17.8764C8.7734 17.8606 8.19802 17.2738 8.21725 16.5719Z" fill="#231F20"/>
<path d="M0.632185 14.9941C1.28686 15.567 1.92528 16.1257 2.57497 16.6943C2.4356 16.8499 2.3006 17.0006 2.1572 17.1607C1.99934 17.0226 1.84431 16.8911 1.69435 16.7541C1.60662 16.6739 1.54464 16.6851 1.45856 16.7671C1.17994 17.0323 0.891617 17.2877 0.632185 17.5239C0.632185 16.7292 0.632185 15.8734 0.632185 14.9941Z" fill="#231F20"/>
<path d="M6.34538 20C5.50353 20 4.69063 20 3.84742 20C4.09833 19.7444 4.33036 19.508 4.56819 19.2657C4.38976 19.1076 4.2205 18.9575 4.04313 18.8004C4.18054 18.6464 4.31195 18.4992 4.45362 18.3405C5.08139 18.8912 5.70306 19.4366 6.34538 20Z" fill="#231F20"/>
</g>
</g>
</svg>
