<svg width="28" height="24" viewBox="0 0 28 24" fill="none" xmlns="http://www.w3.org/2000/svg">
<rect width="12" height="12" rx="6" fill="#525152"/>
<path d="M5.324 4.456H3.532V3.4H8.412V4.456H6.62V9H5.324V4.456Z" fill="white"/>
<path fill-rule="evenodd" clip-rule="evenodd" d="M15 2C15 1.44772 15.4477 1 16 1C16.5523 1 17 1.44772 17 2V4C17 4.55228 16.5523 5 16 5C15.4477 5 15 4.55228 15 4V2ZM15 20C15 19.4477 15.4477 19 16 19C16.5523 19 17 19.4477 17 20V22C17 22.5523 16.5523 23 16 23C15.4477 23 15 22.5523 15 22V20ZM22 8C22 7.44772 21.5523 7 21 7L11 7C10.4477 7 10 7.44771 10 8C10 8.55228 10.4477 9 11 9H21C21.5523 9 22 8.55229 22 8ZM21 11C21.5523 11 22 11.4477 22 12C22 12.5523 21.5523 13 21 13H11C10.4477 13 10 12.5523 10 12C10 11.4477 10.4477 11 11 11L21 11ZM22 16C22 15.4477 21.5523 15 21 15L11 15C10.4477 15 10 15.4477 10 16C10 16.5523 10.4477 17 11 17H21C21.5523 17 22 16.5523 22 16Z" fill="#231F20"/>
</svg>
