<svg width="24" height="24" viewBox="0 0 24 24" fill="none" xmlns="http://www.w3.org/2000/svg">
<path fill-rule="evenodd" clip-rule="evenodd" d="M11 2C11 1.44772 11.4477 1 12 1C12.5523 1 13 1.44772 13 2V4C13 4.55228 12.5523 5 12 5C11.4477 5 11 4.55228 11 4V2ZM11 20C11 19.4477 11.4477 19 12 19C12.5523 19 13 19.4477 13 20V22C13 22.5523 12.5523 23 12 23C11.4477 23 11 22.5523 11 22V20ZM18 8C18 7.44772 17.5523 7 17 7L7 7C6.44772 7 6 7.44771 6 8C6 8.55228 6.44771 9 7 9H17C17.5523 9 18 8.55229 18 8ZM17 11C17.5523 11 18 11.4477 18 12C18 12.5523 17.5523 13 17 13H7C6.44771 13 6 12.5523 6 12C6 11.4477 6.44772 11 7 11L17 11ZM18 16C18 15.4477 17.5523 15 17 15L7 15C6.44772 15 6 15.4477 6 16C6 16.5523 6.44771 17 7 17H17C17.5523 17 18 16.5523 18 16Z" fill="#231F20"/>
</svg>
