<svg width="18" height="18" viewBox="0 0 18 18" fill="none" xmlns="http://www.w3.org/2000/svg">
<path d="M12.75 15.75L12.75 9.75L5.25 9.75L5.25 15.75M5.25 2.25L5.25 6L11.25 6M14.25 15.75L3.75 15.75C3.35218 15.75 2.97065 15.592 2.68934 15.3107C2.40804 15.0294 2.25 14.6478 2.25 14.25L2.25 3.75C2.25 3.35218 2.40804 2.97064 2.68934 2.68934C2.97065 2.40804 3.35218 2.25 3.75 2.25L12 2.25L15.75 6L15.75 14.25C15.75 14.6478 15.592 15.0294 15.3107 15.3107C15.0294 15.592 14.6478 15.75 14.25 15.75Z" stroke="#454444" stroke-width="1.5" stroke-linecap="round" stroke-linejoin="round"/>
</svg>
