<svg width="24" height="24" viewBox="0 0 24 24" fill="none" xmlns="http://www.w3.org/2000/svg">
<path d="M19 22H16C15.4 22 15 21.6 15 21C15 20.4 15.4 20 16 20H19C19.6 20 20 19.6 20 19V16C20 15.4 20.4 15 21 15C21.6 15 22 15.4 22 16V19C22 20.7 20.7 22 19 22ZM8 22H5C3.3 22 2 20.7 2 19V16C2 15.4 2.4 15 3 15C3.6 15 4 15.4 4 16V19C4 19.6 4.4 20 5 20H8C8.6 20 9 20.4 9 21C9 21.6 8.6 22 8 22ZM21 9C20.4 9 20 8.6 20 8V5C20 4.4 19.6 4 19 4H16C15.4 4 15 3.6 15 3C15 2.4 15.4 2 16 2H19C20.7 2 22 3.3 22 5V8C22 8.6 21.6 9 21 9ZM3 9C2.4 9 2 8.6 2 8V5C2 3.3 3.3 2 5 2H8C8.6 2 9 2.4 9 3C9 3.6 8.6 4 8 4H5C4.4 4 4 4.4 4 5V8C4 8.6 3.6 9 3 9Z" fill="#231F20"/>
<path d="M10.2857 6H6.85714C6.62981 6 6.4118 6.09031 6.25105 6.25105C6.09031 6.4118 6 6.62981 6 6.85714V10.2857C6 10.513 6.09031 10.7311 6.25105 10.8918C6.4118 11.0526 6.62981 11.1429 6.85714 11.1429H10.2857C10.513 11.1429 10.7311 11.0526 10.8918 10.8918C11.0526 10.7311 11.1429 10.513 11.1429 10.2857V6.85714C11.1429 6.62981 11.0526 6.4118 10.8918 6.25105C10.7311 6.09031 10.513 6 10.2857 6ZM9.42857 9.42857H7.71429V7.71429H9.42857V9.42857ZM13.7143 11.1429H17.1429C17.3702 11.1429 17.5882 11.0526 17.7489 10.8918C17.9097 10.7311 18 10.513 18 10.2857V6.85714C18 6.62981 17.9097 6.4118 17.7489 6.25105C17.5882 6.09031 17.3702 6 17.1429 6H13.7143C13.487 6 13.2689 6.09031 13.1082 6.25105C12.9474 6.4118 12.8571 6.62981 12.8571 6.85714V10.2857C12.8571 10.513 12.9474 10.7311 13.1082 10.8918C13.2689 11.0526 13.487 11.1429 13.7143 11.1429ZM14.5714 7.71429H16.2857V9.42857H14.5714V7.71429ZM10.2857 12.8571H6.85714C6.62981 12.8571 6.4118 12.9474 6.25105 13.1082C6.09031 13.2689 6 13.487 6 13.7143V17.1429C6 17.3702 6.09031 17.5882 6.25105 17.7489C6.4118 17.9097 6.62981 18 6.85714 18H10.2857C10.513 18 10.7311 17.9097 10.8918 17.7489C11.0526 17.5882 11.1429 17.3702 11.1429 17.1429V13.7143C11.1429 13.487 11.0526 13.2689 10.8918 13.1082C10.7311 12.9474 10.513 12.8571 10.2857 12.8571ZM9.42857 16.2857H7.71429V14.5714H9.42857V16.2857ZM13.7143 15.4286C13.9416 15.4286 14.1596 15.3383 14.3204 15.1775C14.4811 15.0168 14.5714 14.7988 14.5714 14.5714C14.7988 14.5714 15.0168 14.4811 15.1775 14.3204C15.3383 14.1596 15.4286 13.9416 15.4286 13.7143C15.4286 13.487 15.3383 13.2689 15.1775 13.1082C15.0168 12.9474 14.7988 12.8571 14.5714 12.8571H13.7143C13.487 12.8571 13.2689 12.9474 13.1082 13.1082C12.9474 13.2689 12.8571 13.487 12.8571 13.7143V14.5714C12.8571 14.7988 12.9474 15.0168 13.1082 15.1775C13.2689 15.3383 13.487 15.4286 13.7143 15.4286ZM17.1429 12.8571C16.9155 12.8571 16.6975 12.9474 16.5368 13.1082C16.376 13.2689 16.2857 13.487 16.2857 13.7143V16.2857C16.0584 16.2857 15.8404 16.376 15.6796 16.5368C15.5189 16.6975 15.4286 16.9155 15.4286 17.1429C15.4286 17.3702 15.5189 17.5882 15.6796 17.7489C15.8404 17.9097 16.0584 18 16.2857 18H17.1429C17.3702 18 17.5882 17.9097 17.7489 17.7489C17.9097 17.5882 18 17.3702 18 17.1429V13.7143C18 13.487 17.9097 13.2689 17.7489 13.1082C17.5882 12.9474 17.3702 12.8571 17.1429 12.8571ZM13.7143 16.2857C13.5448 16.2857 13.379 16.336 13.2381 16.4302C13.0971 16.5244 12.9873 16.6582 12.9224 16.8148C12.8575 16.9715 12.8405 17.1438 12.8736 17.3101C12.9067 17.4763 12.9883 17.6291 13.1082 17.7489C13.2281 17.8688 13.3808 17.9505 13.5471 17.9835C13.7133 18.0166 13.8857 17.9996 14.0423 17.9348C14.1989 17.8699 14.3328 17.76 14.427 17.6191C14.5212 17.4781 14.5714 17.3124 14.5714 17.1429C14.5714 16.9155 14.4811 16.6975 14.3204 16.5368C14.1596 16.376 13.9416 16.2857 13.7143 16.2857Z" fill="#231F20"/>
</svg>
