<svg width="18" height="18" viewBox="0 0 18 18" fill="none" xmlns="http://www.w3.org/2000/svg">
<g clip-path="url(#clip0_20758_236248)">
<path fill-rule="evenodd" clip-rule="evenodd" d="M4.33044 17.7517L12.999 17.7517C14.7022 17.7517 16.0829 16.371 16.0829 14.6678L16.0829 10.9319L16.7497 10.0984L16.7497 3.33386C16.7497 1.63069 15.369 0.250002 13.6658 0.250002L4.33044 0.250002C2.62727 0.250002 1.24658 1.6307 1.24658 3.33386L1.24658 14.6678C1.24658 16.371 2.62728 17.7517 4.33044 17.7517ZM12.999 16.2517L4.33044 16.2517C3.4557 16.2517 2.74658 15.5425 2.74658 14.6678L2.74659 3.33386C2.74659 2.45912 3.4557 1.75 4.33044 1.75L13.6658 1.75C14.5406 1.75 15.2497 2.45912 15.2497 3.33386L15.2497 6.25136L14.3326 6.25136L14.3326 7.75136L15.2497 7.75136L15.2497 9.57225L14.5829 10.4058L14.5829 14.6678C14.5829 15.5425 13.8737 16.2517 12.999 16.2517ZM13.4157 12.3341C13.4157 11.9199 13.0799 11.5841 12.6657 11.5841C12.2515 11.5841 11.9157 11.9199 11.9157 12.3341L11.9157 14.3346C11.9157 14.7488 12.2515 15.0846 12.6657 15.0846C13.0799 15.0846 13.4157 14.7488 13.4157 14.3346L13.4157 12.3341ZM5.4139 12.3341C5.4139 11.9199 5.07812 11.5841 4.6639 11.5841C4.24969 11.5841 3.91391 11.9199 3.91391 12.3341L3.9139 14.3346C3.9139 14.7488 4.24969 15.0846 4.6639 15.0846C5.07812 15.0846 5.4139 14.7488 5.4139 14.3346L5.4139 12.3341ZM8.08117 12.3341C8.08117 11.9199 7.74539 11.5841 7.33117 11.5841C6.91696 11.5841 6.58117 11.9199 6.58117 12.3341L6.58117 14.3346C6.58117 14.7488 6.91696 15.0846 7.33117 15.0846C7.74539 15.0846 8.08117 14.7488 8.08117 14.3346L8.08117 12.3341ZM10.7484 12.3341C10.7484 11.9199 10.4127 11.5841 9.99844 11.5841C9.58423 11.5841 9.24844 11.9199 9.24844 12.3341L9.24844 14.3346C9.24844 14.7488 9.58423 15.0846 9.99844 15.0846C10.4127 15.0846 10.7484 14.7488 10.7484 14.3346L10.7484 12.3341Z" fill="#009DB9"/>
</g>
<defs>
<clipPath id="clip0_20758_236248">
<rect width="18" height="18" fill="white"/>
</clipPath>
</defs>
</svg>
