<svg width="24" height="24" viewBox="0 0 24 24" fill="none" xmlns="http://www.w3.org/2000/svg">
<path d="M21 22C20.7 22 20.5 21.9 20.3 21.7L16.6 18C15.1 19.2 13.1 20 11 20C6 20 2 16 2 11C2 6 6 2 11 2C16 2 20 6 20 11C20 13.1 19.3 15.1 18 16.6L21.7 20.3C22.1 20.7 22.1 21.3 21.7 21.7C21.5 21.9 21.3 22 21 22ZM11 4C7.1 4 4 7.1 4 11C4 14.9 7.1 18 11 18C12.9 18 14.6 17.2 15.9 16C15.9 16 15.9 15.9 16 15.9C16.1 15.9 16 15.9 16.1 15.8C17.3 14.5 18.1 12.8 18.1 10.9C18 7.1 14.9 4 11 4Z" fill="#231F20"/>
</svg>
