<svg xmlns="http://www.w3.org/2000/svg" width="24" height="24" viewBox="0 0 24 24" fill="none">
    <path d="M6.34313 17.6569C5.91887 17.2326 5.91887 16.6669 6.34313 16.2426L14.5456 8.0402L7.05024 8.0402C6.48455 8.0402 6.06029 7.61594 6.06029 7.05025C6.06029 6.48457 6.48455 6.0603 7.05024 6.0603L16.9497 6.0603C17.0912 6.0603 17.2326 6.0603 17.3033 6.13101C17.4447 6.13101 17.5861 6.27243 17.6568 6.34315C17.7276 6.41386 17.869 6.55528 17.869 6.6967C17.9397 6.76741 17.9397 6.90883 17.9397 7.05025V16.9497C17.9397 17.5154 17.5154 17.9397 16.9497 17.9397C16.384 17.9397 15.9598 17.5154 15.9598 16.9497V9.45442L7.75734 17.6569C7.33308 18.0811 6.7674 18.0811 6.34313 17.6569Z" fill="#231F20"/>
</svg>