<svg width="24" height="24" viewBox="0 0 24 24" fill="none" xmlns="http://www.w3.org/2000/svg">
<path d="M10.875 11.793V10.3333C10.875 10.0279 10.9935 9.73504 11.2045 9.51909C11.4155 9.30314 11.7016 9.18182 12 9.18182C12.2984 9.18182 12.5845 9.30314 12.7955 9.51909C13.0065 9.73504 13.125 10.0279 13.125 10.3333V11.793C13.7975 12.1912 14.25 12.9354 14.25 13.7879C14.25 15.0598 13.2426 16.0909 12 16.0909C10.7574 16.0909 9.75 15.0598 9.75 13.7879C9.75 12.9354 10.2025 12.1912 10.875 11.793Z" fill="#231F20"/>
<path fill-rule="evenodd" clip-rule="evenodd" d="M21 13.7879C21 18.8756 16.9706 23 12 23C7.02944 23 3 18.8756 3 13.7879C3 11.5306 3.79317 9.46295 5.1098 7.861L3.34427 6.05385C3.12384 5.82823 3 5.52221 3 5.20312C3 4.88403 3.12384 4.57801 3.34427 4.35239C3.5647 4.12676 3.86368 4 4.17542 4C4.48716 4 4.78613 4.12676 5.00656 4.35239L6.84585 6.23502C8.30577 5.1893 10.0829 4.57576 12 4.57576C13.9171 4.57576 15.6942 5.1893 17.1541 6.23502L18.9934 4.35239C19.2139 4.12676 19.5128 4 19.8246 4C20.1363 4 20.4353 4.12676 20.6557 4.35239C20.8762 4.57801 21 4.88403 21 5.20312C21 5.52221 20.8762 5.82823 20.6557 6.05385L18.8902 7.861C20.2068 9.46295 21 11.5306 21 13.7879ZM19 13.7879C19 17.745 15.866 20.9529 12 20.9529C8.13404 20.9529 5.00003 17.745 5.00003 13.7879C5.00003 9.8308 8.13404 6.62293 12 6.62293C15.866 6.62293 19 9.8308 19 13.7879Z" fill="#231F20"/>
<path d="M9.33333 3H14.6667C15.0203 3 15.3594 2.89464 15.6095 2.70711C15.8595 2.51957 16 2.26522 16 2C16 1.73478 15.8595 1.48043 15.6095 1.29289C15.3594 1.10536 15.0203 1 14.6667 1H9.33333C8.97971 1 8.64057 1.10536 8.39052 1.29289C8.14048 1.48043 8 1.73478 8 2C8 2.26522 8.14048 2.51957 8.39052 2.70711C8.64057 2.89464 8.97971 3 9.33333 3Z" fill="#231F20"/>
</svg>
