<svg width="18" height="18" viewBox="0 0 18 18" fill="none" xmlns="http://www.w3.org/2000/svg">
<path d="M8.15625 8.84472L8.15625 7.75C8.15625 7.52095 8.24515 7.30128 8.40338 7.13932C8.56161 6.97736 8.77623 6.88636 9 6.88636C9.22378 6.88636 9.43839 6.97736 9.59662 7.13932C9.75486 7.30128 9.84375 7.52095 9.84375 7.75L9.84375 8.84472C10.3481 9.14337 10.6875 9.70158 10.6875 10.3409C10.6875 11.2949 9.93198 12.0682 9 12.0682C8.06802 12.0682 7.3125 11.2949 7.3125 10.3409C7.3125 9.70158 7.65186 9.14337 8.15625 8.84472Z" fill="white"/>
<path fill-rule="evenodd" clip-rule="evenodd" d="M15.75 10.3409C15.75 14.1567 12.7279 17.25 9 17.25C5.27208 17.25 2.25 14.1567 2.25 10.3409C2.25 8.64795 2.84488 7.09722 3.83235 5.89575L2.50821 4.54039C2.34288 4.37117 2.25 4.14166 2.25 3.90234C2.25 3.66302 2.34288 3.43351 2.50821 3.26429C2.67353 3.09507 2.89776 3 3.13157 3C3.36537 3 3.5896 3.09507 3.75492 3.26429L5.13439 4.67627C6.22933 3.89198 7.56217 3.43182 9 3.43182C10.4378 3.43182 11.7707 3.89198 12.8656 4.67627L14.2451 3.26429C14.4104 3.09507 14.6346 3 14.8684 3C15.1022 3 15.3265 3.09507 15.4918 3.26429C15.6571 3.43351 15.75 3.66303 15.75 3.90234C15.75 4.14166 15.6571 4.37117 15.4918 4.54039L14.1677 5.89575C15.1551 7.09722 15.75 8.64796 15.75 10.3409ZM14.25 10.3409C14.25 13.3088 11.8995 15.7147 9.00002 15.7147C6.10053 15.7147 3.75002 13.3088 3.75002 10.3409C3.75002 7.3731 6.10053 4.96719 9.00002 4.9672C11.8995 4.9672 14.25 7.3731 14.25 10.3409Z" fill="white"/>
<path d="M7 2.25L11 2.25C11.2652 2.25 11.5196 2.17098 11.7071 2.03033C11.8946 1.88968 12 1.69891 12 1.5C12 1.30109 11.8946 1.11032 11.7071 0.969671C11.5196 0.829019 11.2652 0.750002 11 0.750002L7 0.750001C6.73479 0.750001 6.48043 0.829018 6.2929 0.969671C6.10536 1.11032 6 1.30109 6 1.5C6 1.69891 6.10536 1.88968 6.2929 2.03033C6.48043 2.17098 6.73479 2.25 7 2.25Z" fill="white"/>
</svg>
