<svg width="18" height="18" viewBox="0 0 18 18" fill="none" xmlns="http://www.w3.org/2000/svg">
<path d="M9 1.5C13.1421 1.5 16.5 4.85786 16.5 9C16.5 13.1421 13.1421 16.5 9 16.5C4.85786 16.5 1.5 13.1421 1.5 9C1.5 4.85786 4.85786 1.5 9 1.5ZM9.27051 3.79004C6.9505 3.7902 5.36719 4.9991 5.36719 7.02051C5.36753 10.1879 9.71582 9.67437 9.71582 11.0498C9.71557 11.5774 9.29127 11.7441 8.65234 11.7441C7.7077 11.744 6.5132 11.3549 5.55469 10.834V13.5645C6.53207 13.9897 7.58648 14.2091 8.65234 14.21C10.9527 14.21 12.5309 13.1096 12.6289 11.167L12.6328 10.9795V10.9766C12.6298 7.5699 8.26463 8.17969 8.26367 6.89551C8.26367 6.44405 8.66644 6.2696 9.26367 6.26953C10.2573 6.29093 11.2328 6.54302 12.1123 7.00586V4.31055C11.1606 3.92849 10.2153 3.79004 9.27051 3.79004Z" fill="black"/>
</svg>
