<svg width="40" height="16" viewBox="0 0 40 16" fill="none" xmlns="http://www.w3.org/2000/svg">
<g clip-path="url(#clip0_19339_7049)">
<path fill-rule="evenodd" clip-rule="evenodd" d="M39.76 9.1392H34.3867C34.5133 10.3744 35.4533 10.7712 36.52 10.7712C37.6133 10.7712 38.4933 10.5344 39.22 10.1632V12.288C38.2978 12.7974 37.2427 13.0417 36.18 12.992C33.5067 12.992 31.6267 11.392 31.6267 8.2048C31.6267 5.5232 33.22 3.392 35.8267 3.392C38.44 3.392 39.8 5.4912 39.8 8.192C39.8 8.448 39.7733 8.9984 39.76 9.1392ZM35.8133 5.5424C35.1267 5.5424 34.3667 6.0096 34.3667 7.1936H37.2C37.2 6.0096 36.4867 5.5424 35.8133 5.5424ZM27.3 12.992C26.34 12.992 25.7533 12.608 25.3667 12.3264L25.3533 15.2896L22.6067 15.8464V3.5648H25.1133L25.1667 4.2176C25.7481 3.68818 26.5187 3.39273 27.32 3.392C29.2533 3.392 31.0667 5.056 31.0667 8.128C31.0667 11.4752 29.2667 12.992 27.3 12.992ZM26.6667 5.728C26.0333 5.728 25.64 5.9456 25.3533 6.2464L25.3667 10.1632C25.6333 10.4448 26.02 10.6624 26.6667 10.6624C27.68 10.6624 28.36 9.6064 28.36 8.1856C28.36 6.8096 27.6667 5.728 26.6667 5.728ZM18.8267 3.5648H21.58V12.8064H18.8267V3.5648ZM18.8267 0.5568L21.58 0V2.1504L18.8267 2.7136V0.5632V0.5568ZM15.9467 6.5408V12.8064H13.2V3.5648H15.6667L15.7467 4.3456C16.4133 3.2128 17.7933 3.4432 18.16 3.5648V5.9904C17.8133 5.8816 16.6333 5.7152 15.9467 6.5408ZM10.2467 9.5616C10.2467 11.1168 11.98 10.6368 12.3267 10.496V12.6464C11.96 12.8384 11.3 12.992 10.4 12.992C10.0249 13.0025 9.65148 12.9396 9.30248 12.8072C8.95348 12.6748 8.63619 12.4757 8.3699 12.2218C8.10362 11.968 7.89391 11.6648 7.75353 11.3307C7.61315 10.9966 7.54503 10.6386 7.55333 10.2784L7.56 1.8496L10.24 1.2992V3.5648H12.3333V5.824H10.2467V9.568V9.5616ZM6.97333 10.0096C6.97333 11.9104 5.43333 12.992 3.15333 12.992C2.13021 12.9913 1.11817 12.7887 0.18 12.3968V9.8816C1.1 10.3616 2.24667 10.72 3.15333 10.72C3.76667 10.72 4.17333 10.5664 4.17333 10.08C4.17333 8.8128 0 9.2864 0 6.368C0 4.5056 1.52 3.392 3.74667 3.392C4.65333 3.392 5.56 3.52 6.47333 3.872V6.3552C5.6293 5.92876 4.69357 5.69651 3.74 5.6768C3.16667 5.6768 2.78 5.8368 2.78 6.2528C2.78 7.4368 6.97333 6.8736 6.97333 10.016V10.0096Z" fill="#231F20"/>
</g>
<defs>
<clipPath id="clip0_19339_7049">
<rect width="40" height="16" fill="white"/>
</clipPath>
</defs>
</svg>
