<svg width="24" height="24" viewBox="0 0 24 24" fill="none" xmlns="http://www.w3.org/2000/svg">
<path d="M12.4 22.6C11.6 22.6 10.9 22.3 10.3 21.7L1.70002 13.1C1.50002 12.9 1.40002 12.7 1.40002 12.4V2.40002C1.40002 1.80002 1.80002 1.40002 2.40002 1.40002H12.4C12.7 1.40002 12.9 1.50002 13.1 1.70002L21.7 10.3C22.9 11.5 22.9 13.4 21.7 14.5L14.5 21.7C13.9 22.3 13.2 22.6 12.4 22.6ZM3.40002 12L11.7 20.3C12.1 20.7 12.7 20.7 13.1 20.3L20.3 13.1C20.7 12.7 20.7 12.1 20.3 11.7L12 3.40002H3.40002V12ZM7.40002 8.40002C6.90002 8.40002 6.40002 8.00002 6.40002 7.40002C6.40002 6.80002 6.80002 6.40002 7.40002 6.40002C8.00002 6.40002 8.40002 6.80002 8.40002 7.40002C8.40002 8.00002 8.00002 8.40002 7.40002 8.40002Z" fill="#231F20"/>
</svg>
