<svg width="24" height="24" viewBox="0 0 24 24" fill="none" xmlns="http://www.w3.org/2000/svg">
<path d="M5.1 22C4.3 22 3.5 21.7 2.9 21.1C2.3 20.5 2 19.7 2 18.9C2 18.1 2.3 17.3 2.9 16.7L9.3 10.3C8.2 6.89998 9.8 3.19998 13.1 1.69998C14.9 0.899976 17 0.899976 18.9 1.69998C19.2 1.79998 19.4 2.09998 19.5 2.39998C19.6 2.69998 19.5 3.09998 19.2 3.29998L15.4 6.99998L17 8.59998L20.8 4.79998C21 4.59998 21.4 4.49998 21.7 4.49998C22 4.59998 22.3 4.79998 22.4 5.09998C23.2 6.79998 23.2 8.69998 22.6 10.5C21.9 12.3 20.6 13.6 18.9 14.4C17.3 15.1 15.5 15.2 13.8 14.7L7.4 21.1C6.7 21.7 5.9 22 5.1 22ZM16 2.99998C15.3 2.99998 14.6 3.09998 13.9 3.39998C11.4 4.49998 10.3 7.49998 11.4 9.99998C11.6 10.4 11.5 10.8 11.2 11.1L4.3 18C4.1 18.3 4 18.6 4 18.9C4 19.2 4.1 19.5 4.3 19.7C4.7 20.1 5.4 20.1 5.9 19.7L12.8 12.8C13.1 12.5 13.5 12.4 13.9 12.6C15.2 13.2 16.7 13.2 18 12.6C19.2 12 20.1 11.1 20.6 9.79998C21 8.99998 21.1 8.19998 21 7.39998L18.4 9.99998C17.6 10.8 16.4 10.8 15.6 9.99998L14 8.39998C13.2 7.59998 13.2 6.39998 14 5.59998L16.6 2.99998H16Z" fill="#231F20"/>
</svg>
