<svg width="24" height="24" viewBox="0 0 24 24" fill="none" xmlns="http://www.w3.org/2000/svg">
<path d="M21 7.5C21 8.04 20.64 8.4 20.1 8.4L6.06 8.4L8.13 10.47C8.49 10.83 8.49 11.37 8.13 11.73C7.77 12.09 7.23 12.09 6.87 11.73L3.27 8.13C3.18 8.04 3.09 7.95 3.09 7.86C3 7.77 3 7.59 3 7.5C3 7.41 3 7.23 3.09 7.14C3.09 7.05 3.18 6.96 3.27 6.87L6.87 3.27C7.23 2.91 7.77 2.91 8.13 3.27C8.49 3.63 8.49 4.17 8.13 4.53L6.06 6.6L20.1 6.6C20.64 6.6 21 6.96 21 7.5Z" fill="#231F20"/>
<path d="M3 16.5C3 15.96 3.36 15.6 3.9 15.6L17.94 15.6L15.87 13.53C15.51 13.17 15.51 12.63 15.87 12.27C16.23 11.91 16.77 11.91 17.13 12.27L20.73 15.87C20.82 15.96 20.91 16.05 20.91 16.14C21 16.23 21 16.41 21 16.5C21 16.59 21 16.77 20.91 16.86C20.91 16.95 20.82 17.04 20.73 17.13L17.13 20.73C16.77 21.09 16.23 21.09 15.87 20.73C15.51 20.37 15.51 19.83 15.87 19.47L17.94 17.4H3.9C3.36 17.4 3 17.04 3 16.5Z" fill="#231F20"/>
</svg>
