<svg width="16" height="16" viewBox="0 0 16 16" fill="none" xmlns="http://www.w3.org/2000/svg">
<g id="Status" clip-path="url(#clip0_7465_62040)">
<path id="Vector" d="M8.00008 15.3333C3.93341 15.3333 0.666748 12.0666 0.666748 7.99996C0.666748 3.93329 3.93341 0.666626 8.00008 0.666626C12.0667 0.666626 15.3334 3.93329 15.3334 7.99996C15.3334 12.0666 12.0667 15.3333 8.00008 15.3333ZM8.00008 1.99996C4.66675 1.99996 2.00008 4.66663 2.00008 7.99996C2.00008 11.3333 4.66675 14 8.00008 14C11.3334 14 14.0001 11.3333 14.0001 7.99996C14.0001 4.66663 11.3334 1.99996 8.00008 1.99996ZM8.00008 12C7.60008 12 7.33341 11.7333 7.33341 11.3333C7.33341 10.9333 7.60008 10.6666 8.00008 10.6666C8.40008 10.6666 8.66675 10.9333 8.66675 11.3333C8.66675 11.7333 8.40008 12 8.00008 12ZM7.93341 9.33329C7.66675 9.33329 7.40008 9.13329 7.33341 8.86663C7.20008 8.53329 7.40008 8.13329 7.73341 7.99996C8.13341 7.86663 9.26675 7.33329 9.26675 6.59996C9.26675 5.99996 8.93341 5.53329 8.40008 5.33329C8.06675 5.19996 7.73341 5.26663 7.40008 5.39996C7.06675 5.53329 6.86675 5.79996 6.73341 6.13329C6.60008 6.46663 6.20008 6.66663 5.86675 6.53329C5.46675 6.53329 5.33341 6.13329 5.40008 5.79996C5.86675 4.39996 7.40008 3.66663 8.80008 4.19996C9.86675 4.59996 10.6001 5.59996 10.6001 6.73329C10.6001 8.46663 8.40008 9.26663 8.13341 9.33329H7.93341Z" fill="#868385"/>
</g>
<defs>
<clipPath id="clip0_7465_62040">
<rect width="16" height="16" fill="white"/>
</clipPath>
</defs>
</svg>
