<svg width="24" height="24" viewBox="0 0 24 24" fill="none" xmlns="http://www.w3.org/2000/svg">
<path d="M12 12.9871C11.6956 12.9835 11.3973 13.0734 11.1454 13.2444C11.0624 13.3008 10.9858 13.3651 10.9164 13.4362C10.7753 13.5809 10.6642 13.7533 10.5912 13.944C10.4823 14.2283 10.4631 14.5392 10.5361 14.8348C10.6093 15.1304 10.7711 15.3965 11 15.5972V16.9873C11 17.2526 11.1053 17.507 11.2929 17.6945C11.4804 17.882 11.7348 17.9873 12 17.9873C12.2652 17.9873 12.5196 17.882 12.7071 17.6945C12.8946 17.5069 13 17.2526 13 16.9873V15.5973C13.2289 15.3965 13.3908 15.1304 13.4639 14.8348C13.5369 14.5392 13.5177 14.2283 13.4088 13.944C13.2999 13.6596 13.1064 13.4155 12.8546 13.2444C12.6027 13.0734 12.3045 12.9835 12 12.9871Z" fill="black"/>
<path fill-rule="evenodd" clip-rule="evenodd" d="M9 8.99504L9.03283 6.96511C9.03137 6.3804 9.20617 5.80842 9.53509 5.32161C9.86401 4.83479 10.3322 4.45504 10.8805 4.23045C11.4288 4.00587 12.0324 3.94654 12.6149 4.05999C13.1974 4.17345 13.7327 4.45457 14.1528 4.86777C14.5288 5.24595 14.7977 5.71441 14.9328 6.22661C14.9657 6.35204 15.0233 6.46987 15.1023 6.57338C15.1814 6.67689 15.2804 6.76405 15.3937 6.82989C15.507 6.89572 15.6323 6.93894 15.7626 6.95707C15.8928 6.9752 16.0254 6.9679 16.1528 6.93557C16.2802 6.90324 16.3999 6.84653 16.505 6.76866C16.6101 6.6908 16.6986 6.59331 16.7655 6.48175C16.8324 6.3702 16.8762 6.24678 16.8947 6.11853C16.9131 5.99027 16.9057 5.85971 16.8728 5.73428C16.645 4.88234 16.1932 4.10459 15.5628 3.47939C14.863 2.79245 13.9722 2.3251 13.0028 2.13635C12.0334 1.94759 11.029 2.0459 10.1163 2.41886C9.20361 2.79182 8.42363 3.4227 7.87483 4.23184C7.32604 5.04099 7.03304 5.99211 7.03283 6.96511L7 8.99858C6.20435 8.99858 5.44128 9.31476 4.87866 9.87729C4.31604 10.4399 4 11.203 4 11.9987V18.9991C4 19.7948 4.31604 20.5579 4.87866 21.1205C5.44128 21.6832 6.20435 21.9993 7 21.9993L17 21.9993C17.7957 21.9993 18.5587 21.6832 19.1213 21.1206C19.6839 20.5579 20 19.7948 20 18.9991L20 11.9988C20 11.2031 19.6839 10.44 19.1213 9.87734C18.5587 9.31471 17.7956 8.99862 17 8.99862C14.347 8.99862 11.6938 8.98591 9.04085 8.9949C9.02734 8.99494 9.01363 8.99499 9 8.99504ZM6.29291 19.7063C6.48041 19.8938 6.7348 19.9992 7 19.9992L17 19.9992C17.2652 19.9992 17.5196 19.8938 17.7071 19.7063C17.8946 19.5187 18 19.2644 18 18.9991L18 11.9988C18 11.7335 17.8946 11.4792 17.7071 11.2916C17.5196 11.1041 17.2652 10.9987 17 10.9987L7 10.9987C6.7348 10.9987 6.48041 11.104 6.29291 11.2917C6.10535 11.4792 6 11.7336 6 11.9987V18.9991C6 19.2644 6.10535 19.5188 6.29291 19.7063Z" fill="black"/>
</svg>
