<svg width="24" height="24" viewBox="0 0 24 24" fill="none" xmlns="http://www.w3.org/2000/svg">
<path fill-rule="evenodd" clip-rule="evenodd" d="M18.1231 9.52365C18.5542 9.10259 18.8218 8.51489 18.8218 7.8647C18.8218 6.58405 17.7836 5.54588 16.503 5.54588C15.9257 5.54588 15.3977 5.75682 14.9918 6.10582C14.6903 6.00244 14.3752 5.928 14.0501 5.88579C16.4277 6.19449 18.2641 8.22728 18.2641 10.689C18.2641 12.6068 17.1495 14.2643 15.5328 15.049C15.1232 17.8496 12.7113 20 9.79705 20C6.59543 20 4 17.4046 4 14.203C4 11.1385 6.37772 8.62949 9.3889 8.42005C9.30105 8.42616 9.21374 8.43422 9.12702 8.4442C9.90502 6.95926 11.4308 5.92779 13.2043 5.84996C13.8835 4.74039 15.1068 4 16.503 4C18.6374 4 20.3677 5.73028 20.3677 7.8647C20.3677 9.38133 19.494 10.6939 18.2226 11.3267C18.25 11.118 18.2641 10.9052 18.2641 10.689C18.2641 10.2872 18.2153 9.89692 18.1231 9.52365ZM10.9377 8.51809C13.2823 8.98591 15.1167 10.8679 15.514 13.2371C16.2493 12.6323 16.7182 11.7154 16.7182 10.689C16.7182 8.86762 15.2417 7.39111 13.4203 7.39111C12.4303 7.39111 11.5422 7.82735 10.9377 8.51809ZM14.0482 14.203C14.0482 16.5508 12.1449 18.4541 9.79705 18.4541C7.44919 18.4541 5.54588 16.5508 5.54588 14.203C5.54588 11.8551 7.44919 9.95179 9.79705 9.95179C12.1449 9.95179 14.0482 11.8551 14.0482 14.203Z" fill="#231F20"/>
</svg>
