<svg width="19" height="18" viewBox="0 0 19 18" fill="none" xmlns="http://www.w3.org/2000/svg">
<path d="M12.6136 6.61676C12.6818 6.68499 12.7629 6.73915 12.8523 6.7761C12.9417 6.81306 13.0376 6.83208 13.1344 6.83208C13.2313 6.83208 13.3272 6.81306 13.4166 6.7761C13.506 6.73915 13.5871 6.68499 13.6553 6.61676L16.5897 3.70502C16.7278 3.56795 16.8054 3.38204 16.8054 3.18819C16.8054 2.99434 16.7278 2.80843 16.5897 2.67136C16.4515 2.53428 16.2642 2.45728 16.0688 2.45728C15.8735 2.45728 15.6861 2.53428 15.548 2.67136L13.1344 5.07354L12.1881 4.12723C12.1197 4.05935 12.0385 4.00552 11.9491 3.96878C11.8598 3.93205 11.764 3.91315 11.6673 3.91315C11.4719 3.91315 11.2845 3.99015 11.1464 4.12723C11.078 4.1951 11.0237 4.27567 10.9867 4.36435C10.9497 4.45303 10.9307 4.54807 10.9307 4.64406C10.9307 4.83791 11.0083 5.02382 11.1464 5.16089L12.6136 6.61676ZM16.0688 6.09993C15.8743 6.09993 15.6877 6.17662 15.5501 6.31314C15.4125 6.44965 15.3352 6.6348 15.3352 6.82786L15.3352 13.3793C15.3352 13.5723 15.2579 13.7575 15.1204 13.894C14.9828 14.0305 14.7962 14.1072 14.6016 14.1072L4.33128 14.1072C4.13672 14.1072 3.95013 14.0305 3.81255 13.894C3.67497 13.7575 3.59768 13.5723 3.59768 13.3793L3.59769 6.39838L7.91123 10.6859C8.32296 11.0911 8.87922 11.3187 9.45912 11.3192C10.0536 11.3162 10.6229 11.0808 11.0437 10.6641L12.3055 9.41203C12.4436 9.27496 12.5212 9.08905 12.5212 8.8952C12.5212 8.70135 12.4436 8.51544 12.3055 8.37836C12.1673 8.24129 11.98 8.16428 11.7846 8.16428C11.5893 8.16428 11.4019 8.24129 11.2638 8.37836L9.97998 9.65225C9.84285 9.78563 9.65848 9.86033 9.46646 9.86033C9.27444 9.86033 9.09007 9.78563 8.95294 9.65225L4.63206 5.37199L8.73286 5.37199C8.92742 5.37199 9.11402 5.2953 9.25159 5.15879C9.38917 5.02227 9.46646 4.83712 9.46646 4.64406C9.46646 4.451 9.38917 4.26585 9.25159 4.12933C9.11402 3.99282 8.92743 3.91612 8.73286 3.91612L4.33128 3.91612C3.7476 3.91612 3.18782 4.1462 2.77509 4.55574C2.36236 4.96529 2.13049 5.52075 2.13049 6.09993L2.13049 13.3793C2.13049 13.9585 2.36236 14.5139 2.77509 14.9235C3.18782 15.333 3.7476 15.5631 4.33128 15.5631L14.6016 15.5631C15.1853 15.5631 15.7451 15.333 16.1578 14.9235C16.5706 14.5139 16.8024 13.9585 16.8024 13.3793L16.8024 6.82786C16.8024 6.6348 16.7251 6.44965 16.5876 6.31314C16.45 6.17662 16.2634 6.09993 16.0688 6.09993Z" fill="#009DB9"/>
</svg>
