<svg width="18" height="18" viewBox="0 0 18 18" fill="none" xmlns="http://www.w3.org/2000/svg">
<path fill-rule="evenodd" clip-rule="evenodd" d="M9 1.5C11.2297 1.5 13.0791 3.12184 13.4363 5.25H14.25C14.8467 5.25 15.4189 5.48722 15.8408 5.90918C16.2628 6.33114 16.5 6.90326 16.5 7.5V13.5C16.5 14.0967 16.2628 14.6689 15.8408 15.0908C15.4189 15.5128 14.8467 15.75 14.25 15.75H3.75C3.15326 15.75 2.58114 15.5128 2.15918 15.0908C1.73722 14.6689 1.5 14.0967 1.5 13.5V4.5C1.5 3.90326 1.73722 3.33114 2.15918 2.90918C2.58114 2.48722 3.15326 2.25 3.75 2.25H6.5127C7.22528 1.77641 8.08026 1.5 9 1.5ZM3 13.5C3 13.6989 3.07907 13.8896 3.21973 14.0303C3.36038 14.1709 3.55109 14.25 3.75 14.25H14.25C14.4489 14.25 14.6396 14.1709 14.7803 14.0303C14.9209 13.8896 15 13.6989 15 13.5V7.5C15 7.30109 14.9209 7.11038 14.7803 6.96973C14.6396 6.82907 14.4489 6.75 14.25 6.75H3.75C3.49458 6.75038 3.24095 6.70732 3 6.62256V13.5ZM9 3C7.60212 3 6.42751 3.95608 6.09448 5.25H11.9055C11.5725 3.95608 10.3979 3 9 3ZM3.75 3.75C3.55109 3.75 3.36038 3.82907 3.21973 3.96973C3.07907 4.11038 3 4.30109 3 4.5C3 4.69891 3.07907 4.88962 3.21973 5.03027C3.36038 5.17093 3.55109 5.25 3.75 5.25H4.56372C4.65411 4.71139 4.83984 4.20564 5.10352 3.75H3.75Z" fill="#231F20"/>
</svg>
