<svg width="25" height="24" viewBox="0 0 25 24" fill="none" xmlns="http://www.w3.org/2000/svg">
<path d="M19.5001 7L18.5001 7L18.5001 6C18.5001 5.20435 18.1841 4.44129 17.6214 3.87868C17.0588 3.31607 16.2958 3 15.5001 3L5.50012 3C4.70447 3 3.94141 3.31607 3.3788 3.87868C2.81619 4.44129 2.50012 5.20435 2.50012 6L2.50012 18C2.50012 18.7956 2.81619 19.5587 3.3788 20.1213C3.94141 20.6839 4.70447 21 5.50012 21L19.5001 21C20.2958 21 21.0588 20.6839 21.6214 20.1213C22.184 19.5587 22.5001 18.7957 22.5001 18L22.5001 10C22.5001 9.20435 22.1841 8.44129 21.6214 7.87868C21.0588 7.31607 20.2958 7 19.5001 7ZM5.50012 5L15.5001 5C15.7653 5 16.0197 5.10536 16.2072 5.2929C16.3948 5.48043 16.5001 5.73479 16.5001 6L16.5001 7L5.50012 7C5.2349 7 4.98055 6.89464 4.79301 6.70711C4.60548 6.51957 4.50012 6.26522 4.50012 6C4.50012 5.73478 4.60548 5.48043 4.79302 5.29289C4.98055 5.10536 5.23491 5 5.50012 5ZM20.5001 18C20.5001 18.2652 20.3948 18.5196 20.2072 18.7071C20.0197 18.8946 19.7653 19 19.5001 19L5.50012 19C5.2349 19 4.98055 18.8946 4.79301 18.7071C4.60548 18.5196 4.50012 18.2652 4.50012 18L4.50012 8.83C4.82139 8.94302 5.15955 9.00051 5.50012 9L19.5001 9C19.7653 9 20.0197 9.10536 20.2072 9.2929C20.3948 9.48043 20.5001 9.73479 20.5001 10C20.5001 13.6732 20.5001 16.1907 20.5001 18Z" fill="#009DB9"/>
</svg>
