<svg width="14" height="20" viewBox="0 0 14 20" fill="none" xmlns="http://www.w3.org/2000/svg">
<path d="M14 7C14 5.93913 13.5786 4.92172 12.8284 4.17157C12.0783 3.42143 11.0609 3 10 3V1C10 0.734784 9.89464 0.48043 9.70711 0.292893C9.51957 0.105357 9.26522 0 9 0C8.73478 0 8.48043 0.105357 8.29289 0.292893C8.10536 0.48043 8 0.734784 8 1V3H6V1C6 0.734784 5.89464 0.48043 5.70711 0.292893C5.51957 0.105357 5.26522 0 5 0C4.73478 0 4.48043 0.105357 4.29289 0.292893C4.10536 0.48043 4 0.734784 4 1V3H1C0.734784 3 0.48043 3.10536 0.292893 3.29289C0.105357 3.48043 0 3.73478 0 4C0 4.26522 0.105357 4.51957 0.292893 4.70711C0.48043 4.89464 0.734784 5 1 5H2V15H1C0.734784 15 0.48043 15.1054 0.292893 15.2929C0.105357 15.4804 0 15.7348 0 16C0 16.2652 0.105357 16.5196 0.292893 16.7071C0.48043 16.8946 0.734784 17 1 17H4V19C4 19.2652 4.10536 19.5196 4.29289 19.7071C4.48043 19.8946 4.73478 20 5 20C5.26522 20 5.51957 19.8946 5.70711 19.7071C5.89464 19.5196 6 19.2652 6 19V17H8V19C8 19.2652 8.10536 19.5196 8.29289 19.7071C8.48043 19.8946 8.73478 20 9 20C9.26522 20 9.51957 19.8946 9.70711 19.7071C9.89464 19.5196 10 19.2652 10 19V17C10.8103 16.9948 11.5999 16.7436 12.2643 16.2797C12.9287 15.8159 13.4365 15.1611 13.7205 14.4022C14.0046 13.6433 14.0514 12.8161 13.8549 12.03C13.6584 11.2438 13.2277 10.5359 12.62 10C13.0503 9.627 13.396 9.16642 13.634 8.64905C13.872 8.13169 13.9968 7.56947 14 7ZM10 15H4V11H10C10.5304 11 11.0391 11.2107 11.4142 11.5858C11.7893 11.9609 12 12.4696 12 13C12 13.5304 11.7893 14.0391 11.4142 14.4142C11.0391 14.7893 10.5304 15 10 15ZM10 9H4V5H10C10.5304 5 11.0391 5.21071 11.4142 5.58579C11.7893 5.96086 12 6.46957 12 7C12 7.53043 11.7893 8.03914 11.4142 8.41421C11.0391 8.78929 10.5304 9 10 9Z" fill="#009DB9"/>
</svg>
