<svg width="50" height="67" viewBox="0 0 50 67" fill="none" xmlns="http://www.w3.org/2000/svg">
<path d="M22.0712 35.5264L18.9689 48.1032C22.7984 49.0649 34.61 52.9005 36.3554 45.8057C38.1803 38.4065 25.9006 36.4929 22.0712 35.5264ZM26.3027 18.3623L23.4903 29.769C26.6793 30.5731 36.5099 33.8517 38.1028 27.3984C39.7621 20.6665 29.4918 19.1661 26.3027 18.3623ZM49.2633 27.5007C49.1538 29.4986 48.3872 31.4042 47.0827 32.9214C45.7782 34.4385 44.0089 35.482 42.05 35.8895C43.3375 36.4137 44.5024 37.1988 45.4714 38.1955C46.4404 39.1922 47.1924 40.3788 47.68 41.6805C48.1677 42.9823 48.3804 44.3709 48.3048 45.7589C48.2292 47.147 47.8668 48.5043 47.2406 49.7453C44.1918 58.5566 36.948 59.3005 27.3151 57.4566L24.9771 66.9322L19.3281 65.5084L21.6355 56.1599C20.1713 55.7922 18.6749 55.4016 17.1335 54.9786L14.8181 64.3706L9.17548 62.9468L11.5135 53.4535C10.1939 53.1118 8.85367 52.7488 7.48605 52.4024L0.134827 50.5489L2.93927 44.0091C2.93927 44.0091 7.1015 45.1286 7.04526 45.0458C7.30431 45.1284 7.57719 45.1588 7.84809 45.1352C8.11898 45.1116 8.38248 45.0344 8.62332 44.9082C8.86416 44.7819 9.07753 44.6091 9.25106 44.3998C9.4246 44.1904 9.55484 43.9487 9.63423 43.6887L15.9736 17.9765C16.0549 17.1887 15.8252 16.4004 15.3335 15.7796C14.8417 15.1588 14.1268 14.7548 13.3413 14.6537C13.4299 14.5936 9.23807 13.622 9.23807 13.622L10.741 7.51981L18.5315 9.48714L18.5251 9.51666C19.6963 9.81098 20.903 10.091 22.1324 10.3742L24.4477 0.991425L30.0936 2.41523L27.8252 11.614C29.3409 11.9639 30.8662 12.317 32.3513 12.6914L34.6037 3.55275L40.253 4.97661L37.9393 14.3625C45.0715 16.8473 50.2878 20.5721 49.2633 27.5007Z" fill="black"/>
</svg>
