<svg width="16" height="21" viewBox="0 0 16 21" fill="none" xmlns="http://www.w3.org/2000/svg">
<path d="M15.8303 7.66807C15.963 5.53746 14.2165 4.54778 11.8997 3.9863L12.3726 1.07519L10.5523 0.795745L10.0914 3.63034C9.61341 3.55694 9.12302 3.49035 8.63575 3.42571L9.09755 0.572571L7.27892 0.292969L6.80806 3.20279L3.13802 2.64418L2.8315 4.53709C2.8315 4.53709 4.1795 4.71877 4.15323 4.73949C4.89025 4.85312 5.06307 5.30653 5.07431 5.67694L3.78096 13.6518C3.71196 13.8727 3.51723 14.2117 3.00211 14.1326C3.02225 14.1564 1.67914 13.9274 1.67914 13.9274L0.974609 15.991L4.64086 16.5656L4.16411 19.5106L5.98182 19.7902L6.45461 16.8768C6.95307 16.9635 7.43442 17.0417 7.90562 17.1137L7.43462 20.0136L9.25464 20.293L9.73191 17.3536C12.8193 17.6528 15.0827 17.2316 15.8011 14.4766C16.381 12.2571 15.4563 11.0845 13.7852 10.4112C14.9251 10.0491 15.7342 9.22904 15.8289 7.66931L15.8303 7.66807ZM12.2622 13.573C11.9049 15.7735 8.07772 14.9288 6.84353 14.74L7.47653 10.8388C8.71018 11.0287 12.6327 11.2783 12.2622 13.573ZM12.3098 7.93895C11.9847 9.94159 8.79552 9.21151 7.76764 9.05335L8.34009 5.51436C9.36838 5.67278 12.6474 5.85082 12.3084 7.93895" fill="#F8F8F8"/>
</svg>
