<svg width="48" height="48" viewBox="0 0 48 48" fill="none" xmlns="http://www.w3.org/2000/svg">
<path fill-rule="evenodd" clip-rule="evenodd" d="M24 44C35.0457 44 44 35.0457 44 24C44 12.9543 35.0457 4 24 4C12.9543 4 4 12.9543 4 24C4 35.0457 12.9543 44 24 44ZM20.7272 19C20.7272 17.3431 22.1925 16 23.9999 16C25.8074 16 27.2727 17.3431 27.2727 19C27.2727 20.6569 25.8074 22 23.9999 22C22.1925 22 20.7272 20.6569 20.7272 19ZM23.9999 14C20.9875 14 18.5454 16.2386 18.5454 19C18.5454 21.7614 20.9875 24 23.9999 24C27.0124 24 29.4545 21.7614 29.4545 19C29.4545 16.2386 27.0124 14 23.9999 14ZM30.5038 17.136C30.3604 17.1712 30.2841 17.3105 30.3225 17.4419C30.4679 17.9388 30.5454 18.4611 30.5454 19C30.5454 19.117 30.6857 19.1955 30.8037 19.1508C31.0602 19.0536 31.3414 19 31.6363 19C32.8413 19 33.8181 19.8954 33.8181 21C33.8181 22.1046 32.8413 23 31.6363 23C30.9796 23 30.3906 22.734 29.9907 22.3132C29.849 22.1642 29.5675 22.1626 29.4478 22.327C29.1668 22.7129 28.8383 23.0672 28.4699 23.383C28.3615 23.476 28.3462 23.6311 28.4475 23.7305C29.2439 24.5117 30.3779 25 31.6363 25C34.0462 25 35.9999 23.2091 35.9999 21C35.9999 18.7909 34.0462 17 31.6363 17C31.2446 17 30.865 17.0473 30.5038 17.136ZM17.4961 17.136C17.6395 17.1713 17.7158 17.3105 17.6774 17.4419C17.532 17.9388 17.4545 18.4611 17.4545 19C17.4545 19.117 17.3142 19.1955 17.1962 19.1508C16.9397 19.0536 16.6585 19 16.3636 19C15.1586 19 14.1818 19.8954 14.1818 21C14.1818 22.1046 15.1586 23 16.3636 23C17.0203 23 17.6093 22.734 18.0092 22.3132C18.1508 22.1642 18.4324 22.1626 18.5521 22.327C18.8331 22.7129 19.1616 23.0672 19.53 23.383C19.6384 23.476 19.6537 23.6311 19.5524 23.7305C18.756 24.5117 17.622 25 16.3636 25C13.9537 25 12 23.2091 12 21C12 18.7909 13.9537 17 16.3636 17C16.7553 17 17.1349 17.0473 17.4961 17.136ZM22.909 26C21.4624 26 20.075 26.5268 19.0521 27.4645C18.0292 28.4021 17.4545 29.6739 17.4545 31V33C17.4545 33.5523 17.9429 34 18.5454 34C19.1479 34 19.6363 33.5523 19.6363 33V31C19.6363 30.2044 19.9811 29.4413 20.5949 28.8787C21.2086 28.3161 22.0411 28 22.909 28H25.0908C25.9588 28 26.7912 28.3161 27.405 28.8787C28.0188 29.4413 28.3636 30.2044 28.3636 31V33C28.3636 33.5523 28.852 34 29.4545 34C30.0569 34 30.5454 33.5523 30.5454 33V31C30.5454 29.6739 29.9707 28.4021 28.9478 27.4645C27.9249 26.5268 26.5375 26 25.0908 26H22.909ZM30.4437 27.547C30.6566 27.8243 30.988 28.0061 31.3507 28.0727C31.9599 28.1845 32.5082 28.4203 32.9326 28.7445C33.5317 29.2021 33.8182 29.7795 33.8182 30.3333V32C33.8182 32.5523 34.3066 33 34.9091 33C35.5116 33 36 32.5523 36 32V30.3333C36 29.1191 35.367 28.0007 34.3294 27.2081C33.2976 26.4199 31.9343 26 30.5455 26H29.4546C29.1906 26 29.1581 26.2928 29.3583 26.4505C29.4823 26.5483 29.6027 26.6506 29.7191 26.7574C29.9868 27.0027 30.2288 27.2671 30.4437 27.547ZM18.6417 26.4504C18.8418 26.2927 18.8093 26 18.5454 26H17.4545C16.0657 26 14.7024 26.4199 13.6706 27.2081C12.633 28.0007 12 29.1191 12 30.3333V32C12 32.5523 12.4884 33 13.0909 33C13.6934 33 14.1818 32.5523 14.1818 32V30.3333C14.1818 29.7795 14.4683 29.2021 15.0674 28.7445C15.4917 28.4204 16.04 28.1846 16.6492 28.0727C17.0119 28.0061 17.3433 27.8243 17.5561 27.547C17.771 27.2671 18.0131 27.0027 18.2807 26.7574C18.3972 26.6506 18.5176 26.5482 18.6417 26.4504Z" fill="#525152"/>
</svg>
