<svg width="24" height="24" viewBox="0 0 24 24" fill="none" xmlns="http://www.w3.org/2000/svg">
<path fill-rule="evenodd" clip-rule="evenodd" d="M5 4.93325C5 3.89121 5.82314 3 6.89489 3L12.4155 3C13.4872 3 14.3103 3.89122 14.3103 4.93325L14.3103 5.63735L16.1435 5.63735C17.2573 5.63735 18.1146 6.56387 18.1146 7.64947L18.1146 19.8629C18.1146 20.9485 17.2573 21.875 16.1435 21.875L10.2418 21.875C9.1279 21.875 8.27063 20.9485 8.27063 19.8629L8.27063 19.4336L6.89489 19.4336C5.82313 19.4336 5 18.5424 5 17.5004L5 4.93325ZM8.27063 17.852L8.27064 7.64947C8.27064 6.56387 9.1279 5.63735 10.2418 5.63735L12.7288 5.63735L12.7288 4.93325C12.7288 4.71335 12.5633 4.58156 12.4155 4.58156L6.89489 4.58156C6.74708 4.58156 6.58156 4.71335 6.58156 4.93325L6.58156 17.5004C6.58156 17.7203 6.74708 17.852 6.89489 17.852L8.27063 17.852ZM10.2418 7.21891C10.0518 7.21891 9.8522 7.38601 9.8522 7.64947L9.85219 19.8629C9.85219 20.1263 10.0518 20.2934 10.2418 20.2934L16.1435 20.2934C16.3334 20.2934 16.533 20.1263 16.533 19.8629L16.533 7.64947C16.533 7.38601 16.3334 7.21891 16.1435 7.21891L10.2418 7.21891Z" fill="black"/>
</svg>
