<svg xmlns="http://www.w3.org/2000/svg" fill="none" viewBox="0 0 229 201">
  <g filter="url(#a)">
    <path fill="url(#b)" d="M68.657 91.083c-4.5238-.0446-5.4848 2.108-2.7054 5.5521 11.0138 13.7169 27.7342 22.6689 46.6424 22.6689 18.909 0 35.629-8.952 46.643-22.6689 2.779-3.4441 1.803-5.5818-2.706-5.5521-21.983.1039-87.874 0-87.874 0Z"/>
    <path fill="url(#c)" d="M63.3349 81.8182c-2.2471 3.934-4.5534 3.7113-6.1501-.4157-6.3274-16.4338-5.6917-35.4508 3.7699-51.8994C70.4163 13.0544 86.4862 3.00407 103.827.272516c4.362-.682887 5.737 1.232164 3.43 5.136494 0 0-33.0413 57.25859-43.9221 76.40919Z"/>
    <path fill="url(#d)" d="M117.915 5.4097c-2.277-3.91918-.932-5.819381 3.43-5.136493C138.686 2.98991 154.756 13.0551 164.217 29.5037c9.462 16.4487 10.083 35.4657 3.77 51.8995-1.596 4.1419-3.918 4.3645-6.15.4156 0 0-32.864-57.3625-43.922-76.4091Z"/>
    <path fill="url(#e)" fill-opacity=".5" d="M112.609 87.5644H64.3988L112.609 1.91284V87.5644Z" opacity=".5"/>
    <mask id="f" width="120" height="120" x="52" y="0" maskUnits="userSpaceOnUse" style="mask-type:alpha">
      <path fill="#fff" d="M68.4675 90.9592c-4.5238-.0446-5.4848 2.108-2.7054 5.5522C76.7759 110.228 93.4963 119.18 112.405 119.18c18.908 0 35.628-8.952 46.642-22.6686 2.78-3.4442 1.804-5.5819-2.705-5.5522-21.984.1039-87.8745 0-87.8745 0ZM63.1454 81.6946c-2.2471 3.9341-4.5534 3.7114-6.15-.4156-6.3275-16.4338-5.6918-35.4508 3.7698-51.8995C70.2268 12.9308 86.2967 2.88053 103.638.148981c4.361-.682888 5.736 1.232159 3.43 5.136499 0 0-33.0418 57.25862-43.9226 76.40912ZM117.727 5.28617c-2.276-3.91918-.931-5.819386 3.43-5.136498C138.498 2.86638 154.568 12.9315 164.03 29.3802c9.461 16.4487 10.082 35.4657 3.77 51.8995-1.597 4.1419-3.918 4.3645-6.15.4157 0 0-32.865-57.3626-43.923-76.40923Z"/>
    </mask>
    <g mask="url(#f)">
      <g filter="url(#g)" opacity=".25">
        <path fill="#000" d="M154.127 34.9781c8.008 13.9289 13.519 30.1529 13.67 46.1591 6.321-16.4392 5.689-35.4508-3.77-51.8995C154.569 12.789 138.492 2.73558 121.155.0129395 134.885 8.14613 146.12 21.0524 154.127 34.9781Zm-93.3645-5.7393C70.22 12.7901 86.299 2.73662 103.635.0139815 89.9067 8.14673 78.6709 21.053 70.6644 34.9787c-8.0066 13.9257-13.5202 30.1499-13.6698 46.1561-6.3206-16.4398-5.6902-35.4486 3.7679-51.896Zm7.7016 61.5777s65.8979.103 87.8629 0c-13.511 7.29-28.601 11.5245-43.932 11.5245-15.3308 0-30.421-4.2339-43.9309-11.5245Z"/>
      </g>
      <g filter="url(#h)" opacity=".2">
        <path fill="#fff" d="M112.394 107.564c-16.0145 0-32.7627-3.318-46.6428-11.1909C76.7699 110.09 93.4798 119.044 112.395 119.044c18.915 0 35.623-8.954 46.641-22.6709-13.88 7.8729-30.626 11.1909-46.642 11.1909Zm37.23-69.9748c7.665 13.3336 11.56 28.5735 12.028 43.9667 0 0-32.86-57.3562-43.932-76.40917 13.044 8.10617 24.238 19.11197 31.904 32.44247ZM107.071 5.14673S74.0329 62.4028 63.1389 81.5559c.4681-15.3961 4.3621-30.6331 12.0282-43.9667 7.666-13.3305 18.8615-24.3393 31.9039-32.44247Z"/>
      </g>
    </g>
    <g filter="url(#i)">
      <g filter="url(#j)">
        <path fill="#F8F8F8" d="M18.8008 181.31c0 .4.3138.761.7453.761h15.965c.4315 0 .7453-.361.7453-.761v-3.283c0-.401-.3138-.761-.7453-.761H23.9002v-7.007h9.6889c.3922 0 .7453-.32.7453-.761v-3.323c0-.4-.3531-.761-.7453-.761h-9.6889v-6.566h11.6109c.4315 0 .7453-.361.7453-.761v-3.283c0-.401-.3138-.761-.7453-.761h-15.965c-.4315 0-.7453.36-.7453.761v26.506Z"/>
        <path fill="url(#k)" fill-opacity=".12" d="M18.8008 181.31c0 .4.3138.761.7453.761h15.965c.4315 0 .7453-.361.7453-.761v-3.283c0-.401-.3138-.761-.7453-.761H23.9002v-7.007h9.6889c.3922 0 .7453-.32.7453-.761v-3.323c0-.4-.3531-.761-.7453-.761h-9.6889v-6.566h11.6109c.4315 0 .7453-.361.7453-.761v-3.283c0-.401-.3138-.761-.7453-.761h-15.965c-.4315 0-.7453.36-.7453.761v26.506Z"/>
        <path fill="#F8F8F8" d="M57.1597 181.31c0 .4.353.761.7453.761h3.5696c.4315 0 .7453-.361.7453-.761v-17.217h.0392l16.3966 18.378h.9414c.3922 0 .7453-.32.7453-.721v-26.946c0-.401-.3531-.761-.7453-.761h-3.6088c-.4315 0-.7453.36-.7453.761v16.536h-.0392l-16.3181-17.697h-.9807c-.3923 0-.7453.32-.7453.72v26.947Z"/>
        <path fill="url(#l)" fill-opacity=".12" d="M57.1597 181.31c0 .4.353.761.7453.761h3.5696c.4315 0 .7453-.361.7453-.761v-17.217h.0392l16.3966 18.378h.9414c.3922 0 .7453-.32.7453-.721v-26.946c0-.401-.3531-.761-.7453-.761h-3.6088c-.4315 0-.7453.36-.7453.761v16.536h-.0392l-16.3181-17.697h-.9807c-.3923 0-.7453.32-.7453.72v26.947Z"/>
        <path fill="#F8F8F8" d="M111.348 182.031c.118.24.314.44.667.44h.392c.353 0 .55-.2.667-.44l12.16-26.947c.236-.521-.078-1.041-.667-1.041h-4.001c-.353 0-.588.24-.666.44l-7.532 17.217h-.274l-7.532-17.217c-.078-.2-.314-.44-.667-.44h-4.0008c-.5884 0-.9022.52-.6669 1.041l12.1207 26.947Z"/>
        <path fill="url(#m)" fill-opacity=".12" d="M111.348 182.031c.118.24.314.44.667.44h.392c.353 0 .55-.2.667-.44l12.16-26.947c.236-.521-.078-1.041-.667-1.041h-4.001c-.353 0-.588.24-.666.44l-7.532 17.217h-.274l-7.532-17.217c-.078-.2-.314-.44-.667-.44h-4.0008c-.5884 0-.9022.52-.6669 1.041l12.1207 26.947Z"/>
        <path fill="#F8F8F8" d="M141.953 168.097c0 8.008 6.237 14.374 14.082 14.374 7.845 0 14.121-6.366 14.121-14.374 0-8.008-6.276-14.454-14.121-14.454-7.845 0-14.082 6.446-14.082 14.454Zm5.099 0c0-5.045 4.04-9.249 8.983-9.249 4.942 0 9.022 4.204 9.022 9.249 0 5.045-4.08 9.169-9.022 9.169-4.943 0-8.983-4.124-8.983-9.169Z"/>
        <path fill="url(#n)" fill-opacity=".12" d="M141.953 168.097c0 8.008 6.237 14.374 14.082 14.374 7.845 0 14.121-6.366 14.121-14.374 0-8.008-6.276-14.454-14.121-14.454-7.845 0-14.082 6.446-14.082 14.454Zm5.099 0c0-5.045 4.04-9.249 8.983-9.249 4.942 0 9.022 4.204 9.022 9.249 0 5.045-4.08 9.169-9.022 9.169-4.943 0-8.983-4.124-8.983-9.169Z"/>
        <path fill="#F8F8F8" d="M195.382 181.31c0 .4.314.761.745.761h3.609c.392 0 .745-.361.745-.761v-12.773l9.062-13.333c.314-.52 0-1.161-.628-1.161h-4.04c-.314 0-.51.2-.628.36l-6.276 9.209-6.276-9.209c-.118-.16-.314-.36-.628-.36h-4.001c-.628 0-.941.641-.628 1.161l8.944 13.373v12.733Z"/>
        <path fill="url(#o)" fill-opacity=".12" d="M195.382 181.31c0 .4.314.761.745.761h3.609c.392 0 .745-.361.745-.761v-12.773l9.062-13.333c.314-.52 0-1.161-.628-1.161h-4.04c-.314 0-.51.2-.628.36l-6.276 9.209-6.276-9.209c-.118-.16-.314-.36-.628-.36h-4.001c-.628 0-.941.641-.628 1.161l8.944 13.373v12.733Z"/>
        <path stroke="#000" stroke-opacity=".08" stroke-width=".994089" d="M23.4031 177.266v.497h12.108c.1308 0 .2483.111.2483.264v3.283c0 .153-.1175.264-.2483.264h-15.965c-.1307 0-.2483-.111-.2483-.264v-26.506c0-.153.1176-.264.2483-.264h15.965c.1307 0 .2483.111.2483.264v3.283c0 .153-.1176.264-.2483.264h-12.108v7.56h10.186c.1081 0 .2482.128.2482.264v3.323c0 .159-.123.264-.2482.264h-10.186v7.504Zm38.8168-13.67h-.4971v17.714c0 .153-.1175.264-.2482.264H57.905c-.1082 0-.2483-.128-.2483-.264v-26.947c0-.049.0213-.103.0705-.149.0506-.048.1165-.074.1778-.074h.7629l16.1704 17.537.1477.16h.754v-17.033c0-.153.1176-.264.2483-.264h3.6088c.1082 0 .2482.128.2482.264v26.946c0 .05-.0212.104-.0704.15-.0506.048-.1165.074-.1778.074h-.7188L62.63 163.762l-.1482-.166h-.2619Zm62.5611-8.717v.001l-12.156 26.938c-.035.07-.068.106-.092.124-.018.013-.051.032-.126.032h-.392c-.075 0-.107-.019-.125-.032-.025-.018-.057-.054-.092-.124L99.6806 154.88l-.0004-.001c-.0562-.124-.0324-.207-.0074-.246.023-.037.0814-.093.2214-.093h4.0008c.058 0 .102.018.137.045.041.031.062.067.067.08l.004.009.004.009 7.531 17.217.13.298h.925l.13-.298 7.532-17.217.004-.009.003-.009c.005-.013.027-.049.067-.08.035-.027.079-.045.137-.045h4.001c.14 0 .199.056.222.093.025.039.049.122-.008.246Zm75.289 13.379-.086.126v12.926c0 .136-.14.264-.248.264h-3.609c-.13 0-.248-.111-.248-.264v-12.884l-.084-.125-8.936-13.362c-.064-.112-.054-.215-.019-.28.031-.061.097-.119.226-.119h4.001c.044 0 .075.012.108.034.037.025.075.064.114.117l6.271 9.201.411.603.411-.603 6.271-9.201c.039-.053.077-.092.114-.117.033-.022.064-.034.108-.034h4.04c.129 0 .195.058.226.119.035.065.045.167-.018.279l-9.053 13.32Zm-44.035 13.716c-7.561 0-13.585-6.134-13.585-13.877 0-7.747 6.027-13.957 13.585-13.957 7.559 0 13.624 6.212 13.624 13.957 0 7.741-6.061 13.877-13.624 13.877Zm0-23.623c-5.232 0-9.48 4.442-9.48 9.746 0 5.31 4.253 9.666 9.48 9.666 5.224 0 9.519-4.353 9.519-9.666 0-5.307-4.29-9.746-9.519-9.746Z"/>
      </g>
    </g>
  </g>
  <defs>
    <linearGradient id="e" x1="112.609" x2="112.934" y1="111.731" y2="1.87493" gradientUnits="userSpaceOnUse">
      <stop offset=".216102" stop-color="#fff" stop-opacity="0"/>
      <stop offset="1" stop-color="#fff"/>
    </linearGradient>
    <linearGradient id="k" x1="22.1358" x2="164.413" y1="158.98" y2="242.05" gradientUnits="userSpaceOnUse">
      <stop stop-opacity="0"/>
      <stop offset="1"/>
    </linearGradient>
    <linearGradient id="l" x1="22.1358" x2="164.413" y1="158.98" y2="242.05" gradientUnits="userSpaceOnUse">
      <stop stop-opacity="0"/>
      <stop offset="1"/>
    </linearGradient>
    <linearGradient id="m" x1="22.1358" x2="164.413" y1="158.98" y2="242.05" gradientUnits="userSpaceOnUse">
      <stop stop-opacity="0"/>
      <stop offset="1"/>
    </linearGradient>
    <linearGradient id="n" x1="22.1358" x2="164.413" y1="158.98" y2="242.05" gradientUnits="userSpaceOnUse">
      <stop stop-opacity="0"/>
      <stop offset="1"/>
    </linearGradient>
    <linearGradient id="o" x1="22.1358" x2="164.413" y1="158.98" y2="242.05" gradientUnits="userSpaceOnUse">
      <stop stop-opacity="0"/>
      <stop offset="1"/>
    </linearGradient>
    <filter id="a" width="200.666" height="190.472" x="13" y="0" color-interpolation-filters="sRGB" filterUnits="userSpaceOnUse">
      <feFlood flood-opacity="0" result="BackgroundImageFix"/>
      <feColorMatrix in="SourceAlpha" result="hardAlpha" values="0 0 0 0 0 0 0 0 0 0 0 0 0 0 0 0 0 0 127 0"/>
      <feOffset dy="4"/>
      <feGaussianBlur stdDeviation="2"/>
      <feComposite in2="hardAlpha" operator="out"/>
      <feColorMatrix values="0 0 0 0 0 0 0 0 0 0 0 0 0 0 0 0 0 0 0.25 0"/>
      <feBlend in2="BackgroundImageFix" result="effect1_dropShadow_2356_34006"/>
      <feBlend in="SourceGraphic" in2="effect1_dropShadow_2356_34006" result="shape"/>
    </filter>
    <filter id="g" width="125.064" height="108.292" x="49.8634" y="-2.96933" color-interpolation-filters="sRGB" filterUnits="userSpaceOnUse">
      <feFlood flood-opacity="0" result="BackgroundImageFix"/>
      <feBlend in="SourceGraphic" in2="BackgroundImageFix" result="shape"/>
      <feGaussianBlur result="effect1_foregroundBlur_2356_34006" stdDeviation="1.49113"/>
    </filter>
    <filter id="h" width="104.478" height="119.862" x="60.1564" y="2.16446" color-interpolation-filters="sRGB" filterUnits="userSpaceOnUse">
      <feFlood flood-opacity="0" result="BackgroundImageFix"/>
      <feBlend in="SourceGraphic" in2="BackgroundImageFix" result="shape"/>
      <feGaussianBlur result="effect1_foregroundBlur_2356_34006" stdDeviation="1.49113"/>
    </filter>
    <filter id="i" width="196.865" height="34.8291" x="15.8008" y="150.643" color-interpolation-filters="sRGB" filterUnits="userSpaceOnUse">
      <feFlood flood-opacity="0" result="BackgroundImageFix"/>
      <feColorMatrix in="SourceAlpha" result="hardAlpha" values="0 0 0 0 0 0 0 0 0 0 0 0 0 0 0 0 0 0 127 0"/>
      <feOffset dx="1.5" dy="1.5"/>
      <feGaussianBlur stdDeviation=".75"/>
      <feComposite in2="hardAlpha" operator="out"/>
      <feColorMatrix values="0 0 0 0 0 0 0 0 0 0 0 0 0 0 0 0 0 0 0.16 0"/>
      <feBlend in2="BackgroundImageFix" result="effect1_dropShadow_2356_34006"/>
      <feColorMatrix in="SourceAlpha" result="hardAlpha" values="0 0 0 0 0 0 0 0 0 0 0 0 0 0 0 0 0 0 127 0"/>
      <feOffset dx="-1.5" dy="-1.5"/>
      <feGaussianBlur stdDeviation=".75"/>
      <feComposite in2="hardAlpha" operator="out"/>
      <feColorMatrix values="0 0 0 0 1 0 0 0 0 1 0 0 0 0 1 0 0 0 0.04 0"/>
      <feBlend in2="effect1_dropShadow_2356_34006" result="effect2_dropShadow_2356_34006"/>
      <feBlend in="SourceGraphic" in2="effect2_dropShadow_2356_34006" result="shape"/>
    </filter>
    <filter id="j" width="227.771" height="65.7342" x=".348011" y="135.19" color-interpolation-filters="sRGB" filterUnits="userSpaceOnUse">
      <feFlood flood-opacity="0" result="BackgroundImageFix"/>
      <feColorMatrix in="SourceAlpha" result="hardAlpha" values="0 0 0 0 0 0 0 0 0 0 0 0 0 0 0 0 0 0 127 0"/>
      <feOffset dx="6.15092" dy="6.15092"/>
      <feGaussianBlur stdDeviation="6.15092"/>
      <feColorMatrix values="0 0 0 0 0 0 0 0 0 0 0 0 0 0 0 0 0 0 0.16 0"/>
      <feBlend in2="BackgroundImageFix" result="effect1_dropShadow_2356_34006"/>
      <feColorMatrix in="SourceAlpha" result="hardAlpha" values="0 0 0 0 0 0 0 0 0 0 0 0 0 0 0 0 0 0 127 0"/>
      <feOffset dx="-6.15092" dy="-6.15092"/>
      <feGaussianBlur stdDeviation="6.15092"/>
      <feColorMatrix values="0 0 0 0 1 0 0 0 0 1 0 0 0 0 1 0 0 0 0.04 0"/>
      <feBlend in2="effect1_dropShadow_2356_34006" result="effect2_dropShadow_2356_34006"/>
      <feBlend in="SourceGraphic" in2="effect2_dropShadow_2356_34006" result="shape"/>
    </filter>
    <radialGradient id="b" cx="0" cy="0" r="1" gradientTransform="matrix(-59.6464 0 0 -59.8952 112.76 59.3264)" gradientUnits="userSpaceOnUse">
      <stop offset=".5" stop-color="#C3806C"/>
      <stop offset=".5001" stop-color="#C4816D"/>
      <stop offset=".75" stop-color="#E1A190"/>
      <stop offset="1" stop-color="#FFC2B4"/>
    </radialGradient>
    <radialGradient id="c" cx="0" cy="0" r="1" gradientTransform="matrix(-59.6337 0 0 -59.8825 112.664 59.4224)" gradientUnits="userSpaceOnUse">
      <stop offset=".5" stop-color="#FFC2B4"/>
      <stop offset=".75" stop-color="#E1A190"/>
      <stop offset="1" stop-color="#C3806C"/>
    </radialGradient>
    <radialGradient id="d" cx="0" cy="0" r="1" gradientTransform="matrix(-59.7194 0 0 -59.9686 112.613 59.3987)" gradientUnits="userSpaceOnUse">
      <stop offset=".5" stop-color="#FFC2B4"/>
      <stop offset=".75" stop-color="#E1A190"/>
      <stop offset="1" stop-color="#C3806C"/>
    </radialGradient>
  </defs>
</svg>
