<svg width="229" height="201" viewBox="0 0 229 201" fill="none" xmlns="http://www.w3.org/2000/svg">
<g filter="url(#filter0_d_2356_34006)">
<path d="M68.657 91.083C64.1332 91.0384 63.1722 93.191 65.9516 96.6351C76.9654 110.352 93.6858 119.304 112.594 119.304C131.503 119.304 148.223 110.352 159.237 96.6351C162.016 93.191 161.04 91.0533 156.531 91.083C134.548 91.1869 68.657 91.083 68.657 91.083Z" fill="url(#paint0_radial_2356_34006)"/>
<path d="M63.3349 81.8182C61.0878 85.7522 58.7815 85.5295 57.1848 81.4025C50.8574 64.9687 51.4931 45.9517 60.9547 29.5031C70.4163 13.0544 86.4862 3.00407 103.827 0.272516C108.189 -0.410371 109.564 1.50468 107.257 5.40901C107.257 5.40901 74.2157 62.6676 63.3349 81.8182Z" fill="url(#paint1_radial_2356_34006)"/>
<path d="M117.915 5.4097C115.638 1.49052 116.983 -0.409681 121.345 0.273207C138.686 2.98991 154.756 13.0551 164.217 29.5037C173.679 45.9524 174.3 64.9694 167.987 81.4032C166.391 85.5451 164.069 85.7677 161.837 81.8188C161.837 81.8188 128.973 24.4563 117.915 5.4097Z" fill="url(#paint2_radial_2356_34006)"/>
<path opacity="0.5" d="M112.609 87.5644H64.3988L112.609 1.91284V87.5644Z" fill="url(#paint3_linear_2356_34006)" fill-opacity="0.5"/>
<mask id="mask0_2356_34006" style="mask-type:alpha" maskUnits="userSpaceOnUse" x="52" y="0" width="120" height="120">
<path d="M68.4675 90.9592C63.9437 90.9146 62.9827 93.0672 65.7621 96.5114C76.7759 110.228 93.4963 119.18 112.405 119.18C131.313 119.18 148.033 110.228 159.047 96.5114C161.827 93.0672 160.851 90.9295 156.342 90.9592C134.358 91.0631 68.4675 90.9592 68.4675 90.9592Z" fill="white"/>
<path d="M63.1454 81.6946C60.8983 85.6287 58.592 85.406 56.9954 81.279C50.6679 64.8452 51.3036 45.8282 60.7652 29.3795C70.2268 12.9308 86.2967 2.88053 103.638 0.148981C107.999 -0.533907 109.374 1.38114 107.068 5.28548C107.068 5.28548 74.0262 62.5441 63.1454 81.6946Z" fill="white"/>
<path d="M117.727 5.28617C115.451 1.36699 116.796 -0.533216 121.157 0.149672C138.498 2.86638 154.568 12.9315 164.03 29.3802C173.491 45.8289 174.112 64.8459 167.8 81.2797C166.203 85.4216 163.882 85.6442 161.65 81.6954C161.65 81.6954 128.785 24.3328 117.727 5.28617Z" fill="white"/>
</mask>
<g mask="url(#mask0_2356_34006)">
<g opacity="0.25" filter="url(#filter1_f_2356_34006)">
<path d="M154.127 34.9781C162.135 48.907 167.646 65.131 167.797 81.1372C174.118 64.698 173.486 45.6864 164.027 29.2377C154.569 12.789 138.492 2.73558 121.155 0.0129395C134.885 8.14613 146.12 21.0524 154.127 34.9781ZM60.7625 29.2388C70.22 12.7901 86.299 2.73662 103.635 0.0139815C89.9067 8.14673 78.6709 21.053 70.6644 34.9787C62.6578 48.9044 57.1442 65.1286 56.9946 81.1348C50.674 64.695 51.3044 45.6862 60.7625 29.2388ZM68.4641 90.8165C68.4641 90.8165 134.362 90.9195 156.327 90.8165C142.816 98.1065 127.726 102.341 112.395 102.341C97.0642 102.341 81.974 98.1071 68.4641 90.8165Z" fill="black"/>
</g>
<g opacity="0.2" filter="url(#filter2_f_2356_34006)">
<path d="M112.394 107.564C96.3795 107.564 79.6313 104.246 65.7512 96.3731C76.7699 110.09 93.4798 119.044 112.395 119.044C131.31 119.044 148.018 110.09 159.036 96.3731C145.156 104.246 128.41 107.564 112.394 107.564ZM149.624 37.5892C157.289 50.9228 161.184 66.1627 161.652 81.5559C161.652 81.5559 128.792 24.1997 117.72 5.14673C130.764 13.2529 141.958 24.2587 149.624 37.5892ZM107.071 5.14673C107.071 5.14673 74.0329 62.4028 63.1389 81.5559C63.607 66.1598 67.501 50.9228 75.1671 37.5892C82.8331 24.2587 94.0286 13.2499 107.071 5.14673Z" fill="white"/>
</g>
</g>
<g filter="url(#filter3_dd_2356_34006)">
<g filter="url(#filter4_dd_2356_34006)">
<path d="M18.8008 181.31C18.8008 181.71 19.1146 182.071 19.5461 182.071H35.5111C35.9426 182.071 36.2564 181.71 36.2564 181.31V178.027C36.2564 177.626 35.9426 177.266 35.5111 177.266H23.9002V170.259H33.5891C33.9813 170.259 34.3344 169.939 34.3344 169.498V166.175C34.3344 165.775 33.9813 165.414 33.5891 165.414H23.9002V158.848H35.5111C35.9426 158.848 36.2564 158.487 36.2564 158.087V154.804C36.2564 154.403 35.9426 154.043 35.5111 154.043H19.5461C19.1146 154.043 18.8008 154.403 18.8008 154.804V181.31Z" fill="#F8F8F8"/>
<path d="M18.8008 181.31C18.8008 181.71 19.1146 182.071 19.5461 182.071H35.5111C35.9426 182.071 36.2564 181.71 36.2564 181.31V178.027C36.2564 177.626 35.9426 177.266 35.5111 177.266H23.9002V170.259H33.5891C33.9813 170.259 34.3344 169.939 34.3344 169.498V166.175C34.3344 165.775 33.9813 165.414 33.5891 165.414H23.9002V158.848H35.5111C35.9426 158.848 36.2564 158.487 36.2564 158.087V154.804C36.2564 154.403 35.9426 154.043 35.5111 154.043H19.5461C19.1146 154.043 18.8008 154.403 18.8008 154.804V181.31Z" fill="url(#paint4_linear_2356_34006)" fill-opacity="0.12"/>
<path d="M57.1597 181.31C57.1597 181.71 57.5127 182.071 57.905 182.071H61.4746C61.9061 182.071 62.2199 181.71 62.2199 181.31V164.093H62.2591L78.6557 182.471H79.5971C79.9893 182.471 80.3424 182.151 80.3424 181.75V154.804C80.3424 154.403 79.9893 154.043 79.5971 154.043H75.9883C75.5568 154.043 75.243 154.403 75.243 154.804V171.34H75.2038L58.8857 153.643H57.905C57.5127 153.643 57.1597 153.963 57.1597 154.363V181.31Z" fill="#F8F8F8"/>
<path d="M57.1597 181.31C57.1597 181.71 57.5127 182.071 57.905 182.071H61.4746C61.9061 182.071 62.2199 181.71 62.2199 181.31V164.093H62.2591L78.6557 182.471H79.5971C79.9893 182.471 80.3424 182.151 80.3424 181.75V154.804C80.3424 154.403 79.9893 154.043 79.5971 154.043H75.9883C75.5568 154.043 75.243 154.403 75.243 154.804V171.34H75.2038L58.8857 153.643H57.905C57.5127 153.643 57.1597 153.963 57.1597 154.363V181.31Z" fill="url(#paint5_linear_2356_34006)" fill-opacity="0.12"/>
<path d="M111.348 182.031C111.466 182.271 111.662 182.471 112.015 182.471H112.407C112.76 182.471 112.957 182.271 113.074 182.031L125.234 155.084C125.47 154.563 125.156 154.043 124.567 154.043H120.566C120.213 154.043 119.978 154.283 119.9 154.483L112.368 171.7H112.094L104.562 154.483C104.484 154.283 104.248 154.043 103.895 154.043H99.8942C99.3058 154.043 98.992 154.563 99.2273 155.084L111.348 182.031Z" fill="#F8F8F8"/>
<path d="M111.348 182.031C111.466 182.271 111.662 182.471 112.015 182.471H112.407C112.76 182.471 112.957 182.271 113.074 182.031L125.234 155.084C125.47 154.563 125.156 154.043 124.567 154.043H120.566C120.213 154.043 119.978 154.283 119.9 154.483L112.368 171.7H112.094L104.562 154.483C104.484 154.283 104.248 154.043 103.895 154.043H99.8942C99.3058 154.043 98.992 154.563 99.2273 155.084L111.348 182.031Z" fill="url(#paint6_linear_2356_34006)" fill-opacity="0.12"/>
<path d="M141.953 168.097C141.953 176.105 148.19 182.471 156.035 182.471C163.88 182.471 170.156 176.105 170.156 168.097C170.156 160.089 163.88 153.643 156.035 153.643C148.19 153.643 141.953 160.089 141.953 168.097ZM147.052 168.097C147.052 163.052 151.092 158.848 156.035 158.848C160.977 158.848 165.057 163.052 165.057 168.097C165.057 173.142 160.977 177.266 156.035 177.266C151.092 177.266 147.052 173.142 147.052 168.097Z" fill="#F8F8F8"/>
<path d="M141.953 168.097C141.953 176.105 148.19 182.471 156.035 182.471C163.88 182.471 170.156 176.105 170.156 168.097C170.156 160.089 163.88 153.643 156.035 153.643C148.19 153.643 141.953 160.089 141.953 168.097ZM147.052 168.097C147.052 163.052 151.092 158.848 156.035 158.848C160.977 158.848 165.057 163.052 165.057 168.097C165.057 173.142 160.977 177.266 156.035 177.266C151.092 177.266 147.052 173.142 147.052 168.097Z" fill="url(#paint7_linear_2356_34006)" fill-opacity="0.12"/>
<path d="M195.382 181.31C195.382 181.71 195.696 182.071 196.127 182.071H199.736C200.128 182.071 200.481 181.71 200.481 181.31V168.537L209.543 155.204C209.857 154.684 209.543 154.043 208.915 154.043H204.875C204.561 154.043 204.365 154.243 204.247 154.403L197.971 163.612L191.695 154.403C191.577 154.243 191.381 154.043 191.067 154.043H187.066C186.438 154.043 186.125 154.684 186.438 155.204L195.382 168.577V181.31Z" fill="#F8F8F8"/>
<path d="M195.382 181.31C195.382 181.71 195.696 182.071 196.127 182.071H199.736C200.128 182.071 200.481 181.71 200.481 181.31V168.537L209.543 155.204C209.857 154.684 209.543 154.043 208.915 154.043H204.875C204.561 154.043 204.365 154.243 204.247 154.403L197.971 163.612L191.695 154.403C191.577 154.243 191.381 154.043 191.067 154.043H187.066C186.438 154.043 186.125 154.684 186.438 155.204L195.382 168.577V181.31Z" fill="url(#paint8_linear_2356_34006)" fill-opacity="0.12"/>
<path d="M23.4031 177.266V177.763H23.9002H35.5111C35.6419 177.763 35.7594 177.874 35.7594 178.027V181.31C35.7594 181.463 35.6419 181.574 35.5111 181.574H19.5461C19.4154 181.574 19.2978 181.463 19.2978 181.31V154.804C19.2978 154.651 19.4154 154.54 19.5461 154.54H35.5111C35.6418 154.54 35.7594 154.651 35.7594 154.804V158.087C35.7594 158.24 35.6418 158.351 35.5111 158.351H23.9002H23.4031V158.848V165.414V165.911H23.9002H33.5891C33.6972 165.911 33.8373 166.039 33.8373 166.175V169.498C33.8373 169.657 33.7143 169.762 33.5891 169.762H23.9002H23.4031V170.259V177.266ZM62.2199 163.596H61.7228V164.093V181.31C61.7228 181.463 61.6053 181.574 61.4746 181.574H57.905C57.7968 181.574 57.6567 181.446 57.6567 181.31V154.363C57.6567 154.314 57.678 154.26 57.7272 154.214C57.7778 154.166 57.8437 154.14 57.905 154.14H58.6679L74.8383 171.677L74.986 171.837H75.2038H75.243H75.74V171.34V154.804C75.74 154.651 75.8576 154.54 75.9883 154.54H79.5971C79.7053 154.54 79.8453 154.668 79.8453 154.804V181.75C79.8453 181.8 79.8241 181.854 79.7749 181.9C79.7243 181.948 79.6584 181.974 79.5971 181.974H78.8783L62.63 163.762L62.4818 163.596H62.2591H62.2199ZM124.781 154.879L124.781 154.88L112.625 181.818C112.59 181.888 112.557 181.924 112.533 181.942C112.515 181.955 112.482 181.974 112.407 181.974H112.015C111.94 181.974 111.908 181.955 111.89 181.942C111.865 181.924 111.833 181.888 111.798 181.818L99.6806 154.88L99.6802 154.879C99.624 154.755 99.6478 154.672 99.6728 154.633C99.6958 154.596 99.7542 154.54 99.8942 154.54H103.895C103.953 154.54 103.997 154.558 104.032 154.585C104.073 154.616 104.094 154.652 104.099 154.665L104.103 154.674L104.107 154.683L111.638 171.9L111.768 172.198H112.094H112.368H112.693L112.823 171.9L120.355 154.683L120.359 154.674L120.362 154.665C120.367 154.652 120.389 154.616 120.429 154.585C120.464 154.558 120.508 154.54 120.566 154.54H124.567C124.707 154.54 124.766 154.596 124.789 154.633C124.814 154.672 124.838 154.755 124.781 154.879ZM200.07 168.258L199.984 168.384V168.537V181.31C199.984 181.446 199.844 181.574 199.736 181.574H196.127C195.997 181.574 195.879 181.463 195.879 181.31V168.577V168.426L195.795 168.301L186.859 154.939C186.795 154.827 186.805 154.724 186.84 154.659C186.871 154.598 186.937 154.54 187.066 154.54H191.067C191.111 154.54 191.142 154.552 191.175 154.574C191.212 154.599 191.25 154.638 191.289 154.691L197.56 163.892L197.971 164.495L198.382 163.892L204.653 154.691C204.692 154.638 204.73 154.599 204.767 154.574C204.8 154.552 204.831 154.54 204.875 154.54H208.915C209.044 154.54 209.11 154.598 209.141 154.659C209.176 154.724 209.186 154.826 209.123 154.938L200.07 168.258ZM156.035 181.974C148.474 181.974 142.45 175.84 142.45 168.097C142.45 160.35 148.477 154.14 156.035 154.14C163.594 154.14 169.659 160.352 169.659 168.097C169.659 175.838 163.598 181.974 156.035 181.974ZM156.035 158.351C150.803 158.351 146.555 162.793 146.555 168.097C146.555 173.407 150.808 177.763 156.035 177.763C161.259 177.763 165.554 173.41 165.554 168.097C165.554 162.79 161.264 158.351 156.035 158.351Z" stroke="black" stroke-opacity="0.08" stroke-width="0.994089"/>
</g>
</g>
</g>
<defs>
<filter id="filter0_d_2356_34006" x="13" y="0" width="200.666" height="190.472" filterUnits="userSpaceOnUse" color-interpolation-filters="sRGB">
<feFlood flood-opacity="0" result="BackgroundImageFix"/>
<feColorMatrix in="SourceAlpha" type="matrix" values="0 0 0 0 0 0 0 0 0 0 0 0 0 0 0 0 0 0 127 0" result="hardAlpha"/>
<feOffset dy="4"/>
<feGaussianBlur stdDeviation="2"/>
<feComposite in2="hardAlpha" operator="out"/>
<feColorMatrix type="matrix" values="0 0 0 0 0 0 0 0 0 0 0 0 0 0 0 0 0 0 0.25 0"/>
<feBlend mode="normal" in2="BackgroundImageFix" result="effect1_dropShadow_2356_34006"/>
<feBlend mode="normal" in="SourceGraphic" in2="effect1_dropShadow_2356_34006" result="shape"/>
</filter>
<filter id="filter1_f_2356_34006" x="49.8634" y="-2.96933" width="125.064" height="108.292" filterUnits="userSpaceOnUse" color-interpolation-filters="sRGB">
<feFlood flood-opacity="0" result="BackgroundImageFix"/>
<feBlend mode="normal" in="SourceGraphic" in2="BackgroundImageFix" result="shape"/>
<feGaussianBlur stdDeviation="1.49113" result="effect1_foregroundBlur_2356_34006"/>
</filter>
<filter id="filter2_f_2356_34006" x="60.1564" y="2.16446" width="104.478" height="119.862" filterUnits="userSpaceOnUse" color-interpolation-filters="sRGB">
<feFlood flood-opacity="0" result="BackgroundImageFix"/>
<feBlend mode="normal" in="SourceGraphic" in2="BackgroundImageFix" result="shape"/>
<feGaussianBlur stdDeviation="1.49113" result="effect1_foregroundBlur_2356_34006"/>
</filter>
<filter id="filter3_dd_2356_34006" x="15.8008" y="150.643" width="196.865" height="34.8291" filterUnits="userSpaceOnUse" color-interpolation-filters="sRGB">
<feFlood flood-opacity="0" result="BackgroundImageFix"/>
<feColorMatrix in="SourceAlpha" type="matrix" values="0 0 0 0 0 0 0 0 0 0 0 0 0 0 0 0 0 0 127 0" result="hardAlpha"/>
<feOffset dx="1.5" dy="1.5"/>
<feGaussianBlur stdDeviation="0.75"/>
<feComposite in2="hardAlpha" operator="out"/>
<feColorMatrix type="matrix" values="0 0 0 0 0 0 0 0 0 0 0 0 0 0 0 0 0 0 0.16 0"/>
<feBlend mode="normal" in2="BackgroundImageFix" result="effect1_dropShadow_2356_34006"/>
<feColorMatrix in="SourceAlpha" type="matrix" values="0 0 0 0 0 0 0 0 0 0 0 0 0 0 0 0 0 0 127 0" result="hardAlpha"/>
<feOffset dx="-1.5" dy="-1.5"/>
<feGaussianBlur stdDeviation="0.75"/>
<feComposite in2="hardAlpha" operator="out"/>
<feColorMatrix type="matrix" values="0 0 0 0 1 0 0 0 0 1 0 0 0 0 1 0 0 0 0.04 0"/>
<feBlend mode="normal" in2="effect1_dropShadow_2356_34006" result="effect2_dropShadow_2356_34006"/>
<feBlend mode="normal" in="SourceGraphic" in2="effect2_dropShadow_2356_34006" result="shape"/>
</filter>
<filter id="filter4_dd_2356_34006" x="0.348011" y="135.19" width="227.771" height="65.7342" filterUnits="userSpaceOnUse" color-interpolation-filters="sRGB">
<feFlood flood-opacity="0" result="BackgroundImageFix"/>
<feColorMatrix in="SourceAlpha" type="matrix" values="0 0 0 0 0 0 0 0 0 0 0 0 0 0 0 0 0 0 127 0" result="hardAlpha"/>
<feOffset dx="6.15092" dy="6.15092"/>
<feGaussianBlur stdDeviation="6.15092"/>
<feColorMatrix type="matrix" values="0 0 0 0 0 0 0 0 0 0 0 0 0 0 0 0 0 0 0.16 0"/>
<feBlend mode="normal" in2="BackgroundImageFix" result="effect1_dropShadow_2356_34006"/>
<feColorMatrix in="SourceAlpha" type="matrix" values="0 0 0 0 0 0 0 0 0 0 0 0 0 0 0 0 0 0 127 0" result="hardAlpha"/>
<feOffset dx="-6.15092" dy="-6.15092"/>
<feGaussianBlur stdDeviation="6.15092"/>
<feColorMatrix type="matrix" values="0 0 0 0 1 0 0 0 0 1 0 0 0 0 1 0 0 0 0.04 0"/>
<feBlend mode="normal" in2="effect1_dropShadow_2356_34006" result="effect2_dropShadow_2356_34006"/>
<feBlend mode="normal" in="SourceGraphic" in2="effect2_dropShadow_2356_34006" result="shape"/>
</filter>
<radialGradient id="paint0_radial_2356_34006" cx="0" cy="0" r="1" gradientUnits="userSpaceOnUse" gradientTransform="translate(112.76 59.3264) rotate(180) scale(59.6464 59.8952)">
<stop offset="0.5" stop-color="#C3806C"/>
<stop offset="0.5001" stop-color="#C4816D"/>
<stop offset="0.75" stop-color="#E1A190"/>
<stop offset="1" stop-color="#FFC2B4"/>
</radialGradient>
<radialGradient id="paint1_radial_2356_34006" cx="0" cy="0" r="1" gradientUnits="userSpaceOnUse" gradientTransform="translate(112.664 59.4224) rotate(180) scale(59.6337 59.8825)">
<stop offset="0.5" stop-color="#FFC2B4"/>
<stop offset="0.75" stop-color="#E1A190"/>
<stop offset="1" stop-color="#C3806C"/>
</radialGradient>
<radialGradient id="paint2_radial_2356_34006" cx="0" cy="0" r="1" gradientUnits="userSpaceOnUse" gradientTransform="translate(112.613 59.3987) rotate(180) scale(59.7194 59.9686)">
<stop offset="0.5" stop-color="#FFC2B4"/>
<stop offset="0.75" stop-color="#E1A190"/>
<stop offset="1" stop-color="#C3806C"/>
</radialGradient>
<linearGradient id="paint3_linear_2356_34006" x1="112.609" y1="111.731" x2="112.934" y2="1.87493" gradientUnits="userSpaceOnUse">
<stop offset="0.216102" stop-color="white" stop-opacity="0"/>
<stop offset="1" stop-color="white"/>
</linearGradient>
<linearGradient id="paint4_linear_2356_34006" x1="22.1358" y1="158.98" x2="164.413" y2="242.05" gradientUnits="userSpaceOnUse">
<stop stop-opacity="0"/>
<stop offset="1"/>
</linearGradient>
<linearGradient id="paint5_linear_2356_34006" x1="22.1358" y1="158.98" x2="164.413" y2="242.05" gradientUnits="userSpaceOnUse">
<stop stop-opacity="0"/>
<stop offset="1"/>
</linearGradient>
<linearGradient id="paint6_linear_2356_34006" x1="22.1358" y1="158.98" x2="164.413" y2="242.05" gradientUnits="userSpaceOnUse">
<stop stop-opacity="0"/>
<stop offset="1"/>
</linearGradient>
<linearGradient id="paint7_linear_2356_34006" x1="22.1358" y1="158.98" x2="164.413" y2="242.05" gradientUnits="userSpaceOnUse">
<stop stop-opacity="0"/>
<stop offset="1"/>
</linearGradient>
<linearGradient id="paint8_linear_2356_34006" x1="22.1358" y1="158.98" x2="164.413" y2="242.05" gradientUnits="userSpaceOnUse">
<stop stop-opacity="0"/>
<stop offset="1"/>
</linearGradient>
</defs>
</svg>
