<svg width="14" height="14" viewBox="0 0 14 14" fill="none" xmlns="http://www.w3.org/2000/svg">
<path fill-rule="evenodd" clip-rule="evenodd" d="M7 0.924927C7.33137 0.924927 7.6 1.19356 7.6 1.52493L7.6 7.06427L9.46967 5.1946C9.76256 4.9017 10.2374 4.9017 10.5303 5.1946C10.8232 5.48749 10.8232 5.96237 10.5303 6.25526L7.53033 9.25526C7.23744 9.54815 6.76256 9.54815 6.46967 9.25526L3.46967 6.25526C3.17678 5.96237 3.17678 5.48749 3.46967 5.1946C3.76256 4.9017 4.23744 4.9017 4.53033 5.1946L6.4 7.06427L6.4 1.52493C6.4 1.19356 6.66863 0.924927 7 0.924927ZM2.3501 8.72498C2.3501 8.31076 2.01431 7.97498 1.6001 7.97498C1.18588 7.97498 0.850098 8.31076 0.850098 8.72498L0.850098 11.125C0.850098 11.6421 1.05554 12.1381 1.42124 12.5038C1.78694 12.8695 2.28293 13.075 2.8001 13.075L11.2001 13.075C11.7173 13.075 12.2133 12.8695 12.579 12.5038C12.9447 12.1381 13.1501 11.6421 13.1501 11.125L13.1501 8.72498C13.1501 8.31076 12.8143 7.97498 12.4001 7.97498C11.9859 7.97498 11.6501 8.31076 11.6501 8.72498L11.6501 11.125C11.6501 11.2443 11.6027 11.3588 11.5183 11.4432C11.4339 11.5276 11.3194 11.575 11.2001 11.575L2.8001 11.575C2.68075 11.575 2.56629 11.5276 2.4819 11.4432C2.39751 11.3588 2.3501 11.2443 2.3501 11.125L2.3501 8.72498Z" fill="white"/>
</svg>
