<svg width="48" height="48" viewBox="0 0 48 48" fill="none" xmlns="http://www.w3.org/2000/svg">
<path d="M24.0001 4C19.251 4.0002 14.657 5.69023 11.04 8.76769C7.42299 11.8452 5.01906 16.1092 4.25832 20.797C3.49759 25.4847 4.42969 30.2901 6.88785 34.3535C9.34602 38.4169 13.1698 41.473 17.6751 42.975C18.6751 43.15 19.0501 42.55 19.0501 42.025C19.0501 41.55 19.0251 39.975 19.0251 38.3C14.0001 39.225 12.7001 37.0751 12.3001 35.9501C11.8562 34.8559 11.1526 33.8863 10.2501 33.125C9.55005 32.75 8.55005 31.825 10.225 31.8C10.8646 31.8694 11.478 32.092 12.0133 32.4488C12.5486 32.8057 12.99 33.2863 13.3001 33.85C13.5736 34.3414 13.9414 34.774 14.3824 35.123C14.8235 35.472 15.329 35.7305 15.8701 35.8838C16.4112 36.0371 16.9773 36.0821 17.5358 36.0162C18.0943 35.9503 18.6344 35.7749 19.125 35.5C19.2116 34.4832 19.6647 33.5326 20.4001 32.8251C15.9501 32.3251 11.3001 30.6 11.3001 22.9501C11.2719 20.9624 12.0054 19.0392 13.3501 17.5751C12.7386 15.8475 12.8102 13.9516 13.5501 12.2751C13.5501 12.2751 15.225 11.75 19.0501 14.3251C22.3226 13.425 25.7775 13.425 29.0501 14.3251C32.875 11.7251 34.5501 12.2751 34.5501 12.2751C35.29 13.9516 35.3616 15.8475 34.7501 17.5751C36.0987 19.0367 36.8328 20.9615 36.8001 22.9501C36.8001 30.625 32.125 32.3251 27.6751 32.8251C28.1524 33.3088 28.52 33.8896 28.7529 34.5281C28.9858 35.1665 29.0787 35.8476 29.0251 36.5251C29.0251 39.2001 29 41.35 29 42.0251C29 42.5501 29.375 43.1751 30.375 42.9751C34.8724 41.4608 38.6852 38.3975 41.1329 34.3321C43.5806 30.2667 44.5038 25.4637 43.7378 20.7805C42.9718 16.0973 40.5664 11.8387 36.951 8.76502C33.3356 5.6913 28.7455 4.00247 24.0001 4V4Z" fill="#525152"/>
</svg>
