<svg width="24" height="24" viewBox="0 0 24 24" fill="none" xmlns="http://www.w3.org/2000/svg">
<path fill-rule="evenodd" clip-rule="evenodd" d="M17.4 7.77778H18.3C19.0161 7.77778 19.7028 8.07629 20.2092 8.60764C20.7155 9.139 21 9.85966 21 10.6111V18.1667C21 18.9181 20.7155 19.6388 20.2092 20.1701C19.7028 20.7015 19.0161 21 18.3 21H5.7C4.98392 21 4.29716 20.7015 3.79081 20.1701C3.28446 19.6388 3 18.9181 3 18.1667V6.83333C3 6.08189 3.28446 5.36122 3.79081 4.82986C4.29716 4.29851 4.98392 4 5.7 4H14.7C15.4161 4 16.1028 4.29851 16.6092 4.82986C17.1155 5.36122 17.4 6.08189 17.4 6.83333V7.77778ZM5.7 5.88889H14.7C14.9387 5.88889 15.1676 5.98839 15.3364 6.16551C15.5052 6.34263 15.6 6.58285 15.6 6.83333V7.77778H5.7C5.46131 7.77778 5.23239 7.67827 5.0636 7.50116C4.89482 7.32404 4.8 7.08382 4.8 6.83333C4.8 6.58285 4.89482 6.34263 5.0636 6.16551C5.23239 5.98839 5.46131 5.88889 5.7 5.88889ZM19.2 18.1667C19.2 18.4171 19.1052 18.6574 18.9364 18.8345C18.7676 19.0116 18.5387 19.1111 18.3 19.1111H5.7C5.46131 19.1111 5.23239 19.0116 5.0636 18.8345C4.89482 18.6574 4.8 18.4171 4.8 18.1667V9.50611C5.08914 9.61285 5.39349 9.66714 5.7 9.66667H18.3C18.5387 9.66667 18.7676 9.76617 18.9364 9.94329C19.1052 10.1204 19.2 10.3606 19.2 10.6111V18.1667Z" fill="white"/>
</svg>
