<svg width="4" height="19" viewBox="0 0 4 19" fill="none" xmlns="http://www.w3.org/2000/svg">
<path fill-rule="evenodd" clip-rule="evenodd" d="M1.9676 3.89744C3.04384 3.89744 3.91632 3.02497 3.91632 1.94872C3.91632 0.872471 3.04385 0 1.9676 0H1.94872C0.872471 0 9.40927e-08 0.872471 0 1.94872C-9.40927e-08 3.02497 0.872471 3.89744 1.94872 3.89744H1.9676ZM0.0188799 17.0513C0.0188798 18.1275 0.89135 19 1.9676 19C3.04384 19 3.91632 18.1275 3.91632 17.0513L3.91632 9.5C3.91632 8.42376 3.04385 7.55128 1.9676 7.55128C0.891351 7.55128 0.0188806 8.42376 0.0188805 9.5L0.0188799 17.0513Z" fill="white"/>
</svg>
