<svg width="24" height="18" viewBox="0 0 24 18" fill="none" xmlns="http://www.w3.org/2000/svg">
<path fill-rule="evenodd" clip-rule="evenodd" d="M23.4782 6.2911C23.4782 5.50111 23.023 4.78374 22.3134 4.45532L14.6284 0.777424C12.4514 -0.266863 9.92474 -0.258707 7.75433 0.799613L1.12855 4.03043C-0.381932 4.76696 -0.374527 6.94752 1.14093 7.67351L2.20254 8.18209V12.3841C2.20254 14.1826 3.47152 15.6054 5.07867 16.5211C6.71699 17.4545 8.91321 18 11.2848 18C13.6563 18 15.8525 17.4545 17.4909 16.5211C19.098 15.6054 20.367 14.1826 20.367 12.3841V8.15914L21.386 7.6789C21.4196 7.66306 21.4525 7.64652 21.4846 7.62929V12.7485C21.1385 13.0319 20.9174 13.4632 20.9174 13.9463V15.685C20.9174 16.5385 21.6075 17.2305 22.4587 17.2305C23.3099 17.2305 24 16.5385 24 15.685V13.9463C24 13.4846 23.7982 13.0703 23.4782 12.7871V6.2911ZM8.61932 2.61816C10.2471 1.82442 12.1421 1.81831 13.7749 2.60152L20.496 5.83354L13.7122 9.06888C12.1061 9.81656 10.2549 9.80665 8.65611 9.04074L1.99354 5.84898L8.61932 2.61816ZM14.5789 10.8869L18.3735 9.09863V12.3841C18.3735 13.1299 17.8324 14.0104 16.5132 14.762C15.2252 15.4958 13.3787 15.9815 11.2848 15.9815C9.19086 15.9815 7.34434 15.4958 6.0563 14.762C4.7371 14.0104 4.19608 13.1299 4.19608 12.3841V9.13711L7.8035 10.8653C9.94649 11.8919 12.4295 11.8998 14.5789 10.8869Z" fill="#231F20"/>
</svg>
