<svg width="25" height="25" viewBox="0 0 25 25" fill="none" xmlns="http://www.w3.org/2000/svg">
<path d="M17.3399 3.19757C16.4202 2.44116 15.3433 1.8996 14.1876 1.61241C13.0319 1.32523 11.8267 1.29966 10.6599 1.53757C9.10632 1.85139 7.68093 2.61964 6.56462 3.74485C5.44832 4.87006 4.69141 6.3015 4.38994 7.85757C4.16979 9.02429 4.20979 10.2252 4.5071 11.3747C4.80441 12.5242 5.3517 13.5939 6.10994 14.5076C6.81363 15.3016 7.21698 16.3171 7.24994 17.3776V20.3776C7.24994 21.1732 7.56601 21.9363 8.12862 22.4989C8.69123 23.0615 9.45429 23.3776 10.2499 23.3776H14.2499C15.0456 23.3776 15.8087 23.0615 16.3713 22.4989C16.9339 21.9363 17.2499 21.1732 17.2499 20.3776V17.5676C17.2835 16.3967 17.7137 15.272 18.4699 14.3776C19.7951 12.7384 20.4197 10.6424 20.2081 8.5452C19.9965 6.448 18.9658 4.51906 17.3399 3.17757V3.19757ZM15.2499 20.3776C15.2499 20.6428 15.1446 20.8971 14.957 21.0847C14.7695 21.2722 14.5152 21.3776 14.2499 21.3776H10.2499C9.98473 21.3776 9.73037 21.2722 9.54284 21.0847C9.3553 20.8971 9.24994 20.6428 9.24994 20.3776V19.3776H15.2499V20.3776ZM16.9199 13.1376C15.9144 14.3302 15.3278 15.8196 15.2499 17.3776H13.2499V14.3776C13.2499 14.1124 13.1446 13.858 12.957 13.6705C12.7695 13.4829 12.5152 13.3776 12.2499 13.3776C11.9847 13.3776 11.7304 13.4829 11.5428 13.6705C11.3553 13.858 11.2499 14.1124 11.2499 14.3776V17.3776H9.24994C9.22356 15.8457 8.65689 14.3723 7.64994 13.2176C6.98558 12.4216 6.53883 11.467 6.35325 10.4469C6.16767 9.42684 6.24959 8.37609 6.59103 7.3971C6.93247 6.41812 7.52176 5.54431 8.30146 4.8609C9.08116 4.17748 10.0247 3.70777 11.0399 3.49757C11.9125 3.31791 12.8141 3.33481 13.6793 3.54704C14.5445 3.75927 15.3516 4.1615 16.042 4.72452C16.7324 5.28755 17.2887 5.99725 17.6706 6.80209C18.0525 7.60693 18.2504 8.48672 18.2499 9.37757C18.2573 10.7474 17.787 12.077 16.9199 13.1376V13.1376Z" fill="black"/>
</svg>
