<svg width="48" height="48" viewBox="0 0 48 48" fill="none" xmlns="http://www.w3.org/2000/svg">
<path d="M31.649 31.9692H29.6098L16.2976 15.9241H18.4859L31.649 31.9692Z" fill="#525152"/>
<path fill-rule="evenodd" clip-rule="evenodd" d="M24 44C35.0457 44 44 35.0457 44 24C44 12.9543 35.0457 4 24 4C12.9543 4 4 12.9543 4 24C4 35.0457 12.9543 44 24 44ZM31.7607 14C31.2121 14 30.6876 14.2254 30.3099 14.6233L24.8372 20.3908L19.894 14.3657C19.704 14.1342 19.4203 14 19.1209 14H12.8515C12.5128 14 12.3274 14.3947 12.5436 14.6554L21.0736 24.9385L13.1149 33.3246C12.873 33.5795 13.0537 34 13.405 34H15.7268C16.001 34 16.2632 33.8874 16.452 33.6885L22.7935 27.0082L28.2942 33.6385C28.4841 33.8675 28.7662 34 29.0638 34H35.1544C35.4921 34 35.6779 33.6074 35.4636 33.3463L26.5415 22.4718L33.9406 14.6754C34.1825 14.4205 34.0018 14 33.6505 14H31.7607Z" fill="#525152"/>
</svg>
