<svg width="32" height="32" viewBox="0 0 32 32" fill="none" xmlns="http://www.w3.org/2000/svg">
<path d="M25.169 1.0993C25.7776 0.400721 26.6569 0 27.5811 0H28.0012C29.3779 0 30.1137 1.62831 29.2072 2.66878L19.7225 13.5549L31.6727 29.4201C32.4711 30.4801 31.7181 32 30.3947 32H24.321C23.3229 32 22.3818 31.533 21.7754 30.7369L14.2171 20.8131L5.42539 30.9012C4.81684 31.5995 3.93775 32 3.0137 32H2.58995C1.21325 32 0.477438 30.3717 1.38396 29.3312L11.6907 17.5015L0.33249 2.5867C-0.473863 1.52785 0.27797 0 1.60537 0H7.92299C8.92715 0 9.87326 0.472633 10.479 1.27688L17.219 10.2252L25.169 1.0993ZM24.2294 28.7508H27.2248L7.88967 3.07856H4.67531L24.2294 28.7508Z" fill="#323232"/>
</svg>
