<svg width="24" height="24" viewBox="0 0 24 24" fill="none" xmlns="http://www.w3.org/2000/svg">
<path d="M15.8245 15.9846H14.8049L8.1488 7.96205H9.24294L15.8245 15.9846Z" fill="#231F20"/>
<path fill-rule="evenodd" clip-rule="evenodd" d="M12 22C17.5228 22 22 17.5228 22 12C22 6.47715 17.5228 2 12 2C6.47715 2 2 6.47715 2 12C2 17.5228 6.47715 22 12 22ZM15.8804 7C15.606 7 15.3438 7.11268 15.155 7.31167L12.4186 10.1954L9.94699 7.18286C9.85202 7.0671 9.71017 7 9.56044 7H6.42576C6.2564 7 6.1637 7.19734 6.27182 7.32769L10.5368 12.4692L6.55743 16.6623C6.4365 16.7897 6.52683 17 6.7025 17H7.86339C8.00051 17 8.13161 16.9437 8.22602 16.8442L11.3967 13.5041L14.1471 16.8193C14.2421 16.9337 14.3831 17 14.5319 17H17.5772C17.7461 17 17.8389 16.8037 17.7318 16.6731L13.2708 11.2359L16.9703 7.33768C17.0912 7.21025 17.0009 7 16.8252 7H15.8804Z" fill="#231F20"/>
</svg>
