<svg width="21" height="21" viewBox="0 0 21 21" fill="none" xmlns="http://www.w3.org/2000/svg">
<path d="M6.99788 17.6839H3.66455C3.44354 17.6839 3.23158 17.5961 3.07529 17.4398C2.91901 17.2835 2.83122 17.0716 2.83122 16.8505V13.5172C2.83122 13.2962 2.74342 13.0842 2.58714 12.928C2.43086 12.7717 2.2189 12.6839 1.99788 12.6839C1.77687 12.6839 1.56491 12.7717 1.40863 12.928C1.25235 13.0842 1.16455 13.2962 1.16455 13.5172V16.8505C1.16455 17.5136 1.42794 18.1495 1.89678 18.6183C2.36562 19.0872 3.00151 19.3505 3.66455 19.3505H6.99788C7.2189 19.3505 7.43086 19.2627 7.58714 19.1065C7.74342 18.9502 7.83122 18.7382 7.83122 18.5172C7.83122 18.2962 7.74342 18.0842 7.58714 17.928C7.43086 17.7717 7.2189 17.6839 6.99788 17.6839ZM18.6645 12.6839C18.4435 12.6839 18.2316 12.7717 18.0753 12.928C17.919 13.0842 17.8312 13.2962 17.8312 13.5172V16.8505C17.8312 17.0716 17.7434 17.2835 17.5871 17.4398C17.4309 17.5961 17.2189 17.6839 16.9979 17.6839H13.6645C13.4435 17.6839 13.2316 17.7717 13.0753 17.928C12.919 18.0842 12.8312 18.2962 12.8312 18.5172C12.8312 18.7382 12.919 18.9502 13.0753 19.1065C13.2316 19.2627 13.4435 19.3505 13.6645 19.3505H16.9979C17.6609 19.3505 18.2968 19.0872 18.7656 18.6183C19.2345 18.1495 19.4979 17.5136 19.4979 16.8505V13.5172C19.4979 13.2962 19.4101 13.0842 19.2538 12.928C19.0975 12.7717 18.8856 12.6839 18.6645 12.6839ZM16.9979 1.01721H13.6645C13.4435 1.01721 13.2316 1.10501 13.0753 1.26129C12.919 1.41757 12.8312 1.62953 12.8312 1.85055C12.8312 2.07156 12.919 2.28352 13.0753 2.4398C13.2316 2.59608 13.4435 2.68388 13.6645 2.68388H16.9979C17.2189 2.68388 17.4309 2.77168 17.5871 2.92796C17.7434 3.08424 17.8312 3.2962 17.8312 3.51721V6.85054C17.8312 7.07156 17.919 7.28352 18.0753 7.4398C18.2316 7.59608 18.4435 7.68388 18.6645 7.68388C18.8856 7.68388 19.0975 7.59608 19.2538 7.4398C19.4101 7.28352 19.4979 7.07156 19.4979 6.85054V3.51721C19.4979 2.85417 19.2345 2.21829 18.7656 1.74944C18.2968 1.2806 17.6609 1.01721 16.9979 1.01721ZM1.99788 7.68388C2.2189 7.68388 2.43086 7.59608 2.58714 7.4398C2.74342 7.28352 2.83122 7.07156 2.83122 6.85054V3.51721C2.83122 3.2962 2.91901 3.08424 3.07529 2.92796C3.23158 2.77168 3.44354 2.68388 3.66455 2.68388H6.99788C7.2189 2.68388 7.43086 2.59608 7.58714 2.4398C7.74342 2.28352 7.83122 2.07156 7.83122 1.85055C7.83122 1.62953 7.74342 1.41757 7.58714 1.26129C7.43086 1.10501 7.2189 1.01721 6.99788 1.01721H3.66455C3.00151 1.01721 2.36562 1.2806 1.89678 1.74944C1.42794 2.21829 1.16455 2.85417 1.16455 3.51721V6.85054C1.16455 7.07156 1.25235 7.28352 1.40863 7.4398C1.56491 7.59608 1.77687 7.68388 1.99788 7.68388ZM8.66455 4.35054H5.33122C5.1102 4.35054 4.89824 4.43834 4.74196 4.59462C4.58568 4.7509 4.49788 4.96286 4.49788 5.18388V8.51721C4.49788 8.73822 4.58568 8.95019 4.74196 9.10647C4.89824 9.26275 5.1102 9.35054 5.33122 9.35054H8.66455C8.88556 9.35054 9.09753 9.26275 9.25381 9.10647C9.41009 8.95019 9.49788 8.73822 9.49788 8.51721V5.18388C9.49788 4.96286 9.41009 4.7509 9.25381 4.59462C9.09753 4.43834 8.88556 4.35054 8.66455 4.35054ZM7.83122 7.68388H6.16455V6.01721H7.83122V7.68388ZM11.9979 9.35054H15.3312C15.5522 9.35054 15.7642 9.26275 15.9205 9.10647C16.0768 8.95019 16.1645 8.73822 16.1645 8.51721V5.18388C16.1645 4.96286 16.0768 4.7509 15.9205 4.59462C15.7642 4.43834 15.5522 4.35054 15.3312 4.35054H11.9979C11.7769 4.35054 11.5649 4.43834 11.4086 4.59462C11.2523 4.7509 11.1645 4.96286 11.1645 5.18388V8.51721C11.1645 8.73822 11.2523 8.95019 11.4086 9.10647C11.5649 9.26275 11.7769 9.35054 11.9979 9.35054ZM12.8312 6.01721H14.4979V7.68388H12.8312V6.01721ZM8.66455 11.0172H5.33122C5.1102 11.0172 4.89824 11.105 4.74196 11.2613C4.58568 11.4176 4.49788 11.6295 4.49788 11.8505V15.1839C4.49788 15.4049 4.58568 15.6169 4.74196 15.7731C4.89824 15.9294 5.1102 16.0172 5.33122 16.0172H8.66455C8.88556 16.0172 9.09753 15.9294 9.25381 15.7731C9.41009 15.6169 9.49788 15.4049 9.49788 15.1839V11.8505C9.49788 11.6295 9.41009 11.4176 9.25381 11.2613C9.09753 11.105 8.88556 11.0172 8.66455 11.0172ZM7.83122 14.3505H6.16455V12.6839H7.83122V14.3505ZM11.9979 13.5172C12.2189 13.5172 12.4309 13.4294 12.5871 13.2731C12.7434 13.1169 12.8312 12.9049 12.8312 12.6839C13.0522 12.6839 13.2642 12.5961 13.4205 12.4398C13.5768 12.2835 13.6645 12.0716 13.6645 11.8505C13.6645 11.6295 13.5768 11.4176 13.4205 11.2613C13.2642 11.105 13.0522 11.0172 12.8312 11.0172H11.9979C11.7769 11.0172 11.5649 11.105 11.4086 11.2613C11.2523 11.4176 11.1645 11.6295 11.1645 11.8505V12.6839C11.1645 12.9049 11.2523 13.1169 11.4086 13.2731C11.5649 13.4294 11.7769 13.5172 11.9979 13.5172ZM15.3312 11.0172C15.1102 11.0172 14.8982 11.105 14.742 11.2613C14.5857 11.4176 14.4979 11.6295 14.4979 11.8505V14.3505C14.2769 14.3505 14.0649 14.4383 13.9086 14.5946C13.7523 14.7509 13.6645 14.9629 13.6645 15.1839C13.6645 15.4049 13.7523 15.6169 13.9086 15.7731C14.0649 15.9294 14.2769 16.0172 14.4979 16.0172H15.3312C15.5522 16.0172 15.7642 15.9294 15.9205 15.7731C16.0768 15.6169 16.1645 15.4049 16.1645 15.1839V11.8505C16.1645 11.6295 16.0768 11.4176 15.9205 11.2613C15.7642 11.105 15.5522 11.0172 15.3312 11.0172ZM11.9979 14.3505C11.8331 14.3505 11.6719 14.3994 11.5349 14.491C11.3979 14.5826 11.2911 14.7127 11.228 14.865C11.1649 15.0172 11.1484 15.1848 11.1806 15.3465C11.2127 15.5081 11.2921 15.6566 11.4086 15.7731C11.5252 15.8897 11.6737 15.969 11.8353 16.0012C11.997 16.0334 12.1645 16.0168 12.3168 15.9538C12.4691 15.8907 12.5992 15.7839 12.6908 15.6469C12.7823 15.5098 12.8312 15.3487 12.8312 15.1839C12.8312 14.9629 12.7434 14.7509 12.5871 14.5946C12.4309 14.4383 12.2189 14.3505 11.9979 14.3505Z" fill="#009DB9"/>
</svg>
