<svg width="68" height="68" viewBox="0 0 68 68" fill="none" xmlns="http://www.w3.org/2000/svg">
<path d="M65.5 27.0789V26.5908C57.2896 24.9395 49.0432 24.5968 40.943 26.2451L65.5 27.0789ZM65.5 27.0789C65.2974 27.2831 65.0886 27.5183 64.8743 27.7889M65.5 27.0789L64.8743 27.7889M64.8743 27.7889C64.0239 28.8627 63.92 30.1555 63.8498 31.028C63.8434 31.1073 63.8373 31.1831 63.8309 31.255L63.8277 31.2918C63.7308 32.3884 63.5868 34.0174 63.055 36.7084M64.8743 27.7889L63.055 36.7084M64.8743 27.7889L65.5 28.2843V28.3021H65.5224L66.8343 29.3409M64.8743 27.7889L63.055 36.7084M63.055 36.7084L65.5075 37.1932M66.8343 29.3409C66.4691 29.8018 66.4209 30.3471 66.3186 31.5043C66.2181 32.6421 66.0652 34.3713 65.5075 37.1932M66.8343 29.3409L65.5232 28.3021L68 25.0615V28.3021C68 28.3021 67.5585 28.4263 66.8343 29.3409ZM65.5075 37.1932C64.3824 42.8844 60.5631 46.8318 52.0257 46.8318C46.8021 46.8318 42.5997 45.0087 39.7498 40.3481L39.3882 32.4585C40.0055 34.908 40.7347 37.1671 41.8825 39.0436L41.8827 39.0439C44.194 42.8237 47.4978 44.3318 52.0257 44.3318C55.9214 44.3318 58.4073 43.4329 60.0022 42.1805C61.5804 40.9412 62.5767 39.1277 63.0549 36.7085L65.5075 37.1932ZM38.6647 27.942L37.8421 28.232C37.4838 28.3583 37.1031 28.4878 36.7254 28.6082C36.8751 28.6458 37.0287 28.6856 37.1849 28.7275L38.715 29.1373L38.9979 30.6959C39.0992 31.254 39.2334 31.8414 39.3876 32.4561L38.6647 27.942ZM38.6647 27.942L39.1284 27.2033M38.6647 27.942L39.1284 27.2033M39.1284 27.2033C39.2977 26.9335 39.6966 26.4994 40.9421 26.2453L39.1284 27.2033ZM30.1565 28.232C30.5149 28.3583 30.8956 28.4879 31.2735 28.6083C31.1246 28.6457 30.9719 28.6853 30.8167 28.7268L29.2857 29.1366L29.0031 30.696C28.9015 31.2569 28.768 31.8438 28.6138 32.4542L28.6135 32.4556C27.9963 34.9058 27.2664 37.1666 26.1186 39.0431L26.1185 39.0432C23.8071 42.8227 20.5026 44.3313 15.9754 44.3313C12.0789 44.3313 9.59272 43.4324 7.99776 42.1801C6.41955 40.9409 5.42329 39.1274 4.94506 36.7079L4.94501 36.7077C4.41275 34.0162 4.26887 32.387 4.17203 31.2904L4.16887 31.2546C4.16251 31.1827 4.15641 31.1067 4.15003 31.0273C4.08004 30.1558 3.97623 28.8632 3.12681 27.7898C2.91225 27.5184 2.70302 27.2826 2.5 27.0779V26.5907C10.7111 24.9384 18.9581 24.5963 27.0574 26.2452L27.0582 26.2454C28.3024 26.4983 28.7006 26.9327 28.8692 27.2017L29.3329 27.9417L30.1565 28.232Z" stroke="black" stroke-width="5"/>
</svg>
