<svg width="175" height="161" viewBox="0 0 175 161" fill="none" xmlns="http://www.w3.org/2000/svg"> <path d="M0.0148575 147.799C0.0148575 147.621 0.163276 147.458 0.356235 147.458H7.68867C7.88163 147.458 8.03007 147.621 8.03007 147.799V149.284C8.03007 149.462 7.88163 149.625 7.68867 149.625H2.3452V153.009H6.79809C6.97621 153.009 7.13949 153.173 7.13949 153.351V154.835C7.13949 155.013 6.97621 155.176 6.79809 155.176H2.3452V159.733C2.3452 159.911 2.18192 160.075 2.0038 160.075H0.341396C0.148437 160.075 0 159.911 0 159.733V147.799H0.0148575Z" fill="black"/> <path d="M22.3544 147.28C25.9612 147.28 28.8407 150.19 28.8407 153.796C28.8407 157.403 25.9612 160.268 22.3544 160.268C18.7475 160.268 15.8828 157.403 15.8828 153.796C15.8828 150.19 18.7475 147.28 22.3544 147.28ZM22.3544 157.908C24.6253 157.908 26.4955 156.052 26.4955 153.781C26.4955 151.511 24.6253 149.611 22.3544 149.611C20.0834 149.611 18.228 151.511 18.228 153.781C18.2132 156.052 20.0685 157.908 22.3544 157.908Z" fill="black"/> <path d="M37.598 147.799C37.598 147.621 37.7613 147.458 37.9394 147.458H39.6464C39.8393 147.458 39.9878 147.621 39.9878 147.799V155.176C39.9878 156.705 41.0268 157.922 42.6001 157.922C44.1735 157.922 45.2273 156.72 45.2273 155.206V147.814C45.2273 147.636 45.3758 147.473 45.5687 147.473H47.2757C47.4538 147.473 47.6171 147.636 47.6171 147.814V155.31C47.6171 158.056 45.4351 160.268 42.5853 160.268C39.7503 160.268 37.5684 158.056 37.5684 155.31V147.799H37.598Z" fill="black"/> <path d="M57.3391 147.592C57.3391 147.414 57.5023 147.265 57.6805 147.265H58.1257L65.6214 155.236H65.6363V147.785C65.6363 147.607 65.7847 147.443 65.9777 147.443H67.6401C67.8182 147.443 67.9815 147.607 67.9815 147.785V159.926C67.9815 160.104 67.8182 160.253 67.6401 160.253H67.2096L59.6694 151.97H59.6546V159.718C59.6546 159.896 59.5061 160.06 59.3132 160.06H57.6656C57.4875 160.06 57.3242 159.896 57.3242 159.718V147.592H57.3391Z" fill="black"/> <path d="M77.8506 147.799C77.8506 147.621 77.999 147.458 78.1771 147.458H82.4519C85.9252 147.458 88.775 150.293 88.775 153.751C88.775 157.254 85.9252 160.075 82.4519 160.075H78.1771C77.999 160.075 77.8506 159.911 77.8506 159.733V147.799ZM82.2293 157.878C84.5745 157.878 86.2814 156.111 86.2814 153.751C86.2814 151.406 84.5745 149.64 82.2293 149.64H80.1661V157.878H82.2293Z" fill="black"/> <path d="M98.394 159.718C98.3198 159.896 98.1565 160.075 97.8745 160.075H96.3011C96.0339 160.075 95.8855 159.837 95.9894 159.6L101.6 147.458C101.659 147.354 101.748 147.265 101.912 147.265H102.09C102.268 147.265 102.342 147.354 102.402 147.458L107.953 159.6C108.057 159.837 107.923 160.075 107.641 160.075H106.068C105.801 160.075 105.667 159.971 105.548 159.718L101.971 151.807H101.912L98.394 159.718Z" fill="black"/> <path d="M117.201 149.625H114.44C114.247 149.625 114.099 149.462 114.099 149.284V147.799C114.099 147.621 114.247 147.458 114.44 147.458H122.322C122.515 147.458 122.663 147.621 122.663 147.799V149.284C122.663 149.462 122.515 149.625 122.322 149.625H119.561V159.748C119.561 159.926 119.398 160.089 119.219 160.089H117.542C117.364 160.089 117.201 159.926 117.201 159.748V149.625Z" fill="black"/> <path d="M131.124 147.799C131.124 147.621 131.287 147.458 131.465 147.458H133.143C133.321 147.458 133.484 147.621 133.484 147.799V159.733C133.484 159.911 133.321 160.075 133.143 160.075H131.465C131.287 160.075 131.124 159.911 131.124 159.733V147.799Z" fill="black"/> <path d="M148.92 147.28C152.527 147.28 155.406 150.19 155.406 153.796C155.406 157.403 152.527 160.268 148.92 160.268C145.313 160.268 142.448 157.403 142.448 153.796C142.448 150.19 145.313 147.28 148.92 147.28ZM148.92 157.908C151.191 157.908 153.061 156.052 153.061 153.781C153.061 151.511 151.191 149.611 148.92 149.611C146.649 149.611 144.793 151.511 144.793 153.781C144.793 156.052 146.649 157.908 148.92 157.908Z" fill="black"/> <path d="M164.358 147.592C164.358 147.414 164.521 147.265 164.699 147.265H165.144L172.64 155.236H172.655V147.785C172.655 147.607 172.803 147.443 172.996 147.443H174.659C174.837 147.443 175 147.607 175 147.785V159.926C175 160.104 174.837 160.253 174.659 160.253H174.228L166.688 151.97H166.673V159.718C166.673 159.896 166.525 160.06 166.332 160.06H164.684C164.506 160.06 164.343 159.896 164.343 159.718V147.592H164.358Z" fill="black"/> <g style="mix-blend-mode:multiply" opacity="0.5"> <path d="M87.8174 87.5386H136.221L87.8174 1.90088V87.5386Z" fill="url(#paint0_linear_397_223786)"/> </g> <path d="M131.947 90.9313C136.489 90.8868 137.454 93.039 134.663 96.4826C123.605 110.198 106.818 119.148 87.8335 119.148C68.8493 119.148 52.0619 110.198 41.0039 96.4826C38.2134 93.039 39.193 90.9017 43.7201 90.9313C65.7917 91.0352 131.947 90.9313 131.947 90.9313Z" fill="url(#paint1_radial_397_223786)"/> <path d="M137.289 81.669C139.545 85.6024 141.861 85.3798 143.464 81.2534C149.817 64.8223 149.178 45.8084 139.679 29.3623C130.179 12.9163 114.045 2.86762 96.6341 0.136508C92.2554 -0.54627 90.875 1.36847 93.1905 5.27218C93.1905 5.27218 126.365 62.5216 137.289 81.669Z" fill="url(#paint2_radial_397_223786)"/> <path d="M82.4882 5.27238C84.774 1.35383 83.4233 -0.546067 79.0446 0.13671C61.6338 2.85298 45.4995 12.9165 36 29.3625C26.5004 45.8086 25.877 64.8224 32.215 81.2536C33.818 85.3948 36.1484 85.6175 38.3897 81.6692C38.3897 81.6692 71.3857 24.3159 82.4882 5.27238Z" fill="url(#paint3_radial_397_223786)"/> <mask id="mask0_397_223786" style="mask-type:alpha" maskUnits="userSpaceOnUse" x="27" y="0" width="121" height="120"> <path d="M131.819 90.9313C136.361 90.8868 137.326 93.039 134.535 96.4826C123.477 110.198 106.69 119.148 87.7056 119.148C68.7214 119.148 51.934 110.198 40.876 96.4826C38.0855 93.039 39.0651 90.9017 43.5922 90.9313C65.6637 91.0352 131.819 90.9313 131.819 90.9313Z" fill="white"/> <path d="M137.162 81.669C139.418 85.6024 141.734 85.3798 143.337 81.2534C149.69 64.8223 149.051 45.8084 139.552 29.3623C130.052 12.9163 113.918 2.86762 96.5072 0.136508C92.1285 -0.54627 90.7481 1.36847 93.0636 5.27218C93.0636 5.27218 126.238 62.5216 137.162 81.669Z" fill="white"/> <path d="M82.3613 5.27238C84.6471 1.35383 83.2964 -0.546067 78.9177 0.13671C61.5068 2.85298 45.3725 12.9165 35.873 29.3625C26.3735 45.8086 25.7501 64.8224 32.088 81.2536C33.6911 85.3948 36.0214 85.6175 38.2627 81.6692C38.2627 81.6692 71.2587 24.3159 82.3613 5.27238Z" fill="white"/> </mask> <g mask="url(#mask0_397_223786)"> <g opacity="0.25" filter="url(#filter0_f_397_223786)"> <path d="M45.8151 34.9595C37.7749 48.8861 32.2421 65.1076 32.0904 81.1111C25.7443 64.6746 26.3792 45.6661 35.8753 29.2201C45.3715 12.774 61.5128 2.7222 78.92 0C65.1344 8.13188 53.8551 21.0361 45.8151 34.9595ZM139.554 29.2211C130.059 12.7751 113.915 2.72325 96.5097 0.00104184C110.293 8.13248 121.574 21.0367 129.613 34.9601C137.652 48.8836 143.187 65.1052 143.337 81.1088C149.683 64.6716 149.05 45.6659 139.554 29.2211ZM131.822 90.7889C131.822 90.7889 65.66 90.8919 43.6065 90.7889C57.1721 98.0777 72.3227 102.311 87.7149 102.311C103.107 102.311 118.258 98.0783 131.822 90.7889Z" fill="black"/> </g> <g opacity="0.2" filter="url(#filter1_f_397_223786)"> <path d="M87.7159 107.533C103.794 107.533 120.61 104.216 134.546 96.3435C123.483 110.058 106.706 119.011 87.7148 119.011C68.724 119.011 51.9484 110.058 40.887 96.3435C54.8219 104.215 71.6357 107.533 87.7159 107.533ZM50.336 37.5691C42.6407 50.9005 38.7297 66.138 38.2598 81.5287C38.2598 81.5287 71.2523 24.1818 82.3682 5.13184C69.2724 13.2367 58.0329 24.2407 50.336 37.5691ZM93.0598 5.13184C93.0598 5.13184 126.231 62.3787 137.168 81.5287C136.698 66.135 132.789 50.9005 125.092 37.5691C117.395 24.2407 106.155 13.2337 93.0598 5.13184Z" fill="white"/> </g> </g> <defs> <filter id="filter0_f_397_223786" x="24.9258" y="-3" width="125.577" height="108.312" filterUnits="userSpaceOnUse" color-interpolation-filters="sRGB"> <feFlood flood-opacity="0" result="BackgroundImageFix"/> <feBlend mode="normal" in="SourceGraphic" in2="BackgroundImageFix" result="shape"/> <feGaussianBlur stdDeviation="1.5" result="effect1_foregroundBlur_397_223786"/> </filter> <filter id="filter1_f_397_223786" x="35.2598" y="2.13184" width="104.908" height="119.879" filterUnits="userSpaceOnUse" color-interpolation-filters="sRGB"> <feFlood flood-opacity="0" result="BackgroundImageFix"/> <feBlend mode="normal" in="SourceGraphic" in2="BackgroundImageFix" result="shape"/> <feGaussianBlur stdDeviation="1.5" result="effect1_foregroundBlur_397_223786"/> </filter> <linearGradient id="paint0_linear_397_223786" x1="87.8174" y1="111.702" x2="87.4944" y2="1.86297" gradientUnits="userSpaceOnUse"> <stop offset="0.216102" stop-color="white" stop-opacity="0"/> <stop offset="1"/> </linearGradient> <radialGradient id="paint1_radial_397_223786" cx="0" cy="0" r="1" gradientUnits="userSpaceOnUse" gradientTransform="translate(87.6666 59.1799) scale(59.8856)"> <stop offset="0.5" stop-color="#BB6E5A"/> <stop offset="0.75" stop-color="#DE9173"/> <stop offset="1" stop-color="#FAC2A9"/> </radialGradient> <radialGradient id="paint2_radial_397_223786" cx="0" cy="0" r="1" gradientUnits="userSpaceOnUse" gradientTransform="translate(87.7626 59.2769) scale(59.8729)"> <stop offset="0.5" stop-color="#FAC2A9"/> <stop offset="0.75" stop-color="#DE9173"/> <stop offset="1" stop-color="#BB6E5A"/> </radialGradient> <radialGradient id="paint3_radial_397_223786" cx="0" cy="0" r="1" gradientUnits="userSpaceOnUse" gradientTransform="translate(87.8108 59.2527) scale(59.9589)"> <stop offset="0.5" stop-color="#FAC2A9"/> <stop offset="0.75" stop-color="#DE9173"/> <stop offset="1" stop-color="#BB6E5A"/> </radialGradient> </defs> </svg>
