<svg width="32" height="32" viewBox="0 0 32 32" fill="none" xmlns="http://www.w3.org/2000/svg">
<path opacity="0.35" fill-rule="evenodd" clip-rule="evenodd" d="M32 16C32 24.8366 24.8366 32 16 32C7.16344 32 0 24.8366 0 16C0 7.16344 7.16344 0 16 0C24.8366 0 32 7.16344 32 16ZM17.4335 11.422L6.65895 15.8613C4.763 16.6012 5.87282 17.2948 5.87282 17.2948C5.87282 17.2948 7.49132 17.8497 8.87862 18.2659C10.2659 18.6821 11.0058 18.2197 11.0058 18.2197L17.526 13.8266C19.8382 12.2544 19.2832 13.5491 18.7283 14.104C17.526 15.3063 15.5376 17.2023 13.8728 18.7283C13.1329 19.3757 13.5029 19.9306 13.8266 20.2081C14.7676 21.0043 16.9834 22.4521 17.9906 23.1103C18.2704 23.293 18.4569 23.4149 18.4971 23.4451C18.7283 23.63 20.0231 24.4624 20.8092 24.2775C21.5954 24.0924 21.6878 23.0289 21.6878 23.0289L22.8439 15.7688C22.9467 15.0881 23.0494 14.4218 23.1452 13.8004C23.3944 12.1842 23.5966 10.8722 23.63 10.4046C23.7688 8.8324 22.104 9.47977 22.104 9.47977C22.104 9.47977 18.4971 10.9595 17.4335 11.422Z" fill="white"/>
</svg>
