<svg width="48" height="48" viewBox="0 0 48 48" fill="none" xmlns="http://www.w3.org/2000/svg">
<path d="M23.9887 4C20.033 4 16.1662 5.17298 12.8773 7.37061C9.58827 9.56824 7.02482 12.6918 5.51107 16.3463C3.99731 20.0009 3.60125 24.0222 4.37295 27.9018C5.14466 31.7814 7.04947 35.3451 9.84652 38.1421C12.6436 40.9392 16.2072 42.844 20.0869 43.6157C23.9665 44.3874 27.9878 43.9913 31.6423 42.4776C35.2968 40.9638 38.4204 38.4004 40.618 35.1114C42.8157 31.8224 43.9887 27.9556 43.9887 24C43.9889 21.3735 43.4717 18.7727 42.4667 16.3461C41.4617 13.9195 39.9885 11.7146 38.1313 9.85738C36.2741 8.00016 34.0692 6.52698 31.6426 5.52197C29.216 4.51695 26.6152 3.99978 23.9887 4ZM30.3477 34.3049C30.2728 34.4916 30.1589 34.6601 30.0136 34.7991C29.8683 34.9382 29.695 35.0446 29.5052 35.1111C29.3154 35.1777 29.1136 35.2029 28.9133 35.1851C28.7129 35.1673 28.5187 35.1069 28.3437 35.0079L22.9143 30.7892L19.4297 34.004C19.3488 34.0637 19.2543 34.1022 19.1547 34.1158C19.055 34.1294 18.9536 34.1177 18.8597 34.0819L19.5277 28.105L19.5491 28.1219L19.5627 28.0039C19.5627 28.0039 29.3327 19.1089 29.7307 18.7299C30.1337 18.3519 30.0007 18.2699 30.0007 18.2699C30.0237 17.8089 29.2777 18.2699 29.2777 18.2699L16.3327 26.598L10.9417 24.762C10.9417 24.762 10.1137 24.465 10.0357 23.812C9.95368 23.164 10.9687 22.812 10.9687 22.812L32.4027 14.297C32.4027 14.297 34.1647 13.5119 34.1647 14.812L30.3477 34.3049Z" fill="#525152"/>
</svg>
