<svg width="37" height="31" viewBox="0 0 37 31" fill="none" xmlns="http://www.w3.org/2000/svg">
<path opacity="0.35" d="M37 3.66992C35.6241 4.29231 34.1579 4.70485 32.6294 4.90515C34.2019 3.937 35.4021 2.41562 35.9663 0.581846C34.5002 1.48323 32.8814 2.11992 31.1563 2.47523C29.7642 0.946692 27.7801 0 25.6156 0C21.4161 0 18.0352 3.51492 18.0352 7.82392C18.0352 8.44392 18.0861 9.04008 18.2109 9.60762C11.9047 9.29046 6.32469 6.17377 2.57613 1.426C1.92169 2.59685 1.53781 3.937 1.53781 5.37969C1.53781 8.08862 2.89062 10.4899 4.90712 11.8802C3.68844 11.8563 2.49288 11.4915 1.48 10.9168C1.48 10.9406 1.48 10.9716 1.48 11.0026C1.48 14.8037 4.10931 17.9609 7.55725 18.6882C6.93981 18.8623 6.26688 18.9458 5.5685 18.9458C5.08288 18.9458 4.59263 18.9172 4.13244 18.8122C5.11525 21.9098 7.90412 24.1872 11.2203 24.2611C8.6395 26.3428 5.36269 27.5972 1.81531 27.5972C1.19325 27.5972 0.596625 27.5685 0 27.4898C3.36006 29.7242 7.34219 31 11.6365 31C25.5948 31 33.226 19.0769 33.226 8.742C33.226 8.39623 33.2144 8.06238 33.1982 7.73092C34.7037 6.62923 35.9686 5.25331 37 3.66992Z" fill="white"/>
</svg>
