<svg width="74" height="66" viewBox="0 0 74 66" fill="none" xmlns="http://www.w3.org/2000/svg">
<path d="M52.2005 38.158L52.1994 38.1569C52.1998 38.1573 52.2001 38.1576 52.2005 38.158ZM52.2005 38.158C52.2005 38.158 52.2006 38.1581 52.2006 38.1581L52.2005 38.1581L52.2005 38.158ZM34.528 38.8475L35.9595 40.279L34.528 38.8475ZM50.8211 39.5374C50.8205 39.5368 50.8199 39.5363 50.8194 39.5357L50.8211 39.5374ZM13.006 58.6415L13.0118 58.6646L13.0179 58.6875C13.6207 60.9466 15.6326 62.5413 17.999 62.5413H24.8317C27.2594 62.5413 29.1375 60.891 29.7336 58.803L29.7472 58.7552L29.7593 58.707L29.9719 57.8561H44.0279L44.2406 58.707L44.2528 58.7559L44.2667 58.8044C44.8941 60.9981 46.913 62.5413 49.2336 62.5413H56.0662C58.494 62.5413 60.372 60.891 60.9681 58.803L60.9818 58.7552L60.9938 58.707L61.2078 57.8509C66.6334 57.6775 70.909 53.1988 70.909 47.8283V13.21C70.909 7.71434 66.3779 3.18182 60.8815 3.18182H13.1186C7.53905 3.18182 3.09082 7.73182 3.09082 13.2096V47.7629C3.09082 53.2312 7.46114 57.6128 12.792 57.7854L13.006 58.6415Z" stroke="black" stroke-width="6"/>
</svg>
