<svg width="52" height="52" viewBox="0 0 52 52" fill="none" xmlns="http://www.w3.org/2000/svg">
<g clip-path="url(#clip0_595_219029)">
<path fill-rule="evenodd" clip-rule="evenodd" d="M40.8001 13.537H43.3501C45.379 13.537 47.3248 14.3828 48.7594 15.8883C50.1941 17.3938 51.0001 19.4357 51.0001 21.5648V42.9722C51.0001 45.1013 50.1941 47.1432 48.7594 48.6487C47.3248 50.1542 45.379 51 43.3501 51H7.65006C5.62116 51 3.67535 50.1542 2.24069 48.6487C0.806041 47.1432 6.10352e-05 45.1013 6.10352e-05 42.9722V10.8611C6.10352e-05 8.73201 0.806041 6.69011 2.24069 5.18461C3.67535 3.67911 5.62116 2.83333 7.65006 2.83333H33.1501C35.179 2.83333 37.1248 3.67911 38.5594 5.18461C39.9941 6.69011 40.8001 8.73201 40.8001 10.8611V13.537ZM7.65006 8.18518H33.1501C33.8264 8.18518 34.475 8.46711 34.9532 8.96894C35.4314 9.47078 35.7001 10.1514 35.7001 10.8611V13.537H7.65006C6.97376 13.537 6.32516 13.2551 5.84694 12.7533C5.36872 12.2514 5.10006 11.5708 5.10006 10.8611C5.10006 10.1514 5.36872 9.47078 5.84694 8.96894C6.32516 8.46711 6.97376 8.18518 7.65006 8.18518ZM45.9001 42.9722C45.9001 43.6819 45.6314 44.3625 45.1532 44.8644C44.675 45.3662 44.0264 45.6481 43.3501 45.6481H7.65006C6.97376 45.6481 6.32516 45.3662 5.84694 44.8644C5.36872 44.3625 5.10006 43.6819 5.10006 42.9722V18.434C5.91929 18.7364 6.78162 18.8902 7.65006 18.8889H43.3501C44.0264 18.8889 44.675 19.1708 45.1532 19.6726C45.6314 20.1745 45.9001 20.8551 45.9001 21.5648V42.9722Z" fill="black"/>
</g>
<defs>
<clipPath id="clip0_595_219029">
<rect width="51" height="51" fill="white" transform="translate(0.5 0.5)"/>
</clipPath>
</defs>
</svg>
