<svg width="68" height="68" viewBox="0 0 68 68" fill="none" xmlns="http://www.w3.org/2000/svg">
<g clip-path="url(#clip0_595_219028)">
<path fill-rule="evenodd" clip-rule="evenodd" d="M48.8001 21.537H51.3501C53.379 21.537 55.3248 22.3828 56.7594 23.8883C58.1941 25.3938 59.0001 27.4357 59.0001 29.5648V50.9722C59.0001 53.1013 58.1941 55.1432 56.7594 56.6487C55.3248 58.1542 53.379 59 51.3501 59H15.6501C13.6212 59 11.6753 58.1542 10.2407 56.6487C8.80604 55.1432 8.00006 53.1013 8.00006 50.9722V18.8611C8.00006 16.732 8.80604 14.6901 10.2407 13.1846C11.6753 11.6791 13.6212 10.8333 15.6501 10.8333H41.1501C43.179 10.8333 45.1248 11.6791 46.5594 13.1846C47.9941 14.6901 48.8001 16.732 48.8001 18.8611V21.537ZM15.6501 16.1852H41.1501C41.8264 16.1852 42.475 16.4671 42.9532 16.9689C43.4314 17.4708 43.7001 18.1514 43.7001 18.8611V21.537H15.6501C14.9738 21.537 14.3252 21.2551 13.8469 20.7533C13.3687 20.2514 13.1001 19.5708 13.1001 18.8611C13.1001 18.1514 13.3687 17.4708 13.8469 16.9689C14.3252 16.4671 14.9738 16.1852 15.6501 16.1852ZM53.9001 50.9722C53.9001 51.6819 53.6314 52.3625 53.1532 52.8644C52.675 53.3662 52.0264 53.6481 51.3501 53.6481H15.6501C14.9738 53.6481 14.3252 53.3662 13.8469 52.8644C13.3687 52.3625 13.1001 51.6819 13.1001 50.9722V26.434C13.9193 26.7364 14.7816 26.8902 15.6501 26.8889H51.3501C52.0264 26.8889 52.675 27.1708 53.1532 27.6726C53.6314 28.1745 53.9001 28.8551 53.9001 29.5648V50.9722Z" fill="black"/>
</g>
<defs>
<clipPath id="clip0_595_219028">
<rect width="51" height="51" fill="white" transform="translate(8.5 8.5)"/>
</clipPath>
</defs>
</svg>
