<svg width="11" height="14" viewBox="0 0 11 14" fill="none" xmlns="http://www.w3.org/2000/svg">
<g id="Component 221" clip-path="url(#clip0_1077_168230)">
<path id="Vector" d="M10.1966 5.00004C10.1966 4.2928 9.91566 3.61452 9.41556 3.11442C8.91547 2.61433 8.23719 2.33337 7.52995 2.33337V1.00004C7.52995 0.82323 7.45971 0.65366 7.33469 0.528636C7.20966 0.403612 7.04009 0.333374 6.86328 0.333374C6.68647 0.333374 6.5169 0.403612 6.39188 0.528636C6.26685 0.65366 6.19661 0.82323 6.19661 1.00004V2.33337H4.86328V1.00004C4.86328 0.82323 4.79304 0.65366 4.66802 0.528636C4.54299 0.403612 4.37343 0.333374 4.19661 0.333374C4.0198 0.333374 3.85023 0.403612 3.72521 0.528636C3.60019 0.65366 3.52995 0.82323 3.52995 1.00004V2.33337H1.52995C1.35314 2.33337 1.18357 2.40361 1.05854 2.52864C0.933519 2.65366 0.863281 2.82323 0.863281 3.00004C0.863281 3.17685 0.933519 3.34642 1.05854 3.47144C1.18357 3.59647 1.35314 3.66671 1.52995 3.66671H2.19661V10.3334H1.52995C1.35314 10.3334 1.18357 10.4036 1.05854 10.5286C0.933519 10.6537 0.863281 10.8232 0.863281 11C0.863281 11.1769 0.933519 11.3464 1.05854 11.4714C1.18357 11.5965 1.35314 11.6667 1.52995 11.6667H3.52995V13C3.52995 13.1769 3.60019 13.3464 3.72521 13.4714C3.85023 13.5965 4.0198 13.6667 4.19661 13.6667C4.37343 13.6667 4.54299 13.5965 4.66802 13.4714C4.79304 13.3464 4.86328 13.1769 4.86328 13V11.6667H6.19661V13C6.19661 13.1769 6.26685 13.3464 6.39188 13.4714C6.5169 13.5965 6.68647 13.6667 6.86328 13.6667C7.04009 13.6667 7.20966 13.5965 7.33469 13.4714C7.45971 13.3464 7.52995 13.1769 7.52995 13V11.6667C8.07014 11.6632 8.59655 11.4958 9.03947 11.1865C9.48239 10.8773 9.82094 10.4408 10.0103 9.93486C10.1997 9.42893 10.2309 8.87742 10.0999 8.35334C9.96887 7.82927 9.68178 7.35734 9.27661 7.00004C9.5635 6.75137 9.79397 6.44432 9.95263 6.09941C10.1113 5.7545 10.1945 5.37969 10.1966 5.00004ZM7.52995 10.3334H3.52995V7.66671H7.52995C7.88357 7.66671 8.22271 7.80718 8.47276 8.05723C8.7228 8.30728 8.86328 8.64642 8.86328 9.00004C8.86328 9.35366 8.7228 9.6928 8.47276 9.94285C8.22271 10.1929 7.88357 10.3334 7.52995 10.3334ZM7.52995 6.33337H3.52995V3.66671H7.52995C7.88357 3.66671 8.22271 3.80718 8.47276 4.05723C8.7228 4.30728 8.86328 4.64642 8.86328 5.00004C8.86328 5.35366 8.7228 5.6928 8.47276 5.94285C8.22271 6.1929 7.88357 6.33337 7.52995 6.33337Z" fill="black"/>
</g>
<defs>
<clipPath id="clip0_1077_168230">
<rect width="10" height="14" fill="white" transform="translate(0.863281)"/>
</clipPath>
</defs>
</svg>
