<svg width="15" height="15" viewBox="0 0 15 15" fill="none" xmlns="http://www.w3.org/2000/svg">
<g id="Icon" clip-path="url(#clip0_9300_29985)">
<path id="Vector" d="M7.5 0.625C6.14026 0.625 4.81105 1.02821 3.68046 1.78365C2.54987 2.53908 1.66868 3.61281 1.14833 4.86905C0.627979 6.12529 0.491831 7.50763 0.757104 8.84125C1.02238 10.1749 1.67716 11.3999 2.63864 12.3614C3.60013 13.3228 4.82514 13.9776 6.15876 14.2429C7.49238 14.5082 8.87471 14.372 10.131 13.8517C11.3872 13.3313 12.4609 12.4501 13.2164 11.3195C13.9718 10.189 14.375 8.85975 14.375 7.5C14.375 5.67664 13.6507 3.92795 12.3614 2.63864C11.0721 1.34933 9.32337 0.625 7.5 0.625ZM7.5 13.125C6.38748 13.125 5.29995 12.7951 4.37492 12.177C3.44989 11.5589 2.72892 10.6804 2.30318 9.65259C1.87744 8.62476 1.76604 7.49376 1.98309 6.40262C2.20013 5.31147 2.73586 4.30919 3.52253 3.52252C4.3092 2.73585 5.31148 2.20012 6.40262 1.98308C7.49376 1.76604 8.62476 1.87743 9.6526 2.30318C10.6804 2.72892 11.5589 3.44989 12.177 4.37492C12.7951 5.29994 13.125 6.38748 13.125 7.5C13.125 8.99184 12.5324 10.4226 11.4775 11.4775C10.4226 12.5324 8.99185 13.125 7.5 13.125ZM8.75 4.375V3.75C8.75 3.58424 8.68415 3.42527 8.56694 3.30806C8.44973 3.19085 8.29076 3.125 8.125 3.125C7.95924 3.125 7.80027 3.19085 7.68306 3.30806C7.56585 3.42527 7.5 3.58424 7.5 3.75V4.375H6.875V3.75C6.875 3.58424 6.80915 3.42527 6.69194 3.30806C6.57473 3.19085 6.41576 3.125 6.25 3.125C6.08424 3.125 5.92527 3.19085 5.80806 3.30806C5.69085 3.42527 5.625 3.58424 5.625 3.75V4.375H5C4.83424 4.375 4.67527 4.44085 4.55806 4.55806C4.44085 4.67527 4.375 4.83424 4.375 5C4.375 5.16576 4.44085 5.32473 4.55806 5.44194C4.67527 5.55915 4.83424 5.625 5 5.625H5.625V9.375H5C4.83424 9.375 4.67527 9.44085 4.55806 9.55806C4.44085 9.67527 4.375 9.83424 4.375 10C4.375 10.1658 4.44085 10.3247 4.55806 10.4419C4.67527 10.5592 4.83424 10.625 5 10.625H5.625V11.25C5.625 11.4158 5.69085 11.5747 5.80806 11.6919C5.92527 11.8092 6.08424 11.875 6.25 11.875C6.41576 11.875 6.57473 11.8092 6.69194 11.6919C6.80915 11.5747 6.875 11.4158 6.875 11.25V10.625H7.5V11.25C7.5 11.4158 7.56585 11.5747 7.68306 11.6919C7.80027 11.8092 7.95924 11.875 8.125 11.875C8.29076 11.875 8.44973 11.8092 8.56694 11.6919C8.68415 11.5747 8.75 11.4158 8.75 11.25V10.625C9.24728 10.625 9.7242 10.4275 10.0758 10.0758C10.4275 9.72419 10.625 9.24728 10.625 8.75C10.624 8.28829 10.4526 7.8432 10.1438 7.5C10.4526 7.1568 10.624 6.71171 10.625 6.25C10.625 5.75272 10.4275 5.27581 10.0758 4.92417C9.7242 4.57254 9.24728 4.375 8.75 4.375ZM8.75 9.375H6.875V8.125H8.75C8.91576 8.125 9.07473 8.19085 9.19194 8.30806C9.30915 8.42527 9.375 8.58424 9.375 8.75C9.375 8.91576 9.30915 9.07473 9.19194 9.19194C9.07473 9.30915 8.91576 9.375 8.75 9.375ZM8.75 6.875H6.875V5.625H8.75C8.91576 5.625 9.07473 5.69085 9.19194 5.80806C9.30915 5.92527 9.375 6.08424 9.375 6.25C9.375 6.41576 9.30915 6.57473 9.19194 6.69194C9.07473 6.80915 8.91576 6.875 8.75 6.875Z" fill="black"/>
</g>
<defs>
<clipPath id="clip0_9300_29985">
<rect width="15" height="15" fill="white"/>
</clipPath>
</defs>
</svg>
