<svg xmlns="http://www.w3.org/2000/svg" width="68" height="68" fill="none"><path fill="#000" d="m31.0624 34.3966-2.0256 8.2119c2.5004.628 10.2127 3.1324 11.3523-1.5001 1.1916-4.8313-6.8263-6.0807-9.3267-6.7118Zm2.7629-11.2071-1.8363 7.4479c2.0822.525 8.501 2.6657 9.5411-1.5479 1.0834-4.3955-5.6225-5.3752-7.7048-5.9Zm14.9919 5.9668c-.0714 1.3045-.572 2.5488-1.4238 3.5394-.8517.9906-2.007 1.6719-3.286 1.938.8406.3422 1.6012.8549 2.2339 1.5057.6327.6508 1.1237 1.4255 1.4422 2.2755.3184.85.4573 1.7567.4079 2.663-.0494.9063-.286 1.7925-.6949 2.6028-1.9907 5.7533-6.7205 6.239-13.0102 5.0351l-1.5266 6.187-3.6884-.9297 1.5066-6.104c-.9561-.2401-1.9331-.4952-2.9395-.7714l-1.5119 6.1325-3.6843-.9297 1.5266-6.1986c-.8616-.2231-1.7367-.4601-2.6297-.6863l-4.7999-1.2102 1.8312-4.2701s2.7176.731 2.6809.6769c.1692.054.3473.0738.5242.0584.1769-.0154.349-.0658.5062-.1482.1573-.0825.2966-.1953.4099-.332.1133-.1367.1983-.2945.2502-.4643l4.1392-16.7885c.0531-.5144-.0969-1.0292-.418-1.4345-.321-.4053-.7878-.6691-1.3007-.7351.0578-.0393-2.6792-.6737-2.6792-.6737l.9813-3.9843 5.0868 1.2845-.0042.0193c.7647.1922 1.5526.375 2.3554.5599l1.5117-6.1264 3.6864.9297-1.4811 6.0062c.9896.2285 1.9856.459 2.9553.7035l1.4707-5.967 3.6886.9297-1.5107 6.1285c4.6569 1.6223 8.0629 4.0545 7.3939 8.5784Z"/><path fill="#000" fill-rule="evenodd" d="m30.4874 22.5245.2808-1.1387-.4291-.0989c-.0163-.0037-.0326-.0075-.0489-.0113.1141.4057.1807.8248.1972 1.2489Zm-1.7362-5.13-.0042.0193c.7647.1922 1.5526.375 2.3554.5599l1.5117-6.1264 3.6864.9297-1.4811 6.0062c.696.1607 1.3951.3224 2.0861.4893.2914.0704.5815.1417.8692.2142l1.4707-5.967 3.6886.9297-1.5107 6.1285c4.6569 1.6223 8.0629 4.0545 7.3939 8.5784-.0698 1.2739-.5488 2.4905-1.3645 3.4693-.0195.0235-.0393.0469-.0593.0701-.8517.9906-2.007 1.6719-3.286 1.938.8406.3422 1.6012.8549 2.2339 1.5057.2987.3072.5658.6421.7981.9994.2598.3996.476.8274.6441 1.2761.3184.85.4573 1.7567.4079 2.663-.0494.9063-.286 1.7925-.6949 2.6028-1.9907 5.7533-6.7205 6.239-13.0102 5.0351l-1.5266 6.187-3.6884-.9297 1.5066-6.104c-.9561-.2401-1.9331-.4952-2.9395-.7714l-1.5119 6.1325-3.6843-.9297 1.5266-6.1986c-.3445-.0892-.6911-.1806-1.0402-.2726-.524-.1382-1.0535-.2779-1.5895-.4137l-4.7999-1.2102 1.8312-4.2701s2.5551.6873 2.6768.6797l.0034-.0006.0007-.0022c.1692.054.3473.0738.5242.0584.1769-.0154.349-.0658.5062-.1482.1573-.0825.2966-.1953.4099-.332.1133-.1367.1983-.2945.2502-.4643l4.1392-16.7885c.0531-.5144-.0969-1.0292-.418-1.4345-.321-.4053-.7878-.6691-1.3007-.7351l.0004-.0028s-.0024-.0024-.0048-.0038c-.0092-.0054-.0301-.0133-.061-.0233-.4129-.1336-2.6138-.6438-2.6138-.6438l.9813-3.9843 5.0868 1.2845Zm-3.8379 25.388c.0362.0094.0722.0188.1078.028l.35.0906.0015-.0058.0857.0235.294-1.1919c-.1299.2223-.278.4342-.4431.6333-.1235.149-.2558.29-.3959.4223Zm16.3915 2.8588c.0993-.0247.1954-.0516.2885-.0805 1.071-.3333 2.0069-1.0172 2.6902-2.9919l.0747-.2158.1029-.204c.1973-.3911.3115-.8188.3353-1.2562.0238-.4374-.0432-.875-.1969-1.2852-.1536-.4102-.3906-.7842-.696-1.0983-.0857-.0882-.1764-.1711-.2713-.2485.3346 1.1167.381 2.3523.058 3.6616-.3989 1.62-1.2643 2.8553-2.3854 3.7188Zm-.9157-4.5329c1.0718-4.3457-5.3078-5.7934-8.4206-6.4998-.2767-.0628-.5276-.1197-.7451-.1723-.0559-.0135-.1096-.0268-.161-.0397l-2.0256 8.2119c.2064.0519.4484.1165.7192.1889 3.0098.8039 9.5876 2.561 10.6331-1.689Zm4.1896-10.3888c.0838-.0745.163-.1549.2367-.2407.3631-.4222.5764-.9525.6069-1.5086l.0086-.1564.0229-.1549c.1668-1.1281-.1089-1.8064-.7037-2.4369.3575 1.1303.4027 2.3767.0812 3.6811l-.0003.0011c-.0698.283-.1543.5548-.2523.8153Zm-9.2835.7111c-.1219-.0215-.2428-.0441-.3625-.0675-.888-.174-1.7076-.3952-2.3392-.5657-.2278-.0615-.4312-.1164-.6045-.1601l1.8363-7.4479c.0366.0092.0746.0186.114.0281.1872.0452.4051.094.6464.148.6436.1441 1.4542.3256 2.2948.5771.0806.0242.1615.0489.2426.0744 2.4854.7803 5.1165 2.1939 4.407 5.0724-.6811 2.7594-3.6689 2.7937-6.2349 2.3412Z" clip-rule="evenodd"/><path fill="#000" fill-rule="evenodd" d="M34 61.625c15.2569 0 27.625-12.3681 27.625-27.625S49.2569 6.375 34 6.375 6.375 18.7431 6.375 34 18.7431 61.625 34 61.625ZM34 68c18.7777 0 34-15.2223 34-34S52.7777 0 34 0 0 15.2223 0 34s15.2223 34 34 34Z" clip-rule="evenodd"/></svg>