<svg xmlns="http://www.w3.org/2000/svg" width="64" height="64" fill="none"><path fill="#000" fill-rule="evenodd" d="M32 6.472C17.901 6.472 6.472 17.902 6.472 32 6.472 46.1 17.902 57.528 32 57.528 46.1 57.528 57.528 46.1 57.528 32c0-14.099-11.43-25.528-25.528-25.528ZM0 32C0 14.327 14.327 0 32 0c17.673 0 32 14.327 32 32 0 17.673-14.327 32-32 32C14.327 64 0 49.673 0 32Z" clip-rule="evenodd"/><path fill="#000" fill-rule="evenodd" d="M47.965 17.53c.657.657.82 1.66.404 2.491L39.24 38.276a2.157 2.157 0 0 1-.964.964L20.02 48.37a2.157 2.157 0 0 1-2.894-2.895l9.128-18.255c.21-.417.548-.756.965-.965l18.255-9.128a2.157 2.157 0 0 1 2.49.404Z" clip-rule="evenodd"/><path fill="#F5F5F5" d="M37.178 32.43a4.315 4.315 0 1 1-8.63 0 4.315 4.315 0 0 1 8.63 0Z"/></svg>