<svg xmlns="http://www.w3.org/2000/svg" width="20" height="20" fill="none"><g stroke="#ffffff" stroke-linecap="round" stroke-linejoin="round" stroke-width="2" clip-path="url(#a)"><path d="M16.6667 7.5H9.16667C8.24619 7.5 7.5 8.24619 7.5 9.16667v7.50003c0 .9204.74619 1.6666 1.66667 1.6666h7.50003c.9204 0 1.6666-.7462 1.6666-1.6666V9.16667c0-.92048-.7462-1.66667-1.6666-1.66667Z"/><path d="M4.1665 12.5h-.83333c-.44203 0-.86595-.1756-1.17851-.4882-.31256-.3125-.48816-.7364-.48816-1.1785V3.33334c0-.44203.1756-.86595.48816-1.17851.31256-.31256.73648-.48816 1.17851-.48816h7.50003c.442 0 .8659.1756 1.1785.48816.3125.31256.4881.73648.4881 1.17851v.83333"/></g><defs><clipPath id="a"><path fill="#fff" d="M0 0h20v20H0z"/></clipPath></defs></svg>