<svg width="25" height="24" fill="none" xmlns="http://www.w3.org/2000/svg">
    <g opacity=".75" clip-path="url(#a)">
        <path d="M23.52 24a.9.9 0 0 1-.7-.3l-4.5-4.5a9.98 9.98 0 0 1-5.8 1.8C5 21 .8 12.8.6 12.4c-.1-.3-.1-.6 0-.9C1.7 9.4 3.2 7.5 5 6L.8 1.7C.4 1.3.4.7.8.3c.4-.4 1-.4 1.4 0l5 5 3.81 3.8 4.2 4.2 3.8 3.8 5.01 5c.4.4.4 1 0 1.4 0 .4-.2.5-.5.5ZM2.6 12c.9 1.6 4.5 7 9.91 7 1.5 0 3-.4 4.4-1.2l-2.3-2.3c-.6.4-1.3.6-2 .6a4.1 4.1 0 0 1-4.2-3.9c0-.8.2-1.6.6-2.3L6.5 7.4C4.9 8.7 3.7 10.2 2.6 12Zm7.91-.6c-.1.2-.1.5-.1.7 0 .5.2 1 .6 1.4.4.4.9.6 1.4.5.2 0 .4 0 .6-.1l-2.5-2.5Zm10.81 4.8c-.2 0-.5-.1-.6-.2-.4-.4-.5-1-.1-1.4.7-.8 1.3-1.6 1.8-2.5-.9-1.6-4.5-7-9.9-7-.6 0-1.3.1-1.9.2a1.3 1.3 0 0 1-1.21-.8c-.1-.6.2-1.1.8-1.2.7-.2 1.5-.3 2.3-.3 7.51 0 11.71 8.2 11.91 8.6.1.3.1.6 0 .9-.6 1.2-1.4 2.3-2.3 3.4-.2.2-.5.3-.8.3Z" fill="#009DB9"/>
    </g>
    <defs>
        <clipPath id="a">
            <path fill="#fff" transform="translate(.5)" d="M0 0h24v24H0z"/>
        </clipPath>
    </defs>
</svg>