<svg width="25" height="24" fill="none" xmlns="http://www.w3.org/2000/svg">
    <g opacity=".75" clip-path="url(#a)">
        <path d="M12.5 21C4.98 21 .78 12.8.58 12.4c-.1-.3-.1-.6 0-.9.2-.3 4.4-8.5 11.92-8.5s11.72 8.2 11.92 8.6c.1.3.1.6 0 .9-.2.3-4.4 8.5-11.92 8.5Zm-9.92-9c.9 1.6 4.5 7 9.92 7 5.41 0 8.92-5.4 9.92-7-.9-1.6-4.5-7-9.92-7-5.41 0-8.92 5.4-9.92 7Zm9.92 4c-2.2 0-4-1.8-4-4a4.02 4.02 0 0 1 8 0c0 2.2-1.8 4-4 4Zm0-6a2 2 0 0 0-2 2 2 2 0 0 0 4 0 2 2 0 0 0-2-2Z" fill="#868385"/>
    </g>
    <defs>
        <clipPath id="a">
            <path fill="#fff" transform="translate(.5)" d="M0 0h24v24H0z"/>
        </clipPath>
    </defs>
</svg>