<svg width="18" height="18" viewBox="0 0 18 18" fill="none" xmlns="http://www.w3.org/2000/svg">
<g id="Filter">
<path id="Vector" d="M1.5 12.75C1.5 12.3 1.8 12 2.25 12L5.25 12L5.25 11.25C5.25 10.8 5.55 10.5 6 10.5C6.45 10.5 6.75 10.8 6.75 11.25L6.75 14.25C6.75 14.7 6.45 15 6 15C5.55 15 5.25 14.7 5.25 14.25L5.25 13.5L2.25 13.5C1.8 13.5 1.5 13.2 1.5 12.75ZM1.5 5.25C1.5 4.8 1.8 4.5 2.25 4.5L9 4.5C9.45 4.5 9.75 4.8 9.75 5.25C9.75 5.7 9.45 6 9 6L2.25 6C1.8 6 1.5 5.7 1.5 5.25ZM8.25 12.75C8.25 12.3 8.55 12 9 12L15.75 12C16.2 12 16.5 12.3 16.5 12.75C16.5 13.2 16.2 13.5 15.75 13.5L9 13.5C8.55 13.5 8.25 13.2 8.25 12.75ZM11.25 6.75L11.25 3.75C11.25 3.3 11.55 3 12 3C12.45 3 12.75 3.3 12.75 3.75L12.75 4.5L15.75 4.5C16.2 4.5 16.5 4.8 16.5 5.25C16.5 5.7 16.2 6 15.75 6L12.75 6L12.75 6.75C12.75 7.2 12.45 7.5 12 7.5C11.55 7.5 11.25 7.2 11.25 6.75Z" fill="#868385"/>
</g>
</svg>
