<svg xmlns="http://www.w3.org/2000/svg" width="97" height="97" fill="none">
<path fill-rule="evenodd" clip-rule="evenodd" d="M74.697 9.074a3.37 3.37 0 0 1 1.023 4.654l-3.316 5.186 9.233 5.842a3.37 3.37 0 0 1 1.037 4.663l-8.995 14.066a3.37 3.37 0 0 1-4.64 1.032l-9.26-5.859-7.063 11.045a21.804 21.804 0 0 1 4.095 28.264 21.972 21.972 0 0 1-5.956 6.195 22.043 22.043 0 0 1-16.48 3.607 21.972 21.972 0 0 1-8-3.139l-.03-.02a21.832 21.832 0 0 1-9.366-13.687 21.834 21.834 0 0 1 2.967-16.32 22.01 22.01 0 0 1 13.58-9.578 22.028 22.028 0 0 1 13.458 1.133l17.918-28.021 5.14-8.04a3.37 3.37 0 0 1 4.655-1.023Zm-5.923 15.518L63.41 32.98l6.398 4.05 5.364-8.39-6.398-4.048ZM46.54 53.482a3.475 3.475 0 0 1-.11-.064 15.274 15.274 0 0 0-11.384-1.827 15.27 15.27 0 0 0-9.423 6.643 15.096 15.096 0 0 0-2.053 11.283 15.093 15.093 0 0 0 6.462 9.453 15.233 15.233 0 0 0 5.531 2.165 15.304 15.304 0 0 0 11.44-2.504 15.234 15.234 0 0 0 4.131-4.294 15.134 15.134 0 0 0 2.157-5.535 15.063 15.063 0 0 0-2.562-11.337 15.134 15.134 0 0 0-4.189-3.983Z" fill="url(#a)"/><path fill-rule="evenodd" clip-rule="evenodd" d="M74.697 9.074a3.37 3.37 0 0 1 1.023 4.654l-3.316 5.186 9.233 5.842a3.37 3.37 0 0 1 1.037 4.663l-8.995 14.066a3.37 3.37 0 0 1-4.64 1.032l-9.26-5.859-7.063 11.045a21.804 21.804 0 0 1 4.095 28.264 21.972 21.972 0 0 1-5.956 6.195 22.043 22.043 0 0 1-16.48 3.607 21.972 21.972 0 0 1-8-3.139l-.03-.02a21.832 21.832 0 0 1-9.366-13.687 21.834 21.834 0 0 1 2.967-16.32 22.01 22.01 0 0 1 13.58-9.578 22.028 22.028 0 0 1 13.458 1.133l17.918-28.021 5.14-8.04a3.37 3.37 0 0 1 4.655-1.023Zm-5.923 15.518L63.41 32.98l6.398 4.05 5.364-8.39-6.398-4.048ZM46.54 53.482a3.475 3.475 0 0 1-.11-.064 15.274 15.274 0 0 0-11.384-1.827 15.27 15.27 0 0 0-9.423 6.643 15.096 15.096 0 0 0-2.053 11.283 15.093 15.093 0 0 0 6.462 9.453 15.233 15.233 0 0 0 5.531 2.165 15.304 15.304 0 0 0 11.44-2.504 15.234 15.234 0 0 0 4.131-4.294 15.134 15.134 0 0 0 2.157-5.535 15.063 15.063 0 0 0-2.562-11.337 15.134 15.134 0 0 0-4.189-3.983Z" fill="url(#b)"/><defs><linearGradient id="a" x1="49.852" y1="88.114" x2="49.852" y2="8.543" gradientUnits="userSpaceOnUse"><stop stop-color="#009DB9"/><stop offset="1" stop-color="#33B7C1"/></linearGradient><linearGradient id="b" x1="49.852" y1="82.821" x2="49.852" y2="16.476" gradientUnits="userSpaceOnUse"><stop stop-color="#231F20"/><stop offset="1" stop-color="#747374"/></linearGradient></defs></svg>