<svg width="14" height="15" viewBox="0 0 14 15" fill="none" xmlns="http://www.w3.org/2000/svg">
<path fill-rule="evenodd" clip-rule="evenodd" d="M13.3 7.50139H11.2V1.20264C11.2005 1.07932 11.1684 0.958058 11.1069 0.851135C11.0455 0.744211 10.9568 0.655424 10.85 0.593764C10.7436 0.532338 10.6229 0.5 10.5 0.5H0.700005C0.57713 0.5 0.456419 0.532338 0.350005 0.593764C0.243182 0.655424 0.154553 0.744211 0.0930902 0.851135C0.0316279 0.958058 -0.000484179 1.07932 5.51802e-06 1.20264V12.4004C5.51802e-06 12.9573 0.221255 13.4913 0.615081 13.885C1.00891 14.2788 1.54305 14.5 2.1 14.5H11.9C12.457 14.5 12.9911 14.2788 13.3849 13.885C13.7788 13.4913 14 12.9573 14 12.4004V8.20125C14 8.01564 13.9263 7.83763 13.795 7.70638C13.6637 7.57513 13.4857 7.50139 13.3 7.50139ZM1.60503 12.8953C1.73631 13.0265 1.91435 13.1003 2.1 13.1003H9.926C9.84451 12.8759 9.8019 12.6392 9.8 12.4004V1.90246H1.4L1.4 12.4004C1.4 12.586 1.47375 12.764 1.60503 12.8953ZM12.395 12.8953C12.5263 12.764 12.6 12.586 12.6 12.4004V8.90111H11.2V12.4004C11.2 12.586 11.2738 12.764 11.405 12.8953C11.5363 13.0265 11.7143 13.1003 11.9 13.1003C12.0857 13.1003 12.2637 13.0265 12.395 12.8953Z" fill="black"/>
<path fill-rule="evenodd" clip-rule="evenodd" d="M3.5 9.60097H6.3C6.48565 9.60097 6.6637 9.67471 6.79497 9.80596C6.92625 9.93721 7 10.1152 7 10.3008C7 10.4864 6.92625 10.6645 6.79497 10.7957C6.6637 10.927 6.48565 11.0007 6.3 11.0007H3.5C3.31435 11.0007 3.13631 10.927 3.00503 10.7957C2.87375 10.6645 2.8 10.4864 2.8 10.3008C2.8 10.1152 2.87375 9.93721 3.00503 9.80596C3.13631 9.67471 3.31435 9.60097 3.5 9.60097ZM7.7 5.40181H3.5C3.31435 5.40181 3.13631 5.32807 3.00503 5.19682C2.87375 5.06557 2.8 4.88756 2.8 4.70195C2.8 4.51633 2.87375 4.33832 3.00503 4.20707C3.13631 4.07582 3.31435 4.00209 3.5 4.00209H7.7C7.88565 4.00209 8.0637 4.07582 8.19498 4.20707C8.32625 4.33832 8.4 4.51633 8.4 4.70195C8.4 4.88756 8.32625 5.06557 8.19498 5.19682C8.0637 5.32807 7.88565 5.40181 7.7 5.40181ZM3.5 6.80153H7.7C7.88565 6.80153 8.0637 6.87527 8.19498 7.00652C8.32625 7.13776 8.4 7.31578 8.4 7.50139C8.4 7.68701 8.32625 7.86502 8.19498 7.99627C8.0637 8.12752 7.88565 8.20125 7.7 8.20125H3.5C3.31435 8.20125 3.13631 8.12752 3.00503 7.99627C2.87375 7.86502 2.8 7.68701 2.8 7.50139C2.8 7.31578 2.87375 7.13776 3.00503 7.00652C3.13631 6.87527 3.31435 6.80153 3.5 6.80153Z" fill="black"/>
</svg>
