<svg xmlns="http://www.w3.org/2000/svg" width="64" height="66" fill="none"><path fill="#000" fill-rule="evenodd" d="M5.926.444A5.481 5.481 0 0 0 .444 5.926v47.407c0 6.955 5.638 12.593 12.593 12.593h40.296c.148 0 .294-.01.438-.03a9.037 9.037 0 0 0 9.785-9.007V39.11a5.481 5.481 0 0 0-5.482-5.481h-6.37V5.926A5.482 5.482 0 0 0 46.221.444H5.926Zm39.555 57.63c0 .559.058 1.104.17 1.63H13.037a6.37 6.37 0 0 1-6.37-6.37V6.666H45.48v51.407Zm11.852-1.185a2.815 2.815 0 0 1-5.63 0V39.852h5.63v17.037Z" clip-rule="evenodd"/><path fill="#000" fill-rule="evenodd" d="M12.297 17.778a3.111 3.111 0 0 1 3.11-3.111h21.334a3.111 3.111 0 1 1 0 6.222H15.408a3.111 3.111 0 0 1-3.111-3.111ZM12.297 32a3.111 3.111 0 0 1 3.11-3.111h21.334a3.111 3.111 0 1 1 0 6.222H15.408A3.111 3.111 0 0 1 12.297 32ZM12.297 46.222a3.111 3.111 0 0 1 3.11-3.11H27.26a3.111 3.111 0 1 1 0 6.221H15.408a3.111 3.111 0 0 1-3.111-3.11Z" clip-rule="evenodd"/></svg>