<svg xmlns="http://www.w3.org/2000/svg" width="25" height="38" fill="none"><path fill="#000" d="M10.3358 19.3681c.211-.6493.9083-1.0046 1.5576-.7936l.9404.3056c.6493.2109 1.0046.9083.7936 1.5575l-.3055.9405c-.211.6492-.9083 1.0045-1.5576.7936l-.9405-.3056c-.6492-.2109-1.00452-.9083-.7936-1.5575l.3056-.9405ZM8.83583 17.5811c-.32462-.1055-.67329.0722-.77877.3968l-.68755 2.116c-.10547.3247.07218.6733.39681.7788l.47023.1528c.32463.1055.6733-.0722.77878-.3968l.68754-2.1161c.10548-.3246-.07218-.6733-.39681-.7787l-.47023-.1528ZM14.6406 20.1172c.1055-.3246.4542-.5023.7788-.3968l.4702.1528c.3246.1054.5023.4541.3968.7787l-.6875 2.1161c-.1055.3246-.4542.5023-.7788.3968l-.4702-.1528c-.3247-.1055-.5023-.4542-.3968-.7788l.6875-2.116Z"/><path fill="#000" fill-rule="evenodd" d="M12.259 5.04646c.1055-.32463.4541-.50228.7788-.39681l7.0534 2.29182c.3247.10547.5023.45414.3968.77877L17.0503 18.3004c-.1054.3247-.4541.5023-.7787.3969l-7.05352-2.2919c-.32462-.1054-.50228-.4541-.3968-.7787L12.259 5.04646ZM10.5204 15.2514l2.8926-8.90262 5.3759 1.74673-2.8926 8.90259-5.3759-1.7467Z" clip-rule="evenodd"/><path fill="#000" fill-rule="evenodd" d="M24.5012 5.70877c.1955.8848.0304 1.65453-.1398 2.1785L15.6983 34.5496c-.1703.524-.4892 1.2437-1.1674 1.8446-.6992.6195-1.5345.898-2.3502.9844-1.4505.1537-3.3053-.2599-5.62395-1.0133-2.31864-.7533-4.06231-1.509-5.14544-2.4859C.802201 33.33.290085 32.6138.0885533 31.7016c-.1954833-.8848-.0304234-1.6545.1398247-2.1785L8.8915 2.8608c.17025-.52396.48915-1.24371 1.1674-1.84463.6992-.619508 1.5345-.897925 2.3502-.9843518C13.8595-.121868 15.7144.291703 18.033 1.04508c2.3187.75337 4.0623 1.50902 5.1454 2.48592.6092.54937 1.1213 1.26559 1.3228 2.17777Zm-7.2407-2.28605c4.6323 1.50515 5.1094 2.50348 4.7232 3.69201L13.3206 33.7771c-.3862 1.1885-1.3589 1.7157-5.99131.2106-4.63238-1.5052-5.10945-2.5035-4.72327-3.692L11.2691 3.63334c.3862-1.18852 1.359-1.71577 5.9914-.21062Z" clip-rule="evenodd"/></svg>