<svg width="24" height="24" viewBox="0 0 24 24" fill="none" xmlns="http://www.w3.org/2000/svg">
<path d="M12 22.99C11.8 22.99 11.7 22.99 11.6 22.89C11.2 22.69 3 18.49 3 11.99L3 4.99001C3 4.59001 3.3 4.19001 3.6 4.09001L11.6 1.09001C11.8 0.990013 12.1 0.990013 12.3 1.09001L20.3 4.09001C20.7 4.19001 21 4.59001 21 4.99001L21 11.99C21 18.49 12.8 22.69 12.4 22.89C12.3 22.99 12.2 22.99 12 22.99ZM5 5.69001L5 11.99C5 16.49 10.4 19.89 12 20.89C13.6 19.99 19 16.59 19 11.99L19 5.69001L12 3.09001L5 5.69001Z" fill="#231F20"/>
</svg>
