<svg xmlns="http://www.w3.org/2000/svg" width="9" height="12" fill="none"><path fill="gray" fill-rule="evenodd" d="M4.4622 0c.35936 0 .65068.291319.65068.65068V1.6696c0 .35936-.29132.65068-.65068.65068s-.65068-.29132-.65068-.65068V.65068C3.81152.291319 4.10284 0 4.4622 0ZM.5 3.70756c0-.35936.291319-.65068.65068-.65068h6.62319c.35936 0 .65068.29132.65068.65068 0 .35937-.29132.65068-.65068.65068H1.15068C.791319 4.35824.5 4.06693.5 3.70756Zm.65068 1.64181C.791319 5.34937.5 5.64068.5 6.00005c0 .35936.291319.65068.65068.65068h6.62319c.35936 0 .65068-.29132.65068-.65068 0-.35937-.29132-.65068-.65068-.65068H1.15068ZM.5 8.29253c0-.35936.291319-.65068.65068-.65068h6.62319c.35936 0 .65068.29132.65068.65068s-.29132.65068-.65068.65068H1.15068C.791319 8.94321.5 8.65189.5 8.29253Zm4.61288 2.03807c0-.35935-.29132-.65067-.65068-.65067s-.65068.29132-.65068.65067v1.0189c0 .3594.29132.6507.65068.6507s.65068-.2913.65068-.6507v-1.0189Z" clip-rule="evenodd"/></svg>