<svg width="15" height="16" viewBox="0 0 15 16" fill="none" xmlns="http://www.w3.org/2000/svg">
<g id="u:tag-alt">
<path id="Vector" d="M4.68751 4.25001C4.50209 4.25001 4.32083 4.30499 4.16666 4.40801C4.01249 4.51102 3.89233 4.65744 3.82137 4.82874C3.75042 5.00005 3.73185 5.18855 3.76802 5.37041C3.8042 5.55226 3.89349 5.71931 4.0246 5.85042C4.15571 5.98153 4.32276 6.07082 4.50461 6.107C4.68647 6.14317 4.87497 6.1246 5.04628 6.05365C5.21758 5.98269 5.364 5.86253 5.46701 5.70836C5.57003 5.55419 5.62501 5.37293 5.62501 5.18751C5.62501 4.93887 5.52624 4.70041 5.35042 4.5246C5.17461 4.34878 4.93615 4.25001 4.68751 4.25001ZM13.2 7.19376L7.94376 1.93126C7.88536 1.87333 7.8161 1.82751 7.73995 1.7964C7.6638 1.7653 7.58226 1.74953 7.50001 1.75001H1.87501C1.70925 1.75001 1.55028 1.81586 1.43307 1.93307C1.31586 2.05028 1.25001 2.20925 1.25001 2.37501V8.00001C1.24953 8.08226 1.2653 8.1638 1.2964 8.23995C1.32751 8.3161 1.37333 8.38536 1.43126 8.44376L6.69376 13.7C7.04532 14.0511 7.52188 14.2484 8.01876 14.2484C8.51564 14.2484 8.9922 14.0511 9.34376 13.7L13.2 9.87501C13.5511 9.52345 13.7484 9.04689 13.7484 8.55001C13.7484 8.05313 13.5511 7.57657 13.2 7.22501V7.19376ZM12.3188 8.95626L8.45626 12.8125C8.33916 12.9289 8.18075 12.9943 8.01564 12.9943C7.85052 12.9943 7.69211 12.9289 7.57501 12.8125L2.50001 7.74376V3.00001H7.24376L12.3188 8.07501C12.3767 8.13341 12.4225 8.20267 12.4536 8.27882C12.4847 8.35497 12.5005 8.43651 12.5 8.51876C12.4993 8.68272 12.4342 8.83985 12.3188 8.95626Z" fill="black"/>
</g>
</svg>
