<svg width="24" height="24" viewBox="0 0 24 24" fill="none" xmlns="http://www.w3.org/2000/svg">
<path fill-rule="evenodd" clip-rule="evenodd" d="M14.2374 5.04758C13.8451 3.86343 12.5627 3.33057 11.3219 3.15637C9.98533 2.96872 8.32394 3.12647 6.63497 3.63495C4.946 4.14343 3.47364 4.92911 2.46279 5.82349C1.5216 6.65623 0.744693 7.81295 1.07902 9.02079L2.02282 12.4912L2.02595 12.5017C2.20619 13.1003 2.64289 13.5327 3.13575 13.8289C3.629 14.1253 4.23379 14.3212 4.87881 14.4367C5.86677 14.6135 7.03322 14.6164 8.22953 14.4342C8.28684 15.2649 8.62629 16.0924 9.16983 16.8487C9.98616 17.9845 11.2972 19.0199 13.0024 19.8178C14.7115 20.6175 16.4673 20.991 17.9453 20.9141C19.3771 20.8397 20.7747 20.3156 21.3707 19.0647L22.7431 16.4395C22.7612 16.4049 22.7765 16.3697 22.7892 16.3339C23.3168 15.0829 22.7899 13.6935 21.9195 12.5635C20.9984 11.3678 19.5429 10.2403 17.7861 9.41832C16.8995 9.00344 16.0061 8.69901 15.1474 8.50581L14.2547 5.10651L14.2559 5.10616L14.2475 5.07892L14.2391 5.04712L14.2374 5.04758ZM3.53848 7.03927C2.68296 7.79621 2.57137 8.34863 2.64735 8.601L2.74581 8.96483C3.05061 9.15058 3.47274 9.30018 4.02365 9.38728C5.11783 9.56028 6.5603 9.45094 8.07985 8.99346C9.5994 8.53599 10.8625 7.83081 11.6793 7.08248C12.3378 6.47923 12.6325 5.92463 12.6625 5.48296C12.5255 5.23416 12.0989 4.90471 11.0962 4.76394C10.0406 4.61573 8.61957 4.73277 7.10294 5.18937C5.58631 5.64596 4.33683 6.3329 3.53848 7.03927ZM13.0695 6.98417C12.8645 7.2721 12.6146 7.54653 12.3373 7.80066C11.3906 8.66795 9.98898 9.43589 8.36063 9.92611C6.73229 10.4163 5.13968 10.5498 3.87154 10.3493C3.59612 10.3058 3.32716 10.2446 3.07207 10.1641L3.58262 12.0409C3.61256 12.1323 3.7054 12.2773 3.97186 12.4375C4.245 12.6016 4.64572 12.7458 5.16477 12.8387C6.05108 12.9973 7.17816 12.9875 8.35076 12.7672L8.3501 12.7646C8.55255 12.7144 8.75683 12.6585 8.96228 12.5967C10.5037 12.1326 11.8508 11.3613 12.7481 10.5468C13.1956 10.1406 13.515 9.73833 13.6974 9.37517L13.0695 6.98417ZM9.91557 13.6753C9.94373 13.5886 9.95751 13.4965 9.95479 13.4025C10.8399 14.5906 12.291 15.7294 14.0595 16.5569C15.7857 17.3646 17.5383 17.7471 18.989 17.6927C19.4727 17.6746 19.9404 17.606 20.3674 17.4798L19.9162 18.343L19.9086 18.3592C19.6955 18.8147 19.0638 19.2304 17.861 19.293C16.698 19.3535 15.2072 19.0572 13.6904 18.3474C12.1698 17.6359 11.1043 16.7587 10.488 15.9013C9.87697 15.0511 9.74109 14.2793 9.91557 13.6753ZM20.6334 13.5541C21.373 14.5142 21.4783 15.255 21.2933 15.7031C20.9791 16.2724 20.1932 16.6729 18.9525 16.7194C17.6863 16.7669 16.0877 16.4306 14.4723 15.6747C12.8655 14.9229 11.5948 13.9214 10.8209 12.932C11.8335 12.4659 12.722 11.8859 13.4028 11.268C13.8385 10.8724 14.2012 10.4503 14.4544 10.02C15.2894 10.1767 16.1911 10.4643 17.0982 10.8887C18.6694 11.6238 19.9007 12.6029 20.6334 13.5541Z" fill="white"/>
</svg>
