<svg width="34" height="28" viewBox="0 0 34 28" fill="none" xmlns="http://www.w3.org/2000/svg">
<path fill-rule="evenodd" clip-rule="evenodd" d="M3.90936 6.09741C2.59183 7.26314 2.41999 8.11389 2.53699 8.50255L2.53626 8.50277L2.68863 9.06287C3.15803 9.34893 3.80813 9.57932 4.65655 9.71346C6.34165 9.97989 8.56311 9.81149 10.9033 9.10696C13.2435 8.40244 15.1887 7.31642 16.4466 6.16397C17.4607 5.23493 17.9146 4.38083 17.9607 3.70064C17.7498 3.31748 17.0928 2.8101 15.5487 2.59331C13.9229 2.36506 11.7345 2.54532 9.3988 3.24849C7.06312 3.95167 5.13887 5.00958 3.90936 6.09741ZM18.5875 6.01256C18.2718 6.45599 17.8871 6.87862 17.4599 7.26999C16.002 8.60565 13.8434 9.78832 11.3357 10.5433C8.82798 11.2983 6.37529 11.5038 4.4223 11.1951C3.99813 11.128 3.58393 11.0337 3.19108 10.9098L3.97735 13.8001C4.02346 13.941 4.16643 14.1643 4.5768 14.4109C4.99744 14.6636 5.61457 14.8858 6.41392 15.0288C7.77889 15.2731 9.51465 15.258 11.3205 14.9187L11.3195 14.9146C11.6313 14.8374 11.9459 14.7513 12.2623 14.656C14.6361 13.9414 16.7107 12.7536 18.0926 11.4991C18.7817 10.8736 19.2736 10.2541 19.5545 9.69481L18.5875 6.01256ZM13.7304 16.3171C13.7737 16.1836 13.795 16.0418 13.7908 15.8971C15.1539 17.7268 17.3886 19.4806 20.1123 20.755C22.7706 21.9989 25.4697 22.5879 27.7038 22.5042C28.4489 22.4762 29.1691 22.3707 29.8267 22.1764L29.1446 23.4812L29.1318 23.5056L29.1201 23.5306C28.7919 24.232 27.819 24.8724 25.9668 24.9687C24.1756 25.0618 21.8797 24.6055 19.5438 23.5125C17.2019 22.4167 15.5611 21.0658 14.612 19.7453C13.6709 18.4359 13.4617 17.2473 13.7304 16.3171ZM30.2363 16.1306C31.3753 17.6092 31.5375 18.75 31.2525 19.4401C30.7688 20.3169 29.5584 20.9336 27.6476 21.0052C25.6976 21.0783 23.2357 20.5604 20.748 19.3964C18.2734 18.2385 16.3164 16.6962 15.1247 15.1725C16.6841 14.4546 18.0524 13.5615 19.1008 12.6098C19.7718 12.0006 20.3304 11.3506 20.7204 10.6879C22.0062 10.9293 23.395 11.372 24.7919 12.0256C27.2116 13.1578 29.1079 14.6656 30.2363 16.1306ZM20.3861 3.03014C19.782 1.20649 17.8071 0.385866 15.8963 0.117593C13.8378 -0.171406 11.2792 0.0715437 8.6781 0.854623C6.07701 1.6377 3.80952 2.84769 2.25276 4.22507C0.80329 5.50753 -0.393184 7.28893 0.121694 9.14905L0.12125 9.14918L1.57078 14.4775L1.57518 14.4937L1.58001 14.5097C1.85758 15.4317 2.53013 16.0977 3.28915 16.5537C4.04878 17.0102 4.98017 17.312 5.97355 17.4897C7.49505 17.762 9.29143 17.7665 11.1338 17.4859C11.2221 18.7652 11.7448 20.0396 12.5819 21.2043C13.8391 22.9535 15.8581 24.5481 18.4843 25.7769C21.1164 27.0085 23.8203 27.5837 26.0966 27.4653C28.3015 27.3507 30.4539 26.5435 31.3717 24.6172L33.4853 20.5742C33.5132 20.5209 33.5368 20.4666 33.5563 20.4115C34.3688 18.485 33.5574 16.3452 32.2169 14.605C30.7984 12.7635 28.5569 11.0272 25.8514 9.76127C24.4859 9.12233 23.1101 8.6535 21.7877 8.35596L20.4129 3.12088L20.4146 3.12035L20.4017 3.0784L20.3888 3.02942L20.3861 3.03014Z" fill="black"/>
</svg>
